<svg xmlns="http://www.w3.org/2000/svg" viewBox="0 0 500 500"><defs><style>.cls-1{fill:#53245d;}.cls-2{fill:#693671;}.cls-3{fill:#7d4289;}.cls-4{fill:#c3c0e6;}.cls-5{fill:#f4fcff;}.cls-6{opacity:0.38;}.cls-7{fill:none;stroke:#233d54;stroke-miterlimit:10;}.cls-8{fill:#233d54;}.cls-9{fill:#f6f6f6;}.cls-10{fill:#acacac;}.cls-11{fill:#7c2657;}.cls-12{fill:#602256;}.cls-13{fill:#f08d8a;}.cls-14{fill:#f5bba0;}.cls-15{fill:#f9d591;}.cls-16{fill:#f18c35;}.cls-17{fill:#ec4e75;}.cls-18{fill:#ed5a29;}.cls-19{fill:#c13373;}.cls-20{fill:#481f70;}.cls-21{fill:#f8d5c8;}</style></defs><g id="BACKGROUND"><path class="cls-1" d="M500,310.33v65.6l-37-63.37-2.77-4.74h0l-2.57-4.37-3.49-6,7.69-3.44,1-.45,4.08-1.83,1.88-.85,1.15-.51.18-.08S485.66,300.65,500,310.33Z"/><rect class="cls-2" width="500" height="500"/><path class="cls-3" d="M500,382.52v3.08c-12.54,4-22.92,11.69-33,20.37s-20.25,17.18-32,23.67a173.63,173.63,0,0,1-37.47,14.91c-26.49,7.31-53.82,8.35-80.9,12.08-13.51,1.87-27,4.54-39.76,9.44a108.4,108.4,0,0,0-33.12,20.33A149,149,0,0,0,230.38,500h-4a143.69,143.69,0,0,1,21.86-21.26C270,462,296.38,456,323.07,452.8c27.86-3.36,55.78-5.07,82.65-13.85a154.72,154.72,0,0,0,37.19-17.6C454.35,413.8,464,404,474.82,395.68A77.79,77.79,0,0,1,500,382.52Z"/><path class="cls-3" d="M500,425.11v3.26c-1.24.55-2.46,1.14-3.67,1.75a91.89,91.89,0,0,0-47.73,61.52q-.94,4.14-1.5,8.36h-2.92a95.56,95.56,0,0,1,25.15-53.55A93.74,93.74,0,0,1,500,425.11Z"/><path class="cls-3" d="M398.47,500h-3.62c-.22-.32-.44-.63-.67-.93-8.53-11.45-22.36-17.4-36.46-17.45-14.44-.06-27.66,5.91-38,15.84-.86.83-1.71,1.67-2.53,2.54h-4.05a74.07,74.07,0,0,1,13.1-11.76,55.42,55.42,0,0,1,41.79-8.59A46.84,46.84,0,0,1,398.47,500Z"/><path class="cls-3" d="M219.82,470.37A195,195,0,0,0,174.12,500H169.5a211.82,211.82,0,0,1,17.06-13.71,193.23,193.23,0,0,1,18.7-11.92c6.43-3.58,13.14-6.47,19.72-9.73,6.4-3.17,12.75-7.18,15.94-13.83,3.11-6.49,2.33-14.37-4.14-18.4-5.91-3.69-13.66-3.77-20.39-3.68a114.56,114.56,0,0,0-24.6,3.14c-32.74,7.63-61.21,26.37-92.18,38.64C70.09,482.2,37.43,488,5.89,482.37q-3-.53-5.89-1.19v-3.12a133.33,133.33,0,0,0,24.06,3.33c34.64,1.6,67.38-9.42,98.2-24.22,29.76-14.27,60.25-31,94.13-31.45,11.59-.15,28.84,1.79,29.36,16.82S231.45,465,219.82,470.37Z"/><path class="cls-3" d="M57.3,414.06c-8.6,6.39-19.65,7.87-30.09,7.24A108.15,108.15,0,0,1,0,416.09v-3.17c.77.27,1.54.52,2.32.76,18.09,5.61,45.09,9.88,58.57-7.17,6.52-8.24,5.81-18.92.54-27.61C56,370,46.79,364.29,37.86,359.37A411.74,411.74,0,0,0,0,341.1v-3.22c7.75,3.27,15.42,6.72,23,10.41,10.17,5,20.75,10,29.75,16.95,8.09,6.24,14.79,14.86,15.85,25.32C69.54,400,64.74,408.54,57.3,414.06Z"/><path class="cls-3" d="M295.09,0a62.93,62.93,0,0,1-9.29,31C270.65,56.14,242,72.46,213,75.17c-15.48,1.44-30.46-1.62-44.75-7.51-14.7-6.06-28.48-14.22-43.5-19.49C92.09,36.7,57,44.77,23.58,37.9A86.9,86.9,0,0,1,0,29.62V26.28c12.3,7,26.68,9.82,40.65,11,16.25,1.37,32.58.56,48.85,1.47A132.89,132.89,0,0,1,135,49c14,6,27.17,13.68,41.56,18.63a86.76,86.76,0,0,0,43.69,3.56c28-5,55.47-23.15,67.09-49.7A55.66,55.66,0,0,0,292,0Z"/><path class="cls-3" d="M185.74,0a71.77,71.77,0,0,1-29.45,23c-17.92,7.42-37.79,5.75-56.44,2.43S62,17.53,45.39,7.72A67.5,67.5,0,0,1,34.64,0h4.62A84,84,0,0,0,57.57,10.6c16.49,7.31,34.9,11.14,52.71,13.49,17.31,2.28,35.32,1.8,51-6.74A69.52,69.52,0,0,0,181.93,0Z"/><path class="cls-3" d="M500,145.94v3.53a204.92,204.92,0,0,0-48-22.73c-12.46-4-25.62-5.8-37.88-10.38-10.58-4-20.79-10.7-25.38-21.41-4.42-10.28-2.79-22,1.48-32,4.56-10.69,12.38-19,20.06-27.52,7.41-8.23,15.13-17.25,16.95-28.55A31.36,31.36,0,0,0,427.58,0h2.95a34.42,34.42,0,0,1-.38,7.69c-2,12-10.31,21.68-18.23,30.43s-16,17.53-20.07,28.93-4,24.33,4.13,33.92c8.56,10.12,21.83,13.94,34.23,16.89,11.89,2.82,23.56,5.9,35,10.4A210,210,0,0,1,500,145.94Z"/><path class="cls-3" d="M500,94.46v3a101,101,0,0,1-10.69-.82c-13-1.78-25.7-7.13-33.28-18.32-7.15-10.58-6.56-23.14.43-33.62C464.3,33,477.08,26.06,486,15.32A55,55,0,0,0,494.93,0h3.18a58.69,58.69,0,0,1-8.74,15.86C481,26.63,468.61,33.34,460.44,44.24c-3.75,5-6.6,10.91-6.71,17.26a27.41,27.41,0,0,0,6.47,17.41c8.62,10.68,22.34,14.48,35.54,15.35C497.16,94.36,498.58,94.42,500,94.46Z"/></g><g id="OBJECTS"><path class="cls-1" d="M465.37,300.82,356.55,92a9.5,9.5,0,0,0-12.81-4L45,243.74a9.5,9.5,0,0,0-4,12.81L149.75,465.32a9.5,9.5,0,0,0,12.81,4L461.33,313.63A9.51,9.51,0,0,0,465.37,300.82Z"/><path class="cls-4" d="M465.78,288.15,352.68,81.66a9.5,9.5,0,0,0-12.89-3.77L44.29,239.74a9.5,9.5,0,0,0-3.77,12.89L153.61,459.12a9.5,9.5,0,0,0,12.89,3.77L462,301A9.5,9.5,0,0,0,465.78,288.15Z"/><path class="cls-5" d="M464.79,305.88l-16.09,6.77-294.42,124a9.48,9.48,0,0,1-12.43-5.06l-91.4-217a9.49,9.49,0,0,1,5.06-12.43L366,71.41a9.49,9.49,0,0,1,12.43,5.07L398,122.85l24.77,58.81L433,206.06l36.81,87.39A9.49,9.49,0,0,1,464.79,305.88Z"/><path class="cls-4" d="M433,206.06l-81.46-39.74c-9.57-14.95,1.18-29.08,22.89-35.54,9.13-2.72,17.21-5.56,23.52-7.93l24.77,58.81Z"/><path class="cls-4" d="M464.79,305.88l-16.09,6.77L418,237.48s-44.43-19.33-59.41-52.74S386.7,152.9,389,154.44c1.25.82,18.12,14.45,33.74,27.22l47.09,111.78A9.5,9.5,0,0,1,464.79,305.88Z"/><g class="cls-6"><rect class="cls-7" x="118.43" y="198.13" width="80.46" height="88.13" rx="0.96" transform="translate(-81.57 80.59) rotate(-22.84)"/><line class="cls-7" x1="132.28" y1="283.19" x2="206.44" y2="251.96"/><path class="cls-8" d="M181.82,272.15l-18.37,7.73a1,1,0,0,1-1.25-.51h0a1,1,0,0,1,.51-1.26l18.36-7.73a1,1,0,0,1,1.26.51h0A1,1,0,0,1,181.82,272.15Z"/><path class="cls-8" d="M202.49,263.44l-8.86,3.73a1,1,0,0,1-1.25-.51h0a1,1,0,0,1,.51-1.26l8.85-3.73a1,1,0,0,1,1.26.51h0A1,1,0,0,1,202.49,263.44Z"/><path class="cls-8" d="M152.11,284.66l-8.86,3.73a1,1,0,0,1-1.25-.51h0a1,1,0,0,1,.51-1.26l8.86-3.73a1,1,0,0,1,1.25.51h0A1,1,0,0,1,152.11,284.66Z"/><path class="cls-8" d="M176.25,254.26a7.48,7.48,0,0,0,3.27-.93c4.33-2.35,5.61-7.6,4.61-12.15a19.58,19.58,0,0,0-1.29-3.85,12.38,12.38,0,0,0-1.82-3.18,3.73,3.73,0,0,0-2.9-1.39,2.69,2.69,0,0,0-2.39,1.79,4.76,4.76,0,0,0,.19,3.36,22.35,22.35,0,0,1,1.16,3.67c.15.81.67,6.68-1.21,5.62a5.84,5.84,0,0,1-1.24-1.14,12.55,12.55,0,0,0-1.53-1.38,6.8,6.8,0,0,0-3.52-1.41,9.16,9.16,0,0,0-4.6.94,6.25,6.25,0,0,0,.68-1.07c1.26-2.6.39-6.15-1-8.5a5.83,5.83,0,0,0-7.09-2.72,5.6,5.6,0,0,0-3.55,4.44.62.62,0,0,0-.14.59l.06.22a6,6,0,0,0,.38,2.36.64.64,0,0,0,.57.45,11.8,11.8,0,0,0,3.92,5,5.45,5.45,0,0,0,.66.39c.13.38.27.77.42,1.16-2.83,1.3-5.58,3.13-5.92,6.52a14.24,14.24,0,0,0,.88,5.63c.66,2.11,1.53,4.15,2.19,6.25a16.5,16.5,0,0,1,.88,6.79.67.67,0,0,0,.2.6.74.74,0,0,0,1.28-.4c0-.05,0-.1,0-.15a20.07,20.07,0,0,0-1.37-8.53h0l1.74-.46a.54.54,0,0,0,.28-.11.45.45,0,0,0,.22-.19l.05-.07a42.72,42.72,0,0,1,2.45,7.42.76.76,0,0,0,.24.41c.46.42,1.37.18,1.26-.54a.13.13,0,0,0,0-.06,45.51,45.51,0,0,0-4.1-11c-.45-.84-1.84-.27-1.38.59.37.69.71,1.4,1,2.12a.49.49,0,0,0-.24,0l-1.75.46a.56.56,0,0,0-.28.1l0,0c-.16-.46-.33-.92-.49-1.37-1.14-3.12-2.9-7.4-.27-10.24a11,11,0,0,1,3.73-2.39,5.31,5.31,0,0,0,2.12,2.16,2.61,2.61,0,0,0,2.73-.13,2.26,2.26,0,0,0,.7-2.63c-.16-.55-.4-1.07-.61-1.6,0,0,0,0,0-.05a7.73,7.73,0,0,1,4-.88,5.69,5.69,0,0,1,3.15,1.37c.81.67,1.44,1.58,2.3,2.18a2.69,2.69,0,0,0,1.61.52c.3,1,.61,2.06.92,3.09a.71.71,0,0,0,.67.46l-.58.19a5.76,5.76,0,0,1-1.8.2,3.46,3.46,0,0,0-1.72.17c-1.3.66-.49,2.3-.11,3.28a22.49,22.49,0,0,0,4.66,7.33.44.44,0,0,0,.15.12.8.8,0,0,0,1.21-.51.61.61,0,0,0-.18-.53,21.59,21.59,0,0,1-4.33-6.67q-.2-.48-.36-1a6,6,0,0,1-.28-.75A13.7,13.7,0,0,1,176.25,254.26Zm-14.58-8.14a.71.71,0,0,0-.43-.13l0-.07a4.7,4.7,0,0,0,.75,0Zm2.92,2.46a.82.82,0,0,1-.25.2l-.21.07-.2,0a1.65,1.65,0,0,1-1-.38,4,4,0,0,1-.87-.91.8.8,0,0,0,.25-.11c.57-.38,1.16-.77,1.78-1.13.18.45.35.89.5,1.35a1.83,1.83,0,0,1,.07.23,2,2,0,0,1,0,.35A.6.6,0,0,1,164.59,248.58Zm0-6.92a3.76,3.76,0,0,1-1.87,2.53,2.93,2.93,0,0,1-2.9-.3,11.53,11.53,0,0,1-4.43-6.89,4.16,4.16,0,0,1,7.69-2A8.89,8.89,0,0,1,164.59,241.66Zm13.22,6.53a4.22,4.22,0,0,0,.88-2.37,15.12,15.12,0,0,0-.91-7.26c-.4-1-1.05-2.22-.69-3.37s1.46-1.13,2.29-.54a7.53,7.53,0,0,1,2,3.06,18.11,18.11,0,0,1,1.27,3.67c.87,4-.16,8.93-4,10.76a.81.81,0,0,0,.15-.8Z"/><path class="cls-8" d="M143.18,251.28a15,15,0,0,0-4.77.93,4.48,4.48,0,0,1-4.2-.55,5.19,5.19,0,0,0-3.88-1.45,8.46,8.46,0,0,0-3.17,1.18,5.16,5.16,0,0,0-7.92-1.28c-.71.65.21,1.84.93,1.18a3.66,3.66,0,0,1,6,1.44.76.76,0,0,0,1.15.3,7.17,7.17,0,0,1,3.64-1.35c1.44,0,2.31,1.35,3.54,1.92a5.55,5.55,0,0,0,3.89.12l-12.81,6.89c-.85.45-.27,1.84.58,1.38l17.24-9.27C144,252.4,144,251.33,143.18,251.28Z"/><path class="cls-8" d="M189,218.86q-10.1,3.75-20.33,7.11a22.26,22.26,0,0,0,2.46-2.3c1.6-1.73,2.69-4,4.88-5.12a14.24,14.24,0,0,1,3.41-.87,3.28,3.28,0,0,0,2.47-1.67c.48-1,.3-2.13,1-3a3.19,3.19,0,0,1,2.69-1.27c1,.06,1.16-1.43.2-1.49a4.76,4.76,0,0,0-4.62,2.74,5.22,5.22,0,0,0-.38,1.39,2.09,2.09,0,0,1-.59,1.45c-.85.66-2.23.56-3.23.82a8.25,8.25,0,0,0-3.19,1.62,14.56,14.56,0,0,0-2.34,2.73,22,22,0,0,1-5.07,4.89,21.5,21.5,0,0,1-4,2.16L159,229.1c-.8.25-.44,1.63.39,1.44a23.47,23.47,0,0,0,3.42-1.09q13.5-4.29,26.8-9.21C190.48,219.91,189.89,218.52,189,218.86Z"/><path class="cls-8" d="M141.48,227.9a7.59,7.59,0,0,0-8-2.5.78.78,0,0,0-.63.67,6.47,6.47,0,0,0-3.7,5.53,5.93,5.93,0,0,0,1.25,3.75,5.55,5.55,0,0,0,3.47,2c2.74.49,6.37-.08,7.92-2.64A6.25,6.25,0,0,0,141.48,227.9Zm-.56,5.14c-.8,2.36-3.36,3-5.63,2.91a5.2,5.2,0,0,1-3.09-.92,4.18,4.18,0,0,1-1.48-2.61c-.4-2.53,1.47-4.67,3.78-5.4a.58.58,0,0,0,.41-.34,6.17,6.17,0,0,1,4.68,1.37A4.72,4.72,0,0,1,140.92,233Z"/><path class="cls-8" d="M141.5,218.2a.77.77,0,0,0-1,.42c-.37,1.19-.75,2.38-1.12,3.57a.83.83,0,0,0,0,.58.8.8,0,0,0,.41.4.76.76,0,0,0,1-.41l1.12-3.58a.8.8,0,0,0,0-.57A.78.78,0,0,0,141.5,218.2Z"/><path class="cls-8" d="M132,223.14l-1.55-1.93a.75.75,0,0,0-1.18.93l1.55,1.93a.76.76,0,0,0,1,.13A.77.77,0,0,0,132,223.14Z"/><rect class="cls-7" x="200.24" y="163.67" width="80.46" height="88.13" rx="0.96" transform="translate(-61.78 109.64) rotate(-22.84)"/><line class="cls-7" x1="214.08" y1="248.74" x2="288.24" y2="217.5"/><path class="cls-8" d="M263.62,237.69l-18.36,7.73a1,1,0,0,1-1.26-.51h0a1,1,0,0,1,.51-1.25l18.36-7.74a1,1,0,0,1,1.26.51h0A1,1,0,0,1,263.62,237.69Z"/><path class="cls-8" d="M284.29,229l-8.86,3.73a1,1,0,0,1-1.25-.51h0a.94.94,0,0,1,.51-1.25l8.86-3.74a1,1,0,0,1,1.25.52h0A1,1,0,0,1,284.29,229Z"/><path class="cls-8" d="M233.91,250.2l-8.85,3.73a1,1,0,0,1-1.26-.51h0a1,1,0,0,1,.51-1.25l8.86-3.73a.94.94,0,0,1,1.25.51h0A1,1,0,0,1,233.91,250.2Z"/><path class="cls-8" d="M279.76,195.47a5.36,5.36,0,0,0-5.37,4,8.52,8.52,0,0,0,1.35,6.78,3.82,3.82,0,0,0-2.37,1.85,5.43,5.43,0,0,0-.12,4.26,4.1,4.1,0,0,0-4.49,5.9,10,10,0,0,0-5.35,1.39,5.69,5.69,0,0,0-1.9,2.12l-3.23-5.44a13.63,13.63,0,0,0-3-4A6.92,6.92,0,0,0,251,211c-1.39,0-3,.12-4.26-.64-1.45-.9-1.91-2.78-1.88-4.39.08-3.62,1.86-7.4-.4-10.73a7.63,7.63,0,0,0-9-2.47,8.81,8.81,0,0,0-5.69,7.31,7.92,7.92,0,0,0,1.22,4.79,8.67,8.67,0,0,0,4,3.09c1.3.6,3.6,1.69,3.19,3.51-.35,1.61-2.52,2.22-3.67,3.1-2.88,2.19-1.82,5.84-1,8.78l2.79,10h0a5.67,5.67,0,0,0-4.06.74,23.84,23.84,0,0,0-1.49-5c-.63-1.47-1.53-3.72-3.44-3.72-2.06,0-2.73,2.41-2.94,4a15,15,0,0,0-.11,1.89,5.82,5.82,0,0,0-3.79-2.15,4.33,4.33,0,0,0-4.09,1.85,8.13,8.13,0,0,0-4.39-4.37,5.15,5.15,0,0,0-6.31,2.1c-.46.85.93,1.4,1.39.56.89-1.65,3.27-1.8,4.81-1.09,2.11,1,3.22,3.33,4,5.4.29.81,1.53.43,1.43-.39-.22-1.93,1.92-2.91,3.53-2.48,2.19.6,3.34,2.73,4.09,4.7.35.92,1.65.32,1.38-.58a12.71,12.71,0,0,1-.48-4.71c.07-.79.36-3.76,1.77-3.22a2.45,2.45,0,0,1,1.09,1.26,20.08,20.08,0,0,1,1.05,2.37,21.89,21.89,0,0,1,1.24,5.06c.07.51.8.91,1.21.49a4.22,4.22,0,0,1,4-1.23.65.65,0,0,0,.59-.15c.07.27.15.54.22.81l.87,3.1c.26.93,1.64.34,1.38-.58l-3.33-11.93c-.49-1.76-1.05-3.51-1.45-5.29-.3-1.33-.55-2.91.2-4.14s2.63-1.79,3.78-2.84a3.47,3.47,0,0,0,1-4.18,6.86,6.86,0,0,0-3.62-3c-1.59-.74-3-1.51-3.84-3.14a6.71,6.71,0,0,1,2.17-8.3c2.56-2,6.55-2.18,8.78.41,2.49,2.88.61,6.83.51,10.15a7.35,7.35,0,0,0,1.3,4.68,5.19,5.19,0,0,0,3.65,1.93c1.55.18,3.22-.12,4.72.41,1.67.59,2.7,2.16,3.58,3.6,1.48,2.44,2.93,4.89,4.38,7.35a4.86,4.86,0,0,0,0,.54.68.68,0,0,0,.68.63l2,3.34a.75.75,0,0,0,1.18-.93l-2.31-3.91a4,4,0,0,1,2.1-2.79c1.69-.94,3.76-.92,5.64-.94.74,0,.76-1,.35-1.35a2.7,2.7,0,0,1,3.44-4.14.76.76,0,0,0,1.14-.89c-.49-1.29-1.15-2.87-.63-4.25a1.87,1.87,0,0,1,2.45-1.23c.69.37,1.29-.6.87-1.16-1.38-1.81-2.64-4.17-2.12-6.52.38-1.72,1.95-3.4,3.82-3.24C280.53,197,280.73,195.55,279.76,195.47Z"/><path class="cls-8" d="M220.47,204.7c-3.06-1.35-6.42-.52-9.47.38a25.38,25.38,0,0,1-5,1.12,8.83,8.83,0,0,1-2.46-.13,16.48,16.48,0,0,1-2.53-.88c-1.74-.67-3.91-1.06-5.43.33-.7.65.22,1.83.93,1.18,1.71-1.57,4.18.1,6,.64a11.79,11.79,0,0,0,5.9,0c3.1-.69,6.5-2.27,9.73-1.77q-8.78,4.27-17.84,7.88a.75.75,0,0,0,.58,1.39q10-4,19.65-8.75A.76.76,0,0,0,220.47,204.7Z"/><path class="cls-8" d="M272,179.45c-2.18.79-4.69,1.86-5.41,4.3a7.21,7.21,0,0,0,.16,3.42,2.76,2.76,0,0,1-.73,2.49c-1.24,1.44-2.88,2.5-2.87,4.6,0,1.12.42,2.28-.42,3.21a15,15,0,0,1-3,2.13L251.41,205c-.73.48,0,1.57.75,1.28q12.59-4.77,24.8-10.4c.87-.41.29-1.79-.59-1.39q-8.89,4.11-18,7.75l1.19-.77c1.11-.72,2.26-1.41,3.33-2.18a4,4,0,0,0,1.8-2.67c.13-1-.32-2.14,0-3.14a6,6,0,0,1,1.56-2,7.22,7.22,0,0,0,1.7-2.15,5,5,0,0,0,.07-3.14,3.37,3.37,0,0,1,.69-3.29,8.84,8.84,0,0,1,3.8-2.07C273.46,180.51,272.87,179.13,272,179.45Z"/><rect class="cls-7" x="282.33" y="129.09" width="80.46" height="88.13" rx="0.96" transform="translate(-41.92 138.8) rotate(-22.84)"/><line class="cls-7" x1="296.18" y1="214.15" x2="370.34" y2="182.92"/><path class="cls-8" d="M345.72,203.11l-18.36,7.73a1,1,0,0,1-1.26-.51h0a1,1,0,0,1,.51-1.26L345,201.34a1,1,0,0,1,1.26.51h0A1,1,0,0,1,345.72,203.11Z"/><path class="cls-8" d="M341.45,121.29c-2.27.68-3.49,2.89-4.11,5-.36,1.22-.58,2.47-1,3.66a6.45,6.45,0,0,1-2.22,3,13.83,13.83,0,0,0-2.87,2.53,8,8,0,0,0-1.49,3.36c-.48,2.61.54,4.81,1.54,7.15a7.6,7.6,0,0,1,.84,3.58,4.36,4.36,0,0,1-1.93,3c-2,1.53-4.7,2.12-6.39,4.12-3.36,4-1.72,9.56.47,13.63,1.44,2.68,3.24,5.25,4.07,8.21.7,2.55.76,5.58-1,7.74-.61.74.45,1.81,1.06,1.06,3.34-4.12,1.65-9.65-.62-13.82s-5.84-9.11-3.88-14.14c1-2.49,3.37-3.41,5.55-4.58s4.12-2.89,4.18-5.5-1.57-4.7-2.26-7a6.61,6.61,0,0,1,1.73-6.63c1-1,2.37-1.65,3.29-2.77a9.89,9.89,0,0,0,1.78-3.83c.6-2.23,1.08-5.52,3.67-6.3A.75.75,0,0,0,341.45,121.29Z"/><path class="cls-8" d="M343.88,147.87c-.08-1-1.59-1-1.5,0a8.79,8.79,0,0,1-1.32,5.56,9.5,9.5,0,0,1-4.64,3.69c-1.89.8-3.91,1.44-5.42,2.88a8.34,8.34,0,0,0-1.07,10.46c.55.78,1.86,0,1.3-.76a6.77,6.77,0,0,1,1.38-9.1c1.7-1.26,3.82-1.75,5.69-2.7a10.25,10.25,0,0,0,5.58-10Z"/><path class="cls-8" d="M317.54,171.48c-.94-1.55-2-3-3-4.57A12.91,12.91,0,0,1,313,156.62a12.31,12.31,0,0,1,7-7.87.77.77,0,0,0,.52-.92.75.75,0,0,0-.92-.52,13.68,13.68,0,0,0-8,16.8c1.09,3.48,3.62,6.16,5.28,9.34a18.06,18.06,0,0,1-3.41,21.26c-.69.68.37,1.74,1.06,1.06a19.77,19.77,0,0,0,5.14-19.33A20.34,20.34,0,0,0,317.54,171.48Z"/><path class="cls-8" d="M366.39,194.4l-8.86,3.73a1,1,0,0,1-1.25-.51h0a1,1,0,0,1,.51-1.26l8.86-3.73a1,1,0,0,1,1.25.51h0A1,1,0,0,1,366.39,194.4Z"/><path class="cls-8" d="M316,215.62l-8.86,3.73a1,1,0,0,1-1.25-.51h0a1,1,0,0,1,.51-1.26l8.86-3.73a1,1,0,0,1,1.25.51h0A1,1,0,0,1,316,215.62Z"/><rect class="cls-7" x="157.5" y="290.87" width="80.46" height="88.13" rx="0.96" transform="translate(-114.51 103.02) rotate(-22.84)"/><line class="cls-7" x1="171.35" y1="375.93" x2="245.5" y2="344.7"/><path class="cls-8" d="M220.88,364.88l-18.36,7.74a1,1,0,0,1-1.26-.51h0a1,1,0,0,1,.52-1.26l18.36-7.73a.94.94,0,0,1,1.25.51h0A.94.94,0,0,1,220.88,364.88Z"/><path class="cls-8" d="M241.55,356.18l-8.85,3.73a1,1,0,0,1-1.26-.51h0a1,1,0,0,1,.51-1.26l8.86-3.73a1,1,0,0,1,1.25.51h0A1,1,0,0,1,241.55,356.18Z"/><path class="cls-8" d="M191.18,377.4l-8.86,3.73a1,1,0,0,1-1.26-.51h0a1,1,0,0,1,.51-1.26l8.86-3.73a1,1,0,0,1,1.26.51h0A1,1,0,0,1,191.18,377.4Z"/><rect class="cls-7" x="239.3" y="256.41" width="80.46" height="88.13" rx="0.96" transform="translate(-94.72 132.08) rotate(-22.84)"/><line class="cls-7" x1="253.15" y1="341.48" x2="327.3" y2="310.24"/><path class="cls-8" d="M302.68,330.43l-18.36,7.73a.94.94,0,0,1-1.25-.51h0a.94.94,0,0,1,.51-1.25l18.36-7.74a1,1,0,0,1,1.25.51h0A1,1,0,0,1,302.68,330.43Z"/><path class="cls-8" d="M323.35,321.72l-8.85,3.73a1,1,0,0,1-1.26-.51h0a1,1,0,0,1,.51-1.26l8.86-3.73a1,1,0,0,1,1.26.52h0A1,1,0,0,1,323.35,321.72Z"/><path class="cls-8" d="M273,342.94l-8.86,3.73a1,1,0,0,1-1.26-.51h0a1,1,0,0,1,.52-1.25l8.85-3.74a1,1,0,0,1,1.26.52h0A1,1,0,0,1,273,342.94Z"/><rect class="cls-7" x="321.4" y="221.83" width="80.46" height="88.13" rx="0.96" transform="translate(-74.86 161.24) rotate(-22.84)"/><line class="cls-7" x1="335.25" y1="306.89" x2="409.4" y2="275.66"/><path class="cls-8" d="M384.78,295.84l-18.36,7.74a1,1,0,0,1-1.25-.51h0a1,1,0,0,1,.51-1.26L384,294.08a.94.94,0,0,1,1.25.51h0A.94.94,0,0,1,384.78,295.84Z"/><path class="cls-8" d="M405.45,287.14l-8.85,3.73a1,1,0,0,1-1.26-.51h0a1,1,0,0,1,.51-1.26l8.86-3.73a1,1,0,0,1,1.25.51h0A1,1,0,0,1,405.45,287.14Z"/><path class="cls-8" d="M355.08,308.36l-8.86,3.73a1,1,0,0,1-1.26-.51h0a1,1,0,0,1,.52-1.26l8.85-3.73a1,1,0,0,1,1.26.51h0A1,1,0,0,1,355.08,308.36Z"/></g><circle class="cls-1" cx="113.89" cy="123.56" r="39.93" transform="translate(-54.01 116.72) rotate(-45)"/><path class="cls-9" d="M162.07,118.19a8,8,0,0,1-8,8h-23.9a8,8,0,1,1,0-16h23.9A8,8,0,0,1,162.07,118.19Z"/><path class="cls-10" d="M150.61,118.19a40.39,40.39,0,0,1-.8,8H130.19a8,8,0,1,1,0-16h19.62A40.37,40.37,0,0,1,150.61,118.19Z"/><circle class="cls-9" cx="105.76" cy="118.19" r="39.93" transform="translate(-52.6 109.4) rotate(-45)"/><path class="cls-11" d="M135.45,118.19a29.66,29.66,0,1,1-2.57-12.11A29.7,29.7,0,0,1,135.45,118.19Z"/><path class="cls-12" d="M132.88,106.08c-1.78-1.14-3.92-1.35-6.33-1.5-5.12-.31-3.08-6-8.09-4.4s-.62,6.44-7.07,7-5.32,9-11.41,7.88c-5.43-1-21.14,13.73-6.78,30.08a29.7,29.7,0,1,1,39.68-39Z"/><path class="cls-13" d="M384.26,156.38s-7.16,17.1,4.42,23.23,29.29-1.7,29.29-1.7V155.09l-19.75-2.21Z"/><path class="cls-14" d="M412,208.79c-.38,0-9.65-4.22-10.64-4.47L395.24,186l-.93-2.8a16.85,16.85,0,0,0,10.91-16.51,13.86,13.86,0,0,0-1.3-5.26,11.87,11.87,0,0,0-.84-1.47,9.72,9.72,0,0,0-4.05-3.4c-.22-.1-.45-.19-.68-.27-9.84-3.44-31.25,9.71-38.11,11a8.4,8.4,0,0,1-1.24.13,9.61,9.61,0,0,1-8.35-4.4,6.36,6.36,0,0,1,0-6.56,12.09,12.09,0,0,1,2.69-3.22,49.68,49.68,0,0,1,8-5.43c11-6.3,27.38-12.47,35.38-12.07,3.14.15,7.66,1.79,12.64,4.35,1.16.59,2.33,1.23,3.53,1.91a108.23,108.23,0,0,1,18.47,13.38,59.57,59.57,0,0,1,6.2,6.45,32.29,32.29,0,0,1,2.45,3.41c7.67,12.39,8.48,31.77,12.73,37.47S412.4,208.79,412,208.79Z"/><path class="cls-13" d="M437.53,161.82c-8.3.48-24.08,1.77-32.31,4.87-.25-4.73-2.63-8.91-6.87-10.4-9.84-3.44-31.25,9.71-38.11,11a9.59,9.59,0,0,1-9.59-4.27L389,148.63l20.31-8.55C419.3,145.18,431.12,153.94,437.53,161.82Z"/><path class="cls-2" d="M431.33,155.37,403.08,160a9.72,9.72,0,0,0-4.05-3.4l-2.85-7.29L412.86,142A108.23,108.23,0,0,1,431.33,155.37Z"/><polygon class="cls-15" points="341.3 171.64 348.35 185.25 348.24 185.31 336.19 186.31 328.38 186.97 333.42 180.96 341.19 171.7 341.3 171.64"/><polygon class="cls-16" points="449.62 132.8 442.29 136.59 381 168.34 361.24 178.58 348.35 185.25 345.49 179.73 341.3 171.64 435.24 122.99 442.58 119.19 446.77 127.28 449.62 132.8"/><polygon class="cls-2" points="333.42 180.96 336.19 186.31 328.38 186.97 333.42 180.96"/><rect class="cls-17" x="448.05" y="113.64" width="16.52" height="14.13" transform="translate(-4.39 223.38) rotate(-27.38)"/><rect class="cls-2" x="437.84" y="117.73" width="16.52" height="16.52" transform="translate(-7.97 219.27) rotate(-27.38)"/><polygon class="cls-18" points="442.29 136.59 381 168.34 361.24 178.58 348.35 185.25 345.49 179.73 357.86 173.32 369.37 167.36 439.43 131.07 439.43 131.07 442.29 136.59"/><rect class="cls-19" x="454.75" y="120.52" width="11.5" height="5.62" transform="translate(-5.13 225.6) rotate(-27.38)"/><rect class="cls-20" x="440.07" y="126.9" width="16.52" height="6.81" transform="translate(-9.7 220.78) rotate(-27.38)"/><path class="cls-2" d="M381,168.34l-19.76,10.24-3.38-5.25-2.94-4.58c4-1.26,9.27-1.55,14.45-1.39C373.61,167.49,377.76,167.92,381,168.34Z"/><path class="cls-14" d="M500,242.62V346.54l-31-44.15h0l-3.39-4.83-2.8-4L458,286.76h0l-37.84-53.91s-5.62.17-17-6c-9.12-4.9-18.74-15.41-24.31-21.73-1.4-1.59-2.54-2.91-3.36-3.82a26.57,26.57,0,0,0-1.91-1.85c-1.82-1.62-4.22-3.48-6.74-5.47l-1.55-1.23c-1.58-1.25-3.17-2.55-4.67-3.88h0c-.49-.42-1-.85-1.42-1.29a36.53,36.53,0,0,1-4.56-4.92c-.13-.17-.25-.34-.36-.5a14.75,14.75,0,0,1-2.52-5.7c-.61-3.2.35-6.07,3.17-7.74.25-.14.51-.28.79-.41l.12-.05a12,12,0,0,1,3.17-.88h0c.38-.06.79-.1,1.21-.13a8.16,8.16,0,0,1,2.28.18l.59.14.88.27a18.84,18.84,0,0,1,2.4,1l.83.44.62.35c1.51.88,3.07,1.93,4.65,3.06.83.59,1.67,1.21,2.52,1.84l.63.47,2.52,1.87.85.63c1.19.86,2.37,1.69,3.53,2.44l.6.39a32.52,32.52,0,0,0,3,1.71c.33.17.66.32,1,.46l.07,0,.34.14a15.42,15.42,0,0,0,1.61.56l.45.11.46.1a4.71,4.71,0,0,0,.52.09l.24,0,.41,0h0l.52,0a6.45,6.45,0,0,0,2.51-.48l2.24,2.47,4.16,4.62,6.89,7.64,4.38.46h0l4.92.52h0l1.88.2h0l11.85,1.25,22.07,2.34Z"/><path class="cls-21" d="M353.94,179.62c-2.17-5.68,2.05-7.24,5-6.64s6,4.17,6,4.17l-6.45,7.59S355.05,182.52,353.94,179.62Z"/><path class="cls-13" d="M500,330.72v15.82l-31-44.15h0l-3.39-4.83-2.8-4L458,286.76h0l-37.84-53.91s-5.62.17-17-6c-9.12-4.9-18.74-15.41-24.31-21.73-2.26-4.05,4-5,7.49.95,4.22,7.15,18,15.58,23.89,18.39a41.6,41.6,0,0,0,13,3.32l13.48,18.08h0l22.19,29.75h0l7.86,10.53h0l3.13,4.19Z"/><path class="cls-21" d="M363.16,151.37c.13.39-5.11,3.71-9.07,5.31-1.76.71-3,.52-3.43-.23a12.09,12.09,0,0,1,2.69-3.22,49.68,49.68,0,0,1,8-5.43C362.09,149.27,363.08,151.14,363.16,151.37Z"/><path class="cls-13" d="M396.54,185.68c-.42.12-.85.23-1.3.32s-.76.13-1.15.18c-12.12,1.34-24.61-12.26-28-13.93-2.65-1.31-5-3.86-3-4.65,9.67,2.59,22.78,19.08,31.2,15.6a16.85,16.85,0,0,0,10.91-16.51,13.86,13.86,0,0,0-1.3-5.26,2.78,2.78,0,0,1,3,2C408.92,168.6,406.59,182.62,396.54,185.68Z"/></g></svg>