<svg width="284" height="244" viewBox="0 0 284 244" fill="none" xmlns="http://www.w3.org/2000/svg">
<g clip-path="url(#clip0_155_310)">
<path d="M280.499 149.834L280.767 181.507L259.845 151.086L258.279 148.811L256.826 146.713L254.852 143.832L259.133 142.135L259.689 141.913L261.96 141.01L263.007 140.591L263.647 140.339L263.747 140.3C263.747 140.3 272.451 145.228 280.499 149.834Z" fill="#EE6B0E"/>
<path d="M279.23 -6.02301e-05L0 2.36511L2.04484 243.776L281.275 241.411L279.23 -6.02301e-05Z" fill="#01BFBF"/>
<path d="M280.794 184.689L280.807 186.176C273.82 188.167 268.055 191.929 262.461 196.168C256.867 200.406 251.223 204.558 244.687 207.747C238.085 210.898 231.083 213.373 223.823 215.124C209.059 218.778 193.8 219.41 178.693 221.339C171.155 222.306 163.633 223.658 156.527 226.085C149.747 228.424 143.509 231.803 138.114 236.057C135.483 238.128 133.007 240.343 130.703 242.687L128.469 242.706C132.074 238.889 136.137 235.413 140.59 232.337C152.674 224.152 167.381 221.13 182.273 219.459C197.818 217.705 213.404 216.747 228.374 212.381C235.686 210.298 242.647 207.381 249.071 203.707C255.429 200.008 260.778 195.231 266.786 191.162C270.958 188.28 275.707 186.086 280.794 184.689Z" fill="#EE6B0E"/>
<path d="M280.968 205.253L280.982 206.827C280.291 207.098 279.613 207.389 278.939 207.689C272.277 210.708 266.459 214.953 261.897 220.124C257.334 225.296 254.139 231.268 252.536 237.618C252.197 238.954 251.929 240.301 251.732 241.662L250.101 241.675C251.42 231.978 256.261 222.884 263.928 215.701C268.742 211.267 274.538 207.713 280.968 205.253Z" fill="#EE6B0E"/>
<path d="M224.574 241.892L222.553 241.909C222.428 241.755 222.304 241.607 222.175 241.463C217.364 235.975 209.616 233.167 201.742 233.21C193.677 233.249 186.319 236.194 180.585 241.038C180.108 241.442 179.637 241.852 179.183 242.276L176.921 242.295C179.072 240.139 181.511 238.213 184.189 236.555C187.552 234.536 191.343 233.113 195.343 232.367C199.343 231.622 203.472 231.568 207.492 232.21C210.948 232.748 214.242 233.882 217.177 235.545C220.112 237.209 222.628 239.367 224.574 241.892Z" fill="#EE6B0E"/>
<path d="M124.684 228.431C115.476 232.222 106.926 237.11 99.2838 242.953L96.7037 242.975C99.7256 240.602 102.887 238.366 106.175 236.274C109.508 234.156 112.979 232.205 116.569 230.431C120.146 228.672 123.881 227.245 127.542 225.64C131.104 224.079 134.633 222.113 136.388 218.887C138.098 215.739 137.63 211.938 134.001 210.022C130.685 208.269 126.357 208.267 122.598 208.342C117.97 208.455 113.368 209.003 108.873 209.974C90.6204 213.813 74.7977 222.996 57.5524 229.067C41.1144 234.851 22.8989 237.806 5.26201 235.236C4.14364 235.075 3.04558 234.893 1.96781 234.69L1.95505 233.183C6.37551 234.034 10.8776 234.534 15.4052 234.677C34.7568 235.286 52.9957 229.81 70.1469 222.519C86.7083 215.488 103.667 207.266 122.586 206.889C129.058 206.762 138.699 207.617 139.051 214.871C139.403 222.125 131.157 225.783 124.684 228.431Z" fill="#EE6B0E"/>
<path d="M33.6931 202.012C28.9165 205.138 22.7516 205.904 16.9187 205.65C11.7474 205.422 6.63308 204.619 1.70169 203.263L1.68872 201.732C2.11984 201.859 2.55088 201.976 2.98746 202.088C13.1129 204.711 28.2088 206.645 35.6671 198.349C39.2746 194.34 38.8344 189.187 35.8558 185.016C32.787 180.745 27.6202 178.031 22.613 175.698C15.7161 172.506 8.63416 169.622 1.395 167.056L1.38184 165.501C5.72327 167.043 10.0208 168.673 14.269 170.419C19.969 172.785 25.8979 175.149 30.9525 178.462C35.496 181.436 39.2729 185.567 39.9076 190.612C40.4712 195.165 37.8255 199.311 33.6931 202.012Z" fill="#EE6B0E"/>
<path d="M164.796 0.969235C164.65 6.26572 162.905 11.4407 159.735 15.9807C151.377 28.1905 135.444 36.2057 119.259 37.6513C110.62 38.4198 102.242 37.0132 94.2376 34.237C86.0035 31.3806 78.2745 27.506 69.8649 25.0326C51.5787 19.6491 32.0153 23.7115 13.3235 20.5526C8.72754 19.8143 4.28078 18.5054 0.121136 16.6663L0.107477 15.0537C7.00516 18.3753 15.0474 19.6688 22.8539 20.1725C31.9344 20.7571 41.0508 20.2887 50.1406 20.6511C58.8847 20.9187 67.5014 22.5213 75.5925 25.3848C83.4355 28.2155 90.8218 31.8613 98.8783 34.1832C106.727 36.486 115.133 37.0067 123.292 35.6954C138.908 33.1488 154.175 24.2557 160.556 11.3818C162.185 8.09313 163.04 4.55819 163.07 0.983851L164.796 0.969235Z" fill="#EE6B0E"/>
<path d="M103.728 1.48654C99.5178 6.41477 93.8757 10.2943 87.3757 12.7308C77.3984 16.3981 66.295 15.6858 55.8661 14.171C45.4373 12.6563 34.6961 10.5358 25.38 5.87783C23.2334 4.8265 21.212 3.59507 19.345 2.20129L21.9251 2.17944C25.088 4.22454 28.5382 5.91505 32.1938 7.21075C41.4327 10.6622 51.7296 12.4243 61.6854 13.4747C71.3617 14.4936 81.4176 14.1767 90.1393 9.97922C94.5611 7.82693 98.4548 4.94787 101.601 1.50456L103.728 1.48654Z" fill="#EE6B0E"/>
<path d="M279.827 70.4631L279.841 72.1675C271.455 67.5902 262.413 63.9774 252.942 61.42C245.967 59.5477 238.611 58.7408 231.745 56.5875C225.82 54.7062 220.091 51.5196 217.484 46.3703C214.974 41.4278 215.836 35.7614 218.18 30.913C220.683 25.73 225.016 21.6808 229.27 17.5308C233.374 13.5221 237.649 9.13055 238.619 3.66605C238.816 2.5666 238.872 1.45205 238.786 0.342573L240.434 0.328618C240.534 1.56846 240.474 2.81449 240.253 4.04332C239.185 9.84666 234.584 14.5597 230.197 18.8219C225.809 23.084 221.333 27.3614 219.107 32.8849C216.88 38.4083 216.972 44.6508 221.552 49.2427C226.374 54.0883 233.8 55.8699 240.737 57.2356C247.389 58.5409 253.918 59.9728 260.326 62.0914C267.114 64.352 273.643 67.1546 279.827 70.4631Z" fill="#EE6B0E"/>
<path d="M279.616 45.6074L279.628 47.0559C277.631 47.0323 275.637 46.917 273.655 46.7105C266.388 45.9126 259.274 43.3896 254.995 38.0226C250.958 32.9482 251.237 26.8811 255.097 21.7881C259.428 16.102 266.537 12.6907 271.474 7.46303C273.569 5.22895 275.233 2.71661 276.398 0.023947L278.174 0.00890456C277.039 2.77419 275.414 5.3714 273.358 7.70782C268.728 12.9474 261.836 16.2458 257.318 21.5472C255.244 23.979 253.677 26.846 253.641 29.9124C253.704 32.9923 255.007 35.9542 257.326 38.2878C262.183 43.4035 269.861 45.1734 277.236 45.531C278.03 45.5725 278.823 45.5948 279.616 45.6074Z" fill="#EE6B0E"/>
<path d="M261.121 145.406L199.495 45.0981C198.832 44.0284 197.705 43.2306 196.361 42.8799C195.017 42.5292 193.565 42.6542 192.325 43.2274L26.1274 119.835C24.8884 120.411 23.963 121.387 23.554 122.55C23.145 123.714 23.286 124.968 23.9459 126.039L85.5322 226.324C86.195 227.393 87.3221 228.191 88.6663 228.542C90.0105 228.893 91.462 228.768 92.7025 228.194L258.917 151.61C260.159 151.037 261.088 150.062 261.501 148.899C261.914 147.736 261.777 146.48 261.121 145.406Z" fill="#EE6B0E"/>
<path d="M261.298 139.287L197.292 40.1241C196.607 39.0635 195.462 38.2824 194.109 37.9525C192.757 37.6226 191.307 37.7709 190.078 38.3648L25.7145 117.907C24.4861 118.502 23.5798 119.494 23.1949 120.664C22.81 121.834 22.978 123.088 23.6619 124.149L87.6626 223.312C88.3474 224.373 89.4919 225.154 90.8447 225.484C92.1974 225.813 93.6476 225.665 94.8765 225.071L259.239 145.509C260.463 144.915 261.366 143.928 261.752 142.762C262.137 141.596 261.974 140.347 261.298 139.287Z" fill="#C3C0E6"/>
<path d="M260.817 147.852L251.86 151.197L87.9448 212.46C87.3056 212.699 86.6182 212.828 85.9221 212.838C85.226 212.848 84.5348 212.739 83.8881 212.517C83.2414 212.296 82.6519 211.966 82.1533 211.547C81.6547 211.128 81.2569 210.628 80.9825 210.075L29.0518 105.735C28.4966 104.62 28.477 103.359 28.9974 102.229C29.5178 101.099 30.5355 100.193 31.8268 99.7099L204.688 35.1121C205.328 34.8732 206.016 34.7455 206.712 34.7362C207.408 34.727 208.099 34.8364 208.746 35.0583C209.392 35.2802 209.981 35.6101 210.48 36.0293C210.978 36.4484 211.376 36.9486 211.651 37.5012L222.769 59.7971L236.843 88.0748L242.656 99.8072L263.57 141.827C264.127 142.94 264.149 144.199 263.633 145.329C263.117 146.458 262.105 147.366 260.817 147.852Z" fill="#F4FCFF"/>
<path d="M242.656 99.8073L197.001 81.0053C191.596 73.8323 197.541 66.9592 209.639 63.7375C214.727 62.381 219.227 60.9716 222.742 59.7974L236.815 88.075L242.656 99.8073Z" fill="#C3C0E6"/>
<path d="M260.818 147.852L251.86 151.197L234.407 115.049C234.407 115.049 209.516 105.926 201.014 89.8655C192.511 73.8053 216.582 74.3595 217.873 75.0922C218.574 75.4822 228.051 81.9832 236.826 88.075L263.581 141.822C264.137 142.937 264.159 144.198 263.641 145.328C263.122 146.459 262.107 147.367 260.818 147.852Z" fill="#C3C0E6"/>
<g opacity="0.38">
<path d="M100.027 91.5016L59.7289 106.563C59.4569 106.665 59.3311 106.938 59.448 107.173L78.4608 145.375C78.5778 145.61 78.8931 145.718 79.1651 145.616L119.463 130.555C119.735 130.453 119.861 130.18 119.744 129.945L100.731 91.7429C100.614 91.508 100.299 91.3999 100.027 91.5016Z" stroke="#EE6B0E" stroke-miterlimit="10"/>
<path d="M75.031 138.47L116.319 123.041" stroke="#EE6B0E" stroke-miterlimit="10"/>
<path d="M102.652 132.905L92.4249 136.724C92.2943 136.767 92.1501 136.766 92.0205 136.722C91.8909 136.677 91.7854 136.592 91.7247 136.484C91.6738 136.371 91.6744 136.245 91.7262 136.131C91.7781 136.018 91.8774 135.926 92.0044 135.873L102.226 132.054C102.357 132.01 102.503 132.01 102.634 132.055C102.765 132.099 102.871 132.185 102.932 132.294C102.983 132.408 102.982 132.534 102.93 132.647C102.879 132.76 102.779 132.852 102.652 132.905Z" fill="#EE6B0E"/>
<path d="M114.16 128.602L109.227 130.445C109.097 130.488 108.952 130.487 108.823 130.442C108.693 130.398 108.588 130.313 108.527 130.205C108.476 130.091 108.477 129.965 108.528 129.852C108.58 129.739 108.68 129.647 108.807 129.594L113.734 127.751C113.865 127.707 114.011 127.707 114.141 127.751C114.272 127.796 114.379 127.882 114.439 127.991C114.49 128.105 114.49 128.23 114.438 128.344C114.386 128.457 114.287 128.549 114.16 128.602Z" fill="#EE6B0E"/>
<path d="M86.1115 139.086L81.1788 140.929C81.0482 140.972 80.904 140.971 80.7744 140.926C80.6448 140.882 80.5393 140.797 80.4786 140.688C80.4277 140.575 80.4282 140.449 80.4801 140.336C80.532 140.223 80.6313 140.13 80.7583 140.078L85.691 138.235C85.8215 138.192 85.9658 138.193 86.0954 138.237C86.225 138.282 86.3305 138.367 86.3911 138.475C86.442 138.588 86.4415 138.714 86.3897 138.828C86.3378 138.941 86.2385 139.033 86.1115 139.086Z" fill="#EE6B0E"/>
<path d="M99.4684 124.294C100.109 124.262 100.732 124.103 101.291 123.829C103.699 122.674 104.393 120.133 103.816 117.941C103.645 117.303 103.398 116.682 103.079 116.088C102.826 115.538 102.479 115.023 102.05 114.562C101.853 114.354 101.605 114.187 101.324 114.074C101.043 113.96 100.736 113.902 100.425 113.904C100.129 113.921 99.8444 114.013 99.6082 114.169C99.3719 114.324 99.1942 114.537 99.0974 114.78C98.9076 115.315 98.9503 115.892 99.2173 116.401C99.4966 116.972 99.7184 117.563 99.8801 118.168C99.9672 118.558 100.282 121.39 99.2273 120.887C98.9656 120.736 98.7308 120.552 98.5302 120.342C98.2649 120.103 97.9773 119.882 97.6701 119.683C97.0995 119.305 96.4157 119.074 95.6985 119.019C94.8108 118.982 93.9267 119.146 93.1335 119.495C93.2786 119.333 93.4044 119.159 93.5089 118.975C94.2019 117.714 93.7015 116.004 92.9156 114.876C92.5409 114.287 91.9345 113.834 91.2062 113.6C90.4779 113.365 89.6757 113.364 88.945 113.596C88.4248 113.772 87.9683 114.065 87.6228 114.445C87.2774 114.825 87.0557 115.278 86.9807 115.756C86.9408 115.795 86.9129 115.841 86.8997 115.891C86.8864 115.941 86.8882 115.993 86.9049 116.042L86.9393 116.148C86.9242 116.536 86.9997 116.923 87.1612 117.286C87.183 117.345 87.2253 117.398 87.2825 117.436C87.3397 117.474 87.409 117.497 87.4813 117.5C87.9502 118.459 88.7144 119.287 89.6909 119.896C89.8091 119.965 89.9328 120.027 90.0611 120.081C90.1353 120.264 90.215 120.451 90.3004 120.639C88.7253 121.28 87.197 122.177 87.021 123.815C86.9791 124.741 87.1541 125.664 87.5355 126.529C87.9127 127.545 88.4069 128.526 88.784 129.536C89.2201 130.584 89.397 131.699 89.3033 132.811C89.2933 132.863 89.2985 132.917 89.3184 132.967C89.3383 133.018 89.3723 133.063 89.4174 133.099C89.4708 133.149 89.5396 133.185 89.6157 133.202C89.6917 133.219 89.7719 133.217 89.8468 133.196C89.9217 133.175 89.9881 133.136 90.0384 133.084C90.0887 133.031 90.1207 132.968 90.1306 132.9C90.1304 132.876 90.1302 132.852 90.13 132.828C90.2119 131.422 89.9389 130.019 89.33 128.716L90.2998 128.485C90.3567 128.48 90.4108 128.462 90.4558 128.431C90.5072 128.413 90.5501 128.38 90.5778 128.338L90.6055 128.304C91.197 129.455 91.6651 130.65 92.0041 131.875C92.0238 131.952 92.0713 132.021 92.1398 132.072C92.3984 132.273 92.9056 132.152 92.8412 131.805C92.8437 131.796 92.8437 131.786 92.841 131.776C92.3305 129.932 91.5457 128.153 90.5063 126.485C90.2516 126.081 89.4776 126.363 89.738 126.776C89.9475 127.107 90.1403 127.449 90.3052 127.795C90.2611 127.786 90.215 127.786 90.1711 127.796L89.1957 128.026C89.1395 128.03 89.0857 128.048 89.0398 128.076C88.9485 127.855 88.8517 127.633 88.7605 127.417C88.1111 125.916 87.1107 123.858 88.5678 122.474C89.1602 121.966 89.8656 121.568 90.6411 121.302C90.9141 121.74 91.3285 122.099 91.8339 122.335C92.0708 122.446 92.3387 122.497 92.6078 122.484C92.8768 122.47 93.1365 122.393 93.358 122.26C93.5726 122.112 93.7258 121.907 93.7944 121.678C93.863 121.448 93.8432 121.205 93.7381 120.986C93.6465 120.722 93.5104 120.472 93.3909 120.217C93.3909 120.217 93.3909 120.217 93.3907 120.193C94.0749 119.874 94.8454 119.721 95.6209 119.749C96.2726 119.802 96.889 120.028 97.3857 120.395C97.8408 120.715 98.1963 121.152 98.6791 121.437C98.9411 121.6 99.2572 121.685 99.5803 121.681C99.752 122.162 99.9294 122.672 100.107 123.168C100.136 123.234 100.188 123.29 100.255 123.329C100.322 123.368 100.402 123.388 100.483 123.387L100.16 123.482C99.8332 123.562 99.4942 123.598 99.1553 123.587C98.8318 123.546 98.5016 123.577 98.1954 123.677C97.4721 124.002 97.9312 124.79 98.1474 125.261C98.7518 126.571 99.6459 127.765 100.78 128.778C100.803 128.802 100.831 128.822 100.864 128.835C100.925 128.868 100.995 128.888 101.066 128.892C101.138 128.897 101.21 128.886 101.277 128.861C101.343 128.837 101.401 128.798 101.446 128.75C101.492 128.702 101.523 128.644 101.538 128.583C101.545 128.537 101.54 128.489 101.522 128.445C101.504 128.401 101.474 128.361 101.435 128.328C100.397 127.402 99.5682 126.317 98.9896 125.128C98.9138 124.975 98.8454 124.814 98.7845 124.647C98.7221 124.53 98.6688 124.41 98.625 124.286C98.9061 124.276 99.1877 124.278 99.4684 124.294ZM91.2928 120.433C91.2223 120.39 91.1379 120.369 91.0521 120.372L91.0518 120.338C91.1913 120.347 91.3314 120.345 91.4707 120.335L91.2928 120.433ZM92.9335 121.607C92.8951 121.647 92.848 121.68 92.7947 121.704L92.6778 121.739L92.5661 121.74C92.3615 121.736 92.1644 121.673 92.006 121.561C91.8172 121.44 91.652 121.293 91.5165 121.126C91.5661 121.115 91.6132 121.097 91.6556 121.072C91.9724 120.886 92.3003 120.694 92.6451 120.518C92.7474 120.734 92.8442 120.946 92.9298 121.167C92.946 121.203 92.9593 121.24 92.9699 121.278C92.976 121.334 92.9765 121.391 92.9713 121.447C92.9766 121.502 92.9635 121.557 92.9335 121.607ZM92.9052 118.265C92.8457 118.523 92.7225 118.766 92.544 118.978C92.3655 119.191 92.136 119.367 91.8713 119.496C91.611 119.598 91.3245 119.64 91.0402 119.617C90.7558 119.594 90.4836 119.507 90.2505 119.365C88.9758 118.566 88.0856 117.39 87.7484 116.059C87.7678 115.631 87.9453 115.218 88.2548 114.883C88.5643 114.547 88.9897 114.306 89.4686 114.194C89.9475 114.082 90.455 114.105 90.9167 114.261C91.3784 114.416 91.7702 114.695 92.0347 115.057C92.4174 115.515 92.6914 116.035 92.8407 116.585C92.9901 117.136 93.0121 117.707 92.9052 118.265ZM100.315 121.356C100.607 121.024 100.775 120.623 100.797 120.207C100.952 119.019 100.767 117.817 100.259 116.706C100.031 116.225 99.6632 115.639 99.8595 115.082C100.056 114.525 100.67 114.53 101.136 114.811C101.647 115.212 102.035 115.716 102.266 116.279C102.58 116.843 102.822 117.435 102.99 118.045C103.492 119.972 102.937 122.357 100.8 123.259C100.852 123.206 100.886 123.143 100.901 123.075C100.915 123.007 100.908 122.937 100.881 122.872L100.315 121.356Z" fill="#EE6B0E"/>
<path d="M80.988 123.011C80.0779 123.043 79.1794 123.202 78.3279 123.483C77.943 123.613 77.5272 123.658 77.1176 123.615C76.708 123.572 76.3172 123.443 75.9801 123.237C75.6919 123.001 75.3502 122.818 74.9764 122.701C74.6026 122.584 74.2047 122.534 73.8074 122.556C73.1797 122.646 72.5792 122.845 72.0419 123.14C71.8258 122.82 71.5294 122.546 71.1745 122.337C70.8196 122.129 70.4151 121.992 69.9906 121.936C69.5661 121.881 69.1324 121.908 68.7212 122.016C68.3099 122.123 67.9315 122.309 67.6137 122.56C67.2198 122.877 67.7385 123.447 68.1379 123.125C68.3833 122.917 68.6853 122.765 69.016 122.685C69.3466 122.604 69.6953 122.596 70.0298 122.663C70.3643 122.729 70.6739 122.868 70.9299 123.065C71.1858 123.262 71.38 123.512 71.4945 123.792C71.5208 123.842 71.5599 123.887 71.6088 123.922C71.6577 123.957 71.7152 123.982 71.777 123.996C71.8388 124.009 71.9034 124.01 71.9659 123.999C72.0284 123.988 72.0872 123.965 72.138 123.931C72.7302 123.552 73.4316 123.32 74.1652 123.262C74.9694 123.256 75.4608 123.903 76.15 124.173C76.8444 124.412 77.6162 124.426 78.3229 124.212L71.1972 127.599C70.7244 127.821 71.054 128.489 71.5268 128.263L81.1167 123.706C81.4505 123.548 81.4461 123.032 80.988 123.011Z" fill="#EE6B0E"/>
<path d="M106.444 107.142C102.694 108.38 98.9189 109.557 95.1194 110.671C95.6062 110.327 96.0623 109.952 96.4838 109.548C97.3703 108.706 97.9697 107.604 99.1881 107.053C99.7986 106.841 100.437 106.694 101.089 106.617C101.376 106.584 101.65 106.493 101.889 106.351C102.127 106.208 102.323 106.019 102.462 105.799C102.725 105.314 102.62 104.769 103.008 104.346C103.18 104.144 103.406 103.982 103.667 103.873C103.928 103.764 104.215 103.712 104.505 103.72C105.063 103.744 105.147 103.024 104.61 103C104.076 102.975 103.545 103.089 103.087 103.329C102.628 103.569 102.264 103.923 102.041 104.345C101.937 104.56 101.868 104.786 101.835 105.017C101.836 105.279 101.72 105.531 101.511 105.72C101.039 106.043 100.268 106.001 99.7109 106.131C99.0593 106.282 98.4534 106.554 97.9361 106.929C97.4425 107.324 97.0073 107.77 96.6404 108.258C95.8572 109.178 94.9079 109.983 93.829 110.643C93.1327 111.064 92.3868 111.42 91.604 111.705L89.7319 112.228C89.2861 112.352 89.4928 113.017 89.9556 112.921C90.6057 112.782 91.2427 112.601 91.8611 112.379C96.8755 110.955 101.852 109.431 106.79 107.805C107.275 107.642 106.939 106.973 106.444 107.142Z" fill="#EE6B0E"/>
<path d="M79.943 111.731C79.4129 111.177 78.7056 110.771 77.9093 110.563C77.113 110.355 76.2629 110.355 75.4651 110.562C75.3745 110.577 75.2918 110.617 75.2291 110.676C75.1663 110.735 75.1267 110.809 75.116 110.888C74.5262 111.135 74.0246 111.515 73.6646 111.989C73.3047 112.462 73.1 113.011 73.0723 113.576C73.0642 114.231 73.316 114.868 73.7857 115.381C74.2745 115.896 74.9684 116.234 75.7317 116.33C77.2639 116.553 79.2888 116.261 80.1439 115.018C80.4821 114.511 80.6431 113.931 80.6074 113.347C80.5718 112.764 80.3409 112.203 79.943 111.731ZM79.6513 114.216C79.2141 115.359 77.7871 115.68 76.519 115.647C75.904 115.666 75.2984 115.516 74.7896 115.218C74.3405 114.904 74.0422 114.458 73.9524 113.964C73.7187 112.745 74.7543 111.703 76.0413 111.339C76.0918 111.329 76.1388 111.309 76.1784 111.28C76.218 111.251 76.249 111.215 76.2689 111.173C76.7333 111.12 77.205 111.15 77.6553 111.259C78.1056 111.369 78.5251 111.558 78.8881 111.813C79.2675 112.104 79.5414 112.483 79.6767 112.906C79.8121 113.329 79.8032 113.777 79.6511 114.196L79.6513 114.216Z" fill="#EE6B0E"/>
<path d="M79.9143 107.048C79.8088 107.012 79.6911 107.014 79.5868 107.052C79.4825 107.091 79.4001 107.164 79.3576 107.255C79.1558 107.831 78.9485 108.408 78.7467 108.984C78.7085 109.075 78.7093 109.174 78.7491 109.264C78.7959 109.35 78.8781 109.418 78.9797 109.455C79.0315 109.474 79.0871 109.483 79.1432 109.483C79.1993 109.483 79.2549 109.473 79.3067 109.454C79.3585 109.436 79.4055 109.408 79.4449 109.373C79.4843 109.339 79.5154 109.298 79.5364 109.253L80.1473 107.519C80.1856 107.43 80.1848 107.332 80.145 107.244C80.1001 107.155 80.0175 107.085 79.9143 107.048Z" fill="#EE6B0E"/>
<path d="M74.6293 109.478L73.7558 108.553C73.6863 108.478 73.5851 108.43 73.4745 108.42C73.3639 108.41 73.253 108.438 73.1661 108.498C73.0792 108.558 73.0235 108.646 73.0112 108.741C72.999 108.837 73.0311 108.933 73.1006 109.008L73.9741 109.932C74.0428 109.999 74.1376 110.042 74.2406 110.053C74.3436 110.064 74.4477 110.041 74.5331 109.99C74.6233 109.933 74.6838 109.847 74.7018 109.751C74.7198 109.655 74.6938 109.557 74.6293 109.478Z" fill="#EE6B0E"/>
<path d="M145.573 74.4749L105.275 89.5366C105.003 89.6383 104.878 89.9112 104.994 90.1461L124.007 128.348C124.124 128.583 124.439 128.691 124.711 128.59L165.009 113.528C165.281 113.426 165.407 113.153 165.29 112.918L146.277 74.7162C146.16 74.4812 145.845 74.3732 145.573 74.4749Z" stroke="#EE6B0E" stroke-miterlimit="10"/>
<path d="M120.572 121.45L161.86 106.016" stroke="#EE6B0E" stroke-miterlimit="10"/>
<path d="M148.193 115.88L137.971 119.699C137.84 119.744 137.695 119.743 137.564 119.699C137.433 119.654 137.326 119.569 137.266 119.459C137.216 119.346 137.218 119.221 137.27 119.109C137.321 118.997 137.42 118.906 137.545 118.853L147.767 115.029C147.898 114.985 148.044 114.985 148.175 115.03C148.306 115.074 148.412 115.16 148.473 115.269C148.524 115.383 148.523 115.509 148.471 115.622C148.419 115.735 148.32 115.827 148.193 115.88Z" fill="#EE6B0E"/>
<path d="M159.701 111.587L154.768 113.43C154.638 113.472 154.493 113.472 154.364 113.427C154.234 113.383 154.129 113.298 154.068 113.189C154.039 113.134 154.024 113.074 154.022 113.013C154.021 112.952 154.034 112.892 154.06 112.835C154.086 112.779 154.125 112.727 154.174 112.684C154.224 112.641 154.283 112.606 154.348 112.583L159.28 110.736C159.412 110.693 159.556 110.695 159.686 110.74C159.816 110.785 159.921 110.871 159.981 110.981C160.03 111.093 160.029 111.218 159.977 111.33C159.925 111.443 159.827 111.534 159.701 111.587Z" fill="#EE6B0E"/>
<path d="M131.652 122.061L126.725 123.904C126.594 123.948 126.449 123.948 126.318 123.903C126.187 123.859 126.08 123.773 126.02 123.663C125.97 123.551 125.972 123.426 126.023 123.314C126.075 123.202 126.174 123.11 126.299 123.057L131.232 121.215C131.296 121.19 131.365 121.176 131.436 121.175C131.506 121.173 131.576 121.184 131.641 121.206C131.707 121.229 131.766 121.262 131.816 121.305C131.866 121.348 131.905 121.399 131.932 121.455C131.981 121.568 131.98 121.692 131.928 121.805C131.877 121.917 131.778 122.008 131.652 122.061Z" fill="#EE6B0E"/>
<path d="M157.034 95.419C156.355 95.4045 155.689 95.5904 155.147 95.946C154.605 96.3016 154.219 96.8058 154.052 97.3757C153.91 97.9379 153.907 98.519 154.042 99.0818C154.176 99.6445 154.446 100.176 154.833 100.643C154.555 100.709 154.295 100.823 154.068 100.979C153.842 101.134 153.655 101.328 153.517 101.547C153.349 101.87 153.258 102.219 153.249 102.572C153.241 102.926 153.315 103.277 153.468 103.605C153.043 103.53 152.601 103.562 152.196 103.696C151.79 103.83 151.437 104.061 151.176 104.362C150.916 104.663 150.76 105.021 150.726 105.395C150.692 105.769 150.782 106.143 150.984 106.475C149.935 106.46 148.902 106.701 148.002 107.171C147.556 107.433 147.194 107.788 146.95 108.204L145.124 105.592C144.702 104.868 144.128 104.218 143.432 103.675C142.736 103.244 141.893 103.025 141.036 103.053C140.26 103.06 139.361 103.125 138.655 102.764C137.841 102.337 137.577 101.431 137.587 100.654C137.617 98.9056 138.595 97.0721 137.32 95.475C136.747 94.8281 135.942 94.3642 135.031 94.1561C134.119 93.948 133.153 94.0074 132.283 94.325C131.429 94.6074 130.682 95.0897 130.126 95.7178C129.57 96.346 129.227 97.0951 129.136 97.8813C129.078 98.6959 129.324 99.5042 129.837 100.188C130.399 100.862 131.181 101.374 132.083 101.661C132.811 101.945 134.1 102.46 133.879 103.341C133.69 104.12 132.481 104.425 131.842 104.855C130.243 105.926 130.849 107.683 131.319 109.099L132.918 113.914C132.136 113.789 131.328 113.924 130.654 114.29C130.473 113.463 130.187 112.656 129.802 111.883C129.444 111.177 128.932 110.094 127.865 110.104C126.715 110.113 126.35 111.28 126.24 112.049C126.2 112.352 126.182 112.657 126.186 112.962C125.658 112.396 124.896 112.031 124.061 111.942C123.621 111.9 123.177 111.962 122.776 112.123C122.374 112.284 122.031 112.537 121.784 112.854C121.313 111.903 120.425 111.152 119.315 110.765C118.682 110.552 117.981 110.54 117.338 110.731C116.694 110.922 116.149 111.304 115.799 111.809C115.546 112.221 116.324 112.48 116.578 112.073C117.068 111.272 118.397 111.188 119.26 111.524C120.442 111.996 121.071 113.116 121.516 114.112C121.681 114.502 122.372 114.312 122.313 113.917C122.182 112.986 123.373 112.503 124.274 112.703C125.499 112.982 126.15 114.005 126.577 114.953C126.776 115.395 127.5 115.099 127.345 114.666C127.086 113.931 126.988 113.161 127.058 112.394C127.094 112.013 127.244 110.577 128.033 110.831C128.313 110.964 128.531 111.177 128.647 111.434C128.874 111.803 129.073 112.183 129.243 112.574C129.592 113.358 129.832 114.177 129.956 115.011C129.998 115.257 130.407 115.447 130.634 115.242C130.912 114.981 131.264 114.787 131.655 114.68C132.046 114.572 132.462 114.555 132.863 114.629C132.921 114.641 132.981 114.64 133.038 114.627C133.095 114.614 133.148 114.589 133.192 114.554C133.232 114.684 133.278 114.814 133.318 114.944L133.817 116.436C133.966 116.884 134.734 116.593 134.585 116.15L132.676 110.406C132.396 109.558 132.076 108.716 131.845 107.858C131.672 107.218 131.526 106.456 131.94 105.858C132.354 105.261 133.401 104.982 134.039 104.469C134.379 104.233 134.617 103.905 134.715 103.538C134.814 103.171 134.766 102.787 134.581 102.446C134.119 101.777 133.399 101.27 132.547 101.015C131.656 100.665 130.865 100.3 130.389 99.5172C130.013 98.8352 129.924 98.06 130.139 97.3262C130.354 96.5923 130.86 95.9461 131.567 95.4995C132.989 94.5218 135.216 94.416 136.472 95.656C137.875 97.0347 136.841 98.9508 136.799 100.554C136.744 101.357 137.007 102.152 137.544 102.808C137.794 103.073 138.105 103.291 138.457 103.449C138.809 103.606 139.194 103.699 139.59 103.722C140.456 103.802 141.388 103.649 142.228 103.898C143.163 104.175 143.744 104.928 144.242 105.619C145.078 106.79 145.898 107.966 146.718 109.147C146.713 109.234 146.714 109.321 146.72 109.408C146.728 109.491 146.771 109.568 146.842 109.624C146.913 109.679 147.006 109.71 147.102 109.709L148.233 111.312C148.302 111.387 148.403 111.435 148.514 111.445C148.625 111.456 148.736 111.428 148.822 111.367C148.909 111.307 148.965 111.219 148.977 111.124C148.99 111.028 148.957 110.932 148.888 110.857L147.582 108.98C147.644 108.693 147.781 108.422 147.983 108.187C148.184 107.952 148.444 107.759 148.743 107.623C149.683 107.162 150.839 107.161 151.889 107.143C152.302 107.139 152.309 106.657 152.079 106.489C151.806 106.263 151.642 105.955 151.619 105.628C151.597 105.301 151.718 104.979 151.958 104.724C152.198 104.47 152.54 104.304 152.915 104.257C153.29 104.211 153.672 104.288 153.983 104.474C154.058 104.517 154.146 104.538 154.236 104.535C154.326 104.532 154.412 104.504 154.482 104.455C154.553 104.407 154.603 104.341 154.628 104.266C154.652 104.191 154.648 104.112 154.616 104.039C154.337 103.419 153.962 102.659 154.247 101.99C154.286 101.871 154.353 101.759 154.444 101.663C154.536 101.567 154.649 101.488 154.777 101.431C154.905 101.374 155.045 101.34 155.188 101.333C155.332 101.325 155.475 101.342 155.61 101.385C155.997 101.56 156.328 101.089 156.091 100.821C155.313 99.9531 154.6 98.8196 154.881 97.6825C155.086 96.8503 155.956 96.0317 157.001 96.1001C157.47 96.1541 157.576 95.4531 157.034 95.419Z" fill="#EE6B0E"/>
<path d="M123.961 100.156C122.246 99.5186 120.373 99.9353 118.674 100.384C117.769 100.653 116.835 100.842 115.886 100.949C115.427 100.987 114.965 100.97 114.512 100.898C114.027 100.793 113.553 100.655 113.095 100.485C112.121 100.169 110.907 99.9913 110.064 100.67C109.676 100.987 110.194 101.552 110.588 101.235C111.537 100.469 112.923 101.263 113.942 101.516C115.024 101.748 116.158 101.738 117.236 101.488C118.965 101.14 120.857 100.361 122.663 100.587C119.406 101.989 116.096 103.286 112.732 104.476C112.63 104.514 112.549 104.586 112.507 104.675C112.465 104.765 112.467 104.865 112.51 104.954C112.554 105.042 112.637 105.112 112.74 105.148C112.844 105.184 112.959 105.182 113.062 105.144C116.774 103.825 120.42 102.386 124 100.827C124.074 100.795 124.135 100.745 124.176 100.683C124.218 100.622 124.238 100.551 124.234 100.48C124.229 100.409 124.201 100.34 124.153 100.283C124.104 100.225 124.038 100.181 123.961 100.156Z" fill="#EE6B0E"/>
<path d="M152.635 87.721C151.421 88.1127 150.023 88.6412 149.631 89.8227C149.512 90.3724 149.547 90.9385 149.735 91.4732C149.788 91.6867 149.779 91.9084 149.71 92.1186C149.641 92.3288 149.513 92.5213 149.337 92.6789C148.651 93.38 147.739 93.8996 147.753 94.9135C147.758 95.4542 147.997 96.0123 147.532 96.4653C147.028 96.8706 146.468 97.2207 145.865 97.5079L141.241 100.155C140.835 100.39 141.247 100.913 141.665 100.769C146.339 99.1939 150.942 97.481 155.472 95.6303C155.956 95.4282 155.627 94.7647 155.137 94.962C151.838 96.313 148.498 97.5886 145.116 98.789L145.778 98.4116C146.395 98.0587 147.034 97.7201 147.629 97.3433C147.889 97.1981 148.112 97.0078 148.283 96.7845C148.454 96.5611 148.57 96.3095 148.623 96.0456C148.691 95.5622 148.435 95.0139 148.61 94.5296C148.814 94.1559 149.109 93.8242 149.473 93.5566C149.861 93.2628 150.18 92.9077 150.414 92.5104C150.611 92.0201 150.62 91.4884 150.44 90.9941C150.335 90.7242 150.315 90.4351 150.38 90.1558C150.445 89.8764 150.594 89.6166 150.812 89.4023C151.408 88.9172 152.135 88.5676 152.925 88.3849C153.455 88.2259 153.12 87.5624 152.635 87.721Z" fill="#EE6B0E"/>
<path d="M191.276 57.3941L150.978 72.4558C150.706 72.5575 150.581 72.8304 150.698 73.0653L169.71 111.267C169.827 111.502 170.143 111.61 170.415 111.509L210.712 96.4471C210.984 96.3454 211.11 96.0725 210.993 95.8376L191.98 57.6354C191.863 57.4004 191.548 57.2924 191.276 57.3941Z" stroke="#EE6B0E" stroke-miterlimit="10"/>
<path d="M166.28 104.361L207.568 88.9312" stroke="#EE6B0E" stroke-miterlimit="10"/>
<path d="M193.901 98.7958L183.68 102.615C183.549 102.659 183.403 102.659 183.272 102.614C183.141 102.57 183.035 102.484 182.974 102.375C182.923 102.261 182.924 102.135 182.975 102.022C183.027 101.909 183.127 101.817 183.254 101.764L193.492 97.9446C193.623 97.9003 193.769 97.9005 193.9 97.945C194.031 97.9896 194.137 98.0753 194.198 98.1849C194.248 98.3 194.245 98.4273 194.19 98.5409C194.135 98.6544 194.031 98.7456 193.901 98.7958Z" fill="#EE6B0E"/>
<path d="M191.182 59.3115C189.917 59.6505 189.245 60.7233 188.907 61.745C188.711 62.3358 188.593 62.9403 188.364 63.5169C188.129 64.0968 187.702 64.6044 187.136 64.9758C186.542 65.3219 186.006 65.7376 185.544 66.211C185.129 66.6921 184.848 67.2499 184.725 67.8403C184.468 69.1027 185.047 70.1601 185.615 71.2852C185.937 71.8168 186.103 72.409 186.098 73.0097C186.05 73.3036 185.929 73.5855 185.746 73.8367C185.562 74.0879 185.319 74.3028 185.033 74.4673C183.922 75.2155 182.417 75.5131 181.481 76.4868C179.621 78.434 180.56 81.1107 181.799 83.0654C182.615 84.3526 183.63 85.5849 184.106 87.0101C184.507 88.238 184.553 89.7007 183.579 90.7519C183.241 91.1121 183.838 91.6237 184.175 91.2587C186.024 89.2537 185.057 86.5917 183.773 84.589C182.488 82.5864 180.474 80.2181 181.548 77.7803C182.096 76.5733 183.416 76.1179 184.629 75.5427C185.841 74.9675 186.918 74.1278 186.941 72.8674C186.963 71.6069 186.045 70.6055 185.65 69.4983C185.452 68.941 185.436 68.3472 185.601 67.7814C185.767 67.2156 186.108 66.6994 186.589 66.289C187.143 65.8015 187.906 65.4812 188.415 64.936C188.892 64.3846 189.225 63.751 189.393 63.0784C189.719 61.9989 189.974 60.4081 191.417 60.0193C191.526 59.9921 191.617 59.9287 191.672 59.8432C191.727 59.7576 191.74 59.6568 191.709 59.5629C191.678 59.469 191.605 59.3898 191.506 59.3427C191.407 59.2955 191.291 59.2843 191.182 59.3115Z" fill="#EE6B0E"/>
<path d="M192.648 72.1334C192.599 71.651 191.756 71.6581 191.81 72.1405C191.925 73.0805 191.674 74.0274 191.096 74.8313C190.481 75.6542 189.578 76.2861 188.52 76.6348C187.467 77.03 186.342 77.3486 185.504 78.051C184.755 78.712 184.291 79.5752 184.19 80.4958C184.089 81.4164 184.357 82.3381 184.95 83.1064C185.26 83.4804 185.988 83.0976 185.673 82.7333C185.131 82.0563 184.906 81.2269 185.042 80.411C185.178 79.5951 185.665 78.8529 186.406 78.3331C187.35 77.7167 188.532 77.4701 189.573 77.0025C190.585 76.5486 191.419 75.8442 191.966 74.9793C192.514 74.1145 192.752 73.1286 192.648 72.1479L192.648 72.1334Z" fill="#EE6B0E"/>
<path d="M178.035 83.6575C177.503 82.9136 176.905 82.2185 176.341 81.4652C175.8 80.7385 175.441 79.9221 175.286 79.068C175.13 78.214 175.182 77.3408 175.438 76.5042C175.717 75.6578 176.209 74.875 176.88 74.2122C177.55 73.5494 178.382 73.0231 179.315 72.6713C179.42 72.6424 179.508 72.58 179.561 72.497C179.615 72.4139 179.629 72.3165 179.602 72.2246C179.571 72.1329 179.5 72.0555 179.403 72.0093C179.307 71.963 179.193 71.9518 179.086 71.9779C177.301 72.6087 175.855 73.799 175.039 75.3103C174.224 76.8215 174.098 78.5421 174.687 80.1272C175.31 81.8023 176.734 83.0842 177.674 84.6118C178.687 86.2643 179.058 88.1563 178.731 90.0078C178.403 91.8593 177.396 93.5721 175.857 94.8927C175.474 95.2243 176.07 95.7311 176.453 95.3995C177.838 94.1932 178.827 92.6902 179.317 91.0454C179.808 89.4006 179.783 87.6736 179.244 86.0422C178.966 85.2041 178.559 84.4021 178.035 83.6575Z" fill="#EE6B0E"/>
<path d="M205.409 94.4927L200.476 96.3356C200.346 96.3784 200.202 96.3775 200.072 96.3331C199.942 96.2886 199.837 96.2037 199.776 96.0952C199.725 95.9819 199.726 95.856 199.778 95.7427C199.83 95.6295 199.929 95.5372 200.056 95.4845L204.989 93.6416C205.119 93.5987 205.263 93.5996 205.393 93.6441C205.523 93.6886 205.628 93.7734 205.689 93.8819C205.74 93.9953 205.739 94.1212 205.687 94.2344C205.635 94.3477 205.536 94.4399 205.409 94.4927Z" fill="#EE6B0E"/>
<path d="M177.355 104.976L172.422 106.819C172.292 106.862 172.148 106.861 172.018 106.817C171.888 106.772 171.783 106.688 171.722 106.579C171.671 106.466 171.672 106.34 171.724 106.227C171.776 106.113 171.875 106.021 172.002 105.968L176.935 104.125C177.065 104.082 177.209 104.083 177.339 104.128C177.469 104.172 177.574 104.257 177.635 104.366C177.686 104.479 177.685 104.605 177.633 104.718C177.581 104.831 177.482 104.924 177.355 104.976Z" fill="#EE6B0E"/>
<path d="M122.222 136.09L81.924 151.152C81.6519 151.254 81.5262 151.527 81.6431 151.762L100.656 189.964C100.773 190.199 101.088 190.307 101.36 190.205L141.658 175.143C141.93 175.042 142.056 174.769 141.939 174.534L122.926 136.332C122.809 136.097 122.494 135.989 122.222 136.09Z" stroke="#EE6B0E" stroke-miterlimit="10"/>
<path d="M97.2295 183.062L138.512 167.633" stroke="#EE6B0E" stroke-miterlimit="10"/>
<path d="M124.845 177.493L114.623 181.316C114.492 181.361 114.346 181.361 114.215 181.316C114.085 181.272 113.978 181.186 113.917 181.076C113.867 180.962 113.868 180.836 113.921 180.723C113.974 180.609 114.075 180.517 114.203 180.465L124.424 176.646C124.488 176.621 124.558 176.608 124.628 176.606C124.698 176.605 124.768 176.616 124.834 176.638C124.899 176.661 124.958 176.694 125.008 176.737C125.058 176.78 125.098 176.83 125.124 176.887C125.153 176.942 125.169 177.002 125.17 177.063C125.172 177.124 125.159 177.184 125.133 177.24C125.107 177.297 125.068 177.348 125.018 177.392C124.969 177.435 124.91 177.469 124.845 177.493Z" fill="#EE6B0E"/>
<path d="M136.353 173.194L131.426 175.037C131.294 175.081 131.149 175.081 131.018 175.037C130.887 174.992 130.781 174.906 130.72 174.797C130.669 174.683 130.669 174.558 130.721 174.444C130.773 174.331 130.873 174.239 130.999 174.186L135.932 172.343C136.063 172.3 136.207 172.301 136.337 172.346C136.466 172.39 136.572 172.475 136.632 172.583C136.683 172.697 136.683 172.823 136.631 172.936C136.579 173.049 136.48 173.141 136.353 173.194Z" fill="#EE6B0E"/>
<path d="M108.31 183.678L103.377 185.521C103.246 185.565 103.1 185.565 102.969 185.52C102.838 185.476 102.732 185.39 102.671 185.281C102.62 185.167 102.621 185.041 102.673 184.928C102.725 184.815 102.824 184.723 102.951 184.67L107.884 182.827C108.015 182.783 108.16 182.783 108.291 182.827C108.422 182.872 108.529 182.958 108.589 183.067C108.64 183.181 108.64 183.307 108.588 183.42C108.536 183.533 108.437 183.625 108.31 183.678Z" fill="#EE6B0E"/>
<path d="M167.763 119.07L127.465 134.132C127.193 134.234 127.067 134.507 127.184 134.742L146.197 172.944C146.314 173.179 146.629 173.287 146.901 173.185L187.199 158.123C187.471 158.022 187.597 157.749 187.48 157.514L168.467 119.312C168.35 119.077 168.035 118.969 167.763 119.07Z" stroke="#EE6B0E" stroke-miterlimit="10"/>
<path d="M142.771 166.042L184.053 150.608" stroke="#EE6B0E" stroke-miterlimit="10"/>
<path d="M170.386 160.472L160.164 164.291C160.1 164.316 160.031 164.33 159.96 164.331C159.89 164.333 159.82 164.322 159.755 164.3C159.69 164.277 159.63 164.244 159.58 164.201C159.53 164.158 159.491 164.107 159.464 164.051C159.435 163.996 159.42 163.936 159.418 163.875C159.417 163.814 159.43 163.754 159.456 163.697C159.482 163.641 159.521 163.589 159.57 163.546C159.62 163.503 159.679 163.468 159.744 163.445L169.965 159.621C170.096 159.578 170.24 159.579 170.37 159.624C170.499 159.668 170.605 159.753 170.666 159.862C170.717 159.975 170.716 160.101 170.664 160.214C170.612 160.327 170.513 160.42 170.386 160.472Z" fill="#EE6B0E"/>
<path d="M181.894 156.169L176.967 158.012C176.835 158.056 176.69 158.056 176.559 158.012C176.428 157.967 176.322 157.881 176.261 157.772C176.21 157.658 176.21 157.532 176.262 157.419C176.314 157.306 176.414 157.214 176.541 157.161L181.473 155.318C181.605 155.274 181.751 155.275 181.882 155.32C182.013 155.366 182.119 155.453 182.179 155.563C182.228 155.677 182.226 155.802 182.173 155.914C182.12 156.026 182.02 156.117 181.894 156.169Z" fill="#EE6B0E"/>
<path d="M153.862 166.653L148.929 168.496C148.798 168.54 148.653 168.54 148.522 168.495C148.391 168.451 148.284 168.365 148.224 168.255C148.175 168.142 148.177 168.017 148.23 167.905C148.283 167.792 148.382 167.701 148.509 167.649L153.436 165.802C153.568 165.758 153.714 165.759 153.845 165.804C153.976 165.85 154.082 165.936 154.142 166.047C154.191 166.16 154.19 166.284 154.138 166.397C154.086 166.509 153.988 166.6 153.862 166.653Z" fill="#EE6B0E"/>
<path d="M213.471 101.988L173.173 117.05C172.901 117.151 172.776 117.424 172.893 117.659L191.905 155.861C192.022 156.096 192.338 156.204 192.61 156.103L232.907 141.041C233.179 140.939 233.305 140.666 233.188 140.431L214.175 102.229C214.059 101.994 213.743 101.886 213.471 101.988Z" stroke="#EE6B0E" stroke-miterlimit="10"/>
<path d="M188.479 148.953L229.761 133.523" stroke="#EE6B0E" stroke-miterlimit="10"/>
<path d="M216.094 143.383L205.872 147.207C205.742 147.25 205.598 147.249 205.468 147.205C205.338 147.16 205.233 147.075 205.172 146.967C205.121 146.853 205.122 146.728 205.174 146.614C205.226 146.501 205.325 146.409 205.452 146.356L215.651 142.537C215.716 142.512 215.785 142.499 215.855 142.497C215.925 142.496 215.995 142.507 216.061 142.529C216.126 142.551 216.185 142.585 216.235 142.628C216.285 142.67 216.325 142.721 216.351 142.777C216.381 142.832 216.398 142.89 216.4 142.95C216.403 143.01 216.393 143.07 216.369 143.126C216.345 143.183 216.308 143.234 216.261 143.279C216.214 143.323 216.157 143.358 216.094 143.383Z" fill="#EE6B0E"/>
<path d="M227.602 139.085L222.675 140.928C222.543 140.972 222.398 140.972 222.267 140.927C222.136 140.883 222.03 140.797 221.969 140.687C221.918 140.574 221.918 140.448 221.97 140.335C222.022 140.222 222.122 140.129 222.249 140.077L227.181 138.234C227.312 138.191 227.456 138.192 227.586 138.236C227.715 138.281 227.821 138.366 227.881 138.474C227.932 138.587 227.932 138.713 227.88 138.827C227.828 138.94 227.729 139.032 227.602 139.085Z" fill="#EE6B0E"/>
<path d="M199.559 149.569L194.626 151.412C194.495 151.456 194.349 151.456 194.218 151.411C194.088 151.367 193.981 151.281 193.92 151.171C193.87 151.057 193.871 150.931 193.924 150.818C193.977 150.704 194.078 150.612 194.206 150.56L199.133 148.718C199.264 148.673 199.41 148.673 199.54 148.718C199.671 148.763 199.778 148.848 199.839 148.958C199.889 149.071 199.889 149.197 199.837 149.31C199.785 149.424 199.686 149.516 199.559 149.569Z" fill="#EE6B0E"/>
</g>
<path d="M79.9932 74.9816C88.6378 67.3789 88.5344 55.172 79.7622 47.7168C70.99 40.2616 56.8709 40.3812 48.2262 47.9839C39.5816 55.5867 39.685 67.7935 48.4572 75.2487C57.2294 82.7039 71.3485 82.5843 79.9932 74.9816Z" fill="#EE6B0E"/>
<path d="M90.993 58.6632C91.0017 59.6876 90.5393 60.6741 89.7076 61.4056C88.8759 62.137 87.743 62.5536 86.558 62.5636L73.2108 62.6767C72.0259 62.6867 70.8861 62.2894 70.0421 61.5721C69.1982 60.8549 68.7191 59.8764 68.7105 58.852C68.7018 57.8275 69.1642 56.8411 69.9959 56.1096C70.8276 55.3781 71.9605 54.9616 73.1454 54.9515L86.4926 54.8385C87.6775 54.8284 88.8173 55.2258 89.6613 55.943C90.5053 56.6603 90.9843 57.6388 90.993 58.6632Z" fill="#F6F6F6"/>
<path d="M84.5929 58.7174C84.6039 60.0146 84.4652 61.3098 84.1788 62.5838L73.2218 62.6766C72.0369 62.6866 70.8971 62.2893 70.0531 61.572C69.2091 60.8547 68.7301 59.8763 68.7214 58.8518C68.7128 57.8274 69.1751 56.841 70.0069 56.1095C70.8386 55.378 71.9715 54.9615 73.1564 54.9514L84.1134 54.8586C84.4214 56.1276 84.582 57.4202 84.5929 58.7174Z" fill="#ACACAC"/>
<path d="M75.4275 72.4281C84.0721 64.8254 83.9687 52.6185 75.1966 45.1633C66.4244 37.7081 52.3052 37.8277 43.6606 45.4305C35.0159 53.0332 35.1193 65.24 43.8915 72.6952C52.6637 80.1504 66.7828 80.0308 75.4275 72.4281Z" fill="#F6F6F6"/>
<path d="M76.1267 58.7891C76.1521 62.327 74.6618 65.7511 71.9431 68.4013C69.2244 71.0515 65.4698 72.7402 61.4029 73.142C57.336 73.5437 53.2448 72.63 49.9178 70.5771C46.5908 68.5241 44.2636 65.4771 43.3848 62.0235C42.506 58.5699 43.1377 54.9541 45.1583 51.8731C47.1788 48.7921 50.4451 46.464 54.3276 45.3375C58.21 44.211 62.4338 44.3659 66.1848 45.7723C69.9358 47.1787 72.9484 49.7371 74.642 52.9543C75.6057 54.7865 76.1116 56.7746 76.1267 58.7891Z" fill="#A9532E"/>
<path d="M74.6419 52.9543C73.6432 52.4123 72.4473 52.321 71.1008 52.26C68.2402 52.1346 69.3562 49.3777 66.5648 50.1739C63.7735 50.9701 66.2449 53.2862 62.6451 53.5871C59.0454 53.888 59.7109 57.9576 56.3053 57.4457C53.2688 56.9886 44.5556 64.1748 52.642 72.0011C50.2058 71.0432 48.0757 69.5888 46.4337 67.7623C44.7918 65.9358 43.687 63.7916 43.2137 61.513C42.7404 59.2345 42.9128 56.8893 43.7161 54.6781C44.5194 52.467 45.9297 50.4556 47.8264 48.816C49.7231 47.1764 52.0498 45.9575 54.6074 45.2633C57.1651 44.5692 59.8776 44.4205 62.513 44.8301C65.1484 45.2396 67.6283 46.1952 69.7405 47.615C71.8528 49.0349 73.5347 50.8768 74.6422 52.9833L74.6419 52.9543Z" fill="#6B411A"/>
<path d="M215.233 76.0512C215.233 76.0512 211.305 84.3414 217.797 87.2463C224.289 90.1512 234.147 86.2869 234.147 86.2869L234.054 75.2689L223.015 74.2953L215.233 76.0512Z" fill="#A89278"/>
<path d="M230.939 101.225C230.727 101.226 225.533 99.2328 224.979 99.1168L221.486 90.3005L220.955 88.9529C222.809 88.3339 224.389 87.2245 225.471 85.7835C226.554 84.3425 227.082 82.6437 226.981 80.9299C226.927 80.0507 226.673 79.1898 226.233 78.3964C226.094 78.1517 225.936 77.9158 225.758 77.6907C225.188 76.978 224.4 76.4164 223.482 76.0682C223.359 76.021 223.23 75.9786 223.102 75.9411C217.592 74.3267 205.689 80.7771 201.864 81.4324C201.635 81.4701 201.404 81.493 201.172 81.501C200.249 81.5315 199.333 81.3556 198.513 80.9903C197.693 80.6251 196.996 80.0829 196.491 79.4161C196.154 78.9408 195.973 78.3948 195.968 77.8368C195.964 77.2787 196.135 76.7297 196.464 76.2488C196.851 75.6555 197.355 75.1251 197.953 74.6814C199.331 73.6722 200.82 72.7815 202.398 72.0218C208.516 68.928 217.638 65.8715 222.107 66.0268C223.861 66.0844 226.392 66.8548 229.184 68.0673C229.834 68.3466 230.49 68.6501 231.163 68.9728C234.87 70.7748 238.346 72.9109 241.533 75.3456C242.784 76.2966 243.95 77.3278 245.021 78.4304C245.523 78.9488 245.984 79.4949 246.404 80.0653C250.738 86.0112 251.269 95.3644 253.666 98.0964C256.063 100.828 231.163 101.223 230.939 101.225Z" fill="#F5BBA0"/>
<path d="M245.005 78.4258C240.371 78.6968 231.564 79.3943 226.981 80.93C226.822 78.6474 225.476 76.6405 223.102 75.9411C217.592 74.3268 205.689 80.7772 201.864 81.4324C200.837 81.5848 199.782 81.4752 198.828 81.1171C197.873 80.759 197.061 80.1679 196.491 79.4162L217.849 72.2869L229.156 68.0627C234.756 70.4779 241.393 74.6515 245.005 78.4258Z" fill="#A89278"/>
<path d="M241.516 75.3409L225.758 77.71C225.188 76.9974 224.401 76.4358 223.483 76.0876L221.861 72.5813L231.146 68.973C234.853 70.7735 238.329 72.908 241.516 75.3409Z" fill="#01BFBF"/>
<path d="M191.304 83.6224L195.297 90.1602L195.236 90.1897L188.511 90.7295L184.152 91.0851L186.942 88.1595L191.243 83.6518L191.304 83.6224Z" fill="#F9D591"/>
<path d="M251.638 64.357L247.56 66.2216L213.462 81.8412L202.468 86.8787L195.297 90.1601L193.677 87.5085L191.304 83.6223L243.567 59.6886L247.651 57.8191L250.024 61.7053L251.638 64.357Z" fill="#F18C35"/>
<path d="M186.942 88.1595L188.511 90.7295L184.152 91.0851L186.942 88.1595Z" fill="#01BFBF"/>
<path d="M257.567 53.606L249.406 57.3436L253.086 63.3709L261.247 59.6333L257.567 53.606Z" fill="#EC4E75"/>
<path d="M251.572 55.6932L243.411 59.4308L247.714 66.4775L255.875 62.74L251.572 55.6932Z" fill="#01BFBF"/>
<path d="M247.56 66.2217L213.462 81.8412L202.468 86.8788L195.297 90.1602L193.677 87.5085L200.559 84.3551L206.963 81.4231L245.94 63.57L247.56 66.2217Z" fill="#ED5A29"/>
<path d="M259.784 57.2361L254.103 59.8379L255.567 62.2352L261.248 59.6333L259.784 57.2361Z" fill="#C13373"/>
<path d="M254.102 59.8375L245.941 63.5751L247.715 66.4799L255.876 62.7424L254.102 59.8375Z" fill="#782911"/>
<path d="M213.462 81.8412L202.468 86.8788L200.559 84.36L198.899 82.1625C201.127 81.5353 204.069 81.3703 206.963 81.4231C209.331 81.4658 211.65 81.6538 213.462 81.8412Z" fill="#01BFBF"/>
<path d="M280.222 117.142L280.647 167.317L263.154 146.147L261.242 143.831L259.661 141.913L256.947 138.653L235.595 112.803C235.595 112.803 232.457 112.912 226.077 109.986C220.963 107.664 215.548 102.635 212.412 99.6096C211.623 98.8485 210.981 98.2166 210.519 97.7811C210.179 97.471 209.82 97.1759 209.445 96.8969C208.422 96.1233 207.074 95.2366 205.659 94.2877L204.788 93.7012C203.901 93.1052 203.007 92.485 202.164 91.8499C201.889 91.6495 201.602 91.4443 201.366 91.2338C200.429 90.5191 199.569 89.7311 198.799 88.8799C198.726 88.7984 198.658 88.7169 198.596 88.6402C197.899 87.8258 197.411 86.8916 197.166 85.9C196.812 84.3579 197.336 82.9676 198.904 82.148C199.043 82.0792 199.188 82.0104 199.344 81.9463L199.411 81.9216C199.974 81.7056 200.568 81.5576 201.177 81.4817C201.389 81.4509 201.618 81.4297 201.853 81.4132C202.279 81.3867 202.708 81.4124 203.127 81.4893L203.457 81.5541L203.949 81.6803C204.409 81.8105 204.859 81.968 205.294 82.1518L205.759 82.3603L206.107 82.5264C206.953 82.9441 207.829 83.4437 208.716 83.9818C209.182 84.2628 209.653 84.5581 210.131 84.8583L210.485 85.0822L211.899 85.9732L212.377 86.2734C213.045 86.683 213.707 87.0781 214.358 87.4347L214.695 87.6202C215.238 87.9163 215.8 88.1871 216.377 88.4316C216.562 88.5122 216.747 88.583 216.937 88.649L216.977 88.6487L217.167 88.7147C217.462 88.8166 217.763 88.9043 218.068 88.9774L218.32 89.0284L218.577 89.0745C218.673 89.0929 218.771 89.1066 218.868 89.1155L219.002 89.1144L219.231 89.1124L219.522 89.11C220.002 89.1103 220.478 89.0274 220.921 88.8664L222.182 90.0483L224.525 92.2593L228.404 95.9155L230.852 96.1168L233.601 96.3446L234.652 96.4323L241.275 96.9798L253.61 98.0052L280.222 117.142Z" fill="#F5BBA0"/>
<path d="M198.396 87.4154C197.161 84.6833 199.511 83.9101 201.161 84.1858C202.811 84.4616 204.529 86.1708 204.529 86.1708L200.958 89.866C200.958 89.866 199.028 88.8104 198.396 87.4154Z" fill="#F8D5C8"/>
<path d="M280.583 159.679L280.647 167.317L263.154 146.147L261.241 143.831L259.661 141.913L256.947 138.653L235.595 112.803C235.595 112.803 232.457 112.912 226.076 109.986C220.963 107.664 215.548 102.635 212.411 99.6096C211.133 97.6649 214.625 97.1766 216.598 100.033C218.984 103.465 226.714 107.47 230.015 108.799C232.326 109.65 234.783 110.17 237.289 110.34L244.891 119.006L257.404 133.265L261.837 138.312L263.602 140.32L280.583 159.679Z" fill="#A89278"/>
<path d="M203.429 73.732C203.504 73.9197 200.591 75.5475 198.386 76.3387C197.406 76.6899 196.713 76.604 196.469 76.2439C196.857 75.6506 197.361 75.1202 197.959 74.6765C199.337 73.6673 200.826 72.7766 202.404 72.0169C202.823 72.7232 203.384 73.6214 203.429 73.732Z" fill="#F8D5C8"/>
<path d="M222.211 90.1398C221.977 90.1997 221.737 90.2549 221.486 90.3005C221.235 90.346 221.062 90.3668 220.845 90.3928C214.082 91.0971 207.051 84.5898 205.151 83.7995C203.666 83.1796 202.343 81.9595 203.457 81.5686C208.867 82.7734 216.256 90.6731 220.944 88.9531C222.797 88.334 224.378 87.2246 225.46 85.7836C226.542 84.3426 227.071 82.6438 226.97 80.93C226.916 80.0508 226.662 79.1899 226.222 78.3965C226.588 78.356 226.959 78.4295 227.267 78.6039C227.576 78.7782 227.802 79.042 227.906 79.348C229.055 81.8346 227.811 88.6148 222.211 90.1398Z" fill="#A89278"/>
</g>
<defs>
<clipPath id="clip0_155_310">
<rect width="279.24" height="241.42" fill="white" transform="translate(0 2.36511) rotate(-0.485303)"/>
</clipPath>
</defs>
</svg>
