<?xml version="1.0" standalone="no"?>
<!DOCTYPE svg PUBLIC "-//W3C//DTD SVG 20010904//EN"
 "http://www.w3.org/TR/2001/REC-SVG-20010904/DTD/svg10.dtd">
<svg version="1.0" xmlns="http://www.w3.org/2000/svg"
 width="500.000000pt" height="500.000000pt" viewBox="0 0 500.000000 500.000000"
 preserveAspectRatio="xMidYMid meet">

<g transform="translate(0.000000,500.000000) scale(0.100000,-0.100000)"
fill="#000000" stroke="none">
<path d="M0 3035 c0 -1221 4 -1965 9 -1965 6 0 12 4 15 9 12 19 156 80 156 66
0 -2 -18 -14 -40 -26 -22 -13 -40 -25 -40 -29 0 -3 -22 -14 -50 -25 l-50 -19
0 -523 0 -523 2500 0 2500 0 0 2500 0 2500 -2500 0 -2500 0 0 -1965z m1931
1669 c-12 -61 -7 -67 15 -21 25 52 38 35 30 -39 -11 -110 -36 -142 -70 -92
-13 18 -15 39 -10 108 7 94 20 134 35 108 5 -9 5 -37 0 -64z m629 -124 c0 -5
-5 -10 -11 -10 -5 0 -7 5 -4 10 3 6 8 10 11 10 2 0 4 -4 4 -10z m367 -642 c-7
-4 -13 -3 -15 2 -2 5 -10 6 -18 3 -8 -3 -22 -2 -31 2 -17 7 -16 8 2 14 24 9
80 -10 62 -21z m-292 12 c-2 -3 14 -6 36 -7 21 0 39 2 39 6 0 9 116 8 126 -1
4 -5 4 -11 0 -15 -4 -4 -11 -2 -15 6 -7 10 -9 9 -14 -3 -5 -13 5 -15 67 -14
40 0 83 -5 95 -11 12 -7 31 -9 41 -6 12 4 20 2 20 -6 0 -8 4 -8 13 -1 9 8 17
8 27 0 13 -8 12 -9 -2 -5 -9 3 -18 3 -20 -1 -2 -4 -83 -5 -181 -2 -98 3 -181
2 -185 -1 -12 -12 -141 -26 -135 -16 4 6 1 7 -8 1 -8 -4 -18 -9 -24 -10 -5 -1
-25 -4 -44 -7 -64 -11 -150 -40 -144 -50 3 -6 1 -7 -5 -3 -23 14 -234 -108
-330 -191 -20 -18 -63 -52 -94 -75 -32 -24 -57 -49 -58 -55 0 -7 -4 -13 -9
-13 -11 0 -91 -79 -91 -90 0 -5 -6 -11 -12 -13 -9 -4 -9 -6 -2 -6 7 -1 26 15
43 34 17 19 33 35 37 35 3 0 -25 -35 -63 -77 -38 -43 -82 -96 -98 -117 -29
-38 -30 -39 -37 -15 -7 20 -7 19 -4 -6 3 -21 -3 -39 -20 -60 -13 -16 -24 -24
-24 -17 0 6 -5 12 -11 12 -6 0 -9 -6 -6 -14 3 -7 0 -19 -6 -26 -9 -10 -9 -11
3 -6 8 4 6 0 -4 -8 -11 -9 -24 -16 -29 -16 -5 0 -7 -7 -3 -15 3 -8 1 -15 -4
-15 -15 0 -51 -63 -45 -78 3 -7 1 -11 -4 -8 -5 3 -15 -2 -22 -11 -8 -9 -9 -14
-2 -10 8 5 9 0 5 -15 -3 -14 -7 -17 -10 -9 -3 8 -11 3 -23 -15 -10 -15 -16
-32 -13 -36 10 -16 -7 -67 -20 -62 -13 5 -17 -10 -18 -79 -1 -20 -4 -24 -13
-17 -9 7 -15 -1 -25 -33 -8 -23 -13 -46 -12 -50 2 -5 -2 -25 -8 -45 -17 -60
-40 -194 -34 -203 3 -5 0 -18 -6 -29 -6 -11 -7 -20 -3 -20 4 0 8 -48 8 -107 0
-60 3 -126 7 -148 5 -22 10 -57 13 -78 2 -21 8 -43 12 -50 4 -6 8 -16 9 -22
14 -85 49 -145 75 -129 12 7 11 -10 -1 -22 -14 -14 -2 -44 16 -44 8 0 13 -9
11 -21 -1 -14 4 -23 17 -25 10 -1 25 -12 33 -24 8 -11 38 -46 66 -77 29 -30
52 -60 52 -64 0 -5 11 -16 24 -26 13 -9 21 -11 17 -5 -4 6 7 4 24 -6 16 -9 28
-22 26 -29 -3 -7 1 -10 8 -7 8 3 16 -4 19 -15 6 -23 74 -68 95 -63 8 2 11 -1
7 -7 -3 -7 0 -8 9 -5 10 4 16 1 16 -10 0 -9 6 -13 14 -10 8 3 25 -1 38 -10 13
-9 54 -27 91 -40 75 -27 71 -26 92 -26 8 0 15 -7 15 -15 0 -8 7 -15 15 -15 8
0 15 5 15 11 0 6 6 9 13 6 6 -2 11 -9 10 -15 -1 -5 4 -13 12 -16 8 -3 15 0 15
6 0 16 72 2 82 -17 5 -8 14 -15 21 -15 7 0 6 4 -3 10 -24 15 9 13 40 -3 49
-25 469 -31 605 -9 215 36 411 91 530 150 316 156 501 399 580 762 22 99 35
416 19 480 -3 14 -7 36 -9 50 -3 22 -11 74 -19 120 -2 8 -8 28 -15 43 -6 16
-11 37 -11 47 0 18 -10 47 -32 95 -5 12 -10 27 -12 35 -5 23 -86 190 -93 190
-3 0 -3 -9 0 -20 3 -12 1 -18 -5 -14 -5 3 -7 16 -4 27 3 14 -6 36 -29 67 -35
47 -130 140 -144 140 -4 0 -16 8 -27 18 -27 26 -74 56 -74 48 0 -4 12 -18 28
-32 l27 -26 -29 21 c-16 12 -48 30 -70 41 -23 11 -54 29 -71 39 -16 11 -39 21
-50 23 -10 2 -27 11 -37 21 -19 18 -43 24 -33 7 4 -6 -2 -7 -17 -1 -13 5 -22
14 -20 21 1 6 -2 9 -8 5 -6 -4 -45 5 -88 18 -114 37 -205 52 -232 37 -16 -9
-25 -9 -36 1 -19 16 -229 15 -370 -1 -150 -17 -155 -17 -175 -1 -24 20 -29 95
-8 116 33 33 138 73 229 88 110 18 372 17 406 -1 12 -6 39 -9 60 -6 30 3 34 2
19 -5 -17 -8 -17 -10 -3 -10 9 -1 19 3 23 9 4 6 15 6 31 0 13 -5 30 -9 37 -7
7 1 11 -4 9 -12 -2 -10 4 -12 24 -7 17 5 32 2 43 -7 21 -18 54 -30 46 -17 -3
6 -2 10 3 10 6 0 12 -7 16 -15 3 -8 11 -15 18 -15 9 0 8 3 -2 10 -8 5 -10 10
-4 10 18 0 78 -22 94 -35 8 -7 49 -30 90 -52 122 -64 239 -137 234 -145 -3 -4
1 -8 8 -8 7 0 22 -11 32 -25 10 -13 23 -22 28 -19 4 3 7 0 6 -7 -2 -7 4 -13
12 -14 8 0 15 -5 15 -12 0 -18 45 -74 55 -68 5 3 11 1 14 -4 4 -5 2 -12 -3
-16 -6 -3 5 -20 23 -39 19 -18 37 -43 41 -55 3 -11 12 -21 19 -21 20 0 136
-215 136 -252 0 -8 3 -18 7 -22 4 -4 13 -25 19 -47 10 -32 9 -39 -2 -39 -8 0
-14 -5 -14 -11 0 -6 7 -9 14 -6 16 6 17 5 41 -88 31 -119 37 -162 40 -300 3
-119 0 -155 -20 -245 -43 -192 -84 -330 -97 -330 -5 0 -8 -8 -8 -18 0 -9 -11
-37 -25 -62 -13 -25 -37 -69 -52 -98 -52 -100 -255 -332 -291 -332 -7 0 -10
-4 -7 -10 5 -9 2 -10 -20 -10 -3 0 -19 -16 -36 -35 -17 -19 -35 -32 -40 -29
-5 3 -9 1 -9 -4 0 -5 -12 -14 -27 -21 -16 -7 -39 -20 -53 -29 -14 -9 -32 -16
-40 -17 -8 0 -14 -5 -13 -11 1 -7 -9 -11 -27 -10 -16 1 -27 -1 -25 -4 3 -4
-13 -13 -35 -20 -21 -7 -41 -19 -45 -27 -3 -9 -12 -12 -20 -9 -8 3 -28 0 -43
-6 -15 -6 -31 -12 -37 -13 -70 -16 -142 -38 -154 -48 -12 -10 -13 -9 -7 1 7
12 4 12 -15 1 -13 -7 -27 -12 -31 -11 -5 1 -8 -3 -8 -10 0 -9 -3 -9 -12 0 -7
7 -17 12 -23 12 -5 0 -3 -5 5 -11 11 -8 5 -9 -23 -4 -27 4 -37 3 -32 -4 3 -7
-3 -11 -15 -11 -14 0 -19 4 -15 12 4 7 1 6 -7 -2 -7 -8 -23 -14 -35 -12 -13 2
-23 -1 -23 -6 0 -5 -11 -9 -25 -9 -14 0 -25 4 -25 9 0 5 -7 2 -16 -6 -18 -19
-28 -20 -56 -5 -15 8 -19 8 -14 0 4 -6 3 -11 -3 -11 -5 0 -13 5 -16 10 -4 6
-27 8 -53 5 -26 -3 -74 -7 -107 -10 -47 -3 -53 -2 -26 4 19 5 41 7 50 3 9 -3
13 -2 9 3 -4 4 -58 10 -120 12 -62 1 -119 5 -125 8 -7 2 -13 0 -13 -5 0 -6 -5
-10 -11 -10 -5 0 -7 5 -3 11 4 7 -5 10 -27 9 -19 -1 -38 -1 -44 1 -14 3 -21 4
-90 13 -157 20 -403 95 -426 129 -3 5 -9 8 -13 8 -25 -4 -36 0 -30 11 4 7 3 8
-4 4 -13 -8 -92 32 -92 46 0 4 -4 7 -8 6 -10 -4 -58 29 -87 59 -12 13 -26 23
-32 23 -11 0 -126 120 -150 157 -10 16 -23 34 -30 41 -7 8 -10 19 -6 25 3 7 2
9 -2 5 -9 -9 -56 63 -49 74 3 5 1 8 -3 8 -11 0 -49 81 -45 94 2 5 -4 16 -12
25 -18 20 -51 120 -42 128 3 3 1 12 -5 19 -12 14 -23 88 -23 157 0 26 -2 47
-6 47 -3 0 -5 12 -4 28 1 15 2 27 3 27 1 0 4 43 6 95 2 80 12 165 29 265 2 11
4 30 5 43 1 15 5 21 13 16 6 -4 8 -3 4 4 -11 18 34 169 75 252 13 25 23 47 24
50 3 22 40 88 47 84 4 -3 8 2 8 10 0 23 61 136 73 136 6 0 8 3 4 6 -8 9 40 83
79 122 19 18 40 45 48 60 8 15 31 42 50 60 20 19 36 38 36 43 0 6 3 8 8 6 4
-3 13 1 20 9 7 8 10 14 6 14 -4 0 35 41 85 90 51 50 97 90 103 90 13 0 68 46
62 52 -2 3 3 11 13 19 13 11 15 11 9 1 -7 -11 -4 -11 13 0 12 7 21 16 21 20 0
5 5 8 11 8 6 0 28 13 48 28 46 36 129 75 142 66 6 -3 18 1 27 9 9 8 33 20 52
26 105 33 129 40 165 46 22 3 71 16 109 28 47 15 70 18 73 11 3 -8 13 -8 39 1
38 13 65 15 59 5z m1708 -164 c21 -20 36 -36 32 -36 -14 0 -93 60 -99 75 -8
22 20 6 67 -39z m-1373 -206 c0 -5 -7 -10 -16 -10 -8 0 -12 5 -9 10 3 6 10 10
16 10 5 0 9 -4 9 -10z m58 -228 c2 -7 -8 -16 -21 -21 -14 -6 -28 -18 -31 -29
-4 -10 -19 -25 -34 -33 -15 -7 -38 -24 -51 -36 -29 -28 -43 -29 -65 -4 -12 13
-16 32 -14 62 l3 44 40 -3 c22 -1 65 6 95 17 58 21 71 22 78 3z m1549 -4 c-3
-8 -6 -5 -6 6 -1 11 2 17 5 13 3 -3 4 -12 1 -19z m-1303 -86 c-4 -15 -6 -34
-5 -42 4 -24 -10 -4 -30 40 -18 41 -18 41 4 49 28 11 42 -10 31 -47z m-1036
-159 c3 -34 7 -42 24 -45 12 -2 23 -9 26 -15 2 -9 -10 -13 -42 -13 l-46 0 0
61 c0 52 2 60 18 57 12 -2 18 -15 20 -45z m192 -13 c0 -53 -2 -60 -20 -60 -18
0 -20 7 -20 60 0 53 2 60 20 60 18 0 20 -7 20 -60z m211 50 c31 -17 22 -31
-18 -28 -35 3 -38 1 -38 -22 0 -17 6 -25 20 -27 11 -2 14 0 8 3 -28 12 -13 34
22 34 27 0 35 -4 35 -18 0 -50 -79 -72 -112 -32 -23 29 -23 55 2 80 22 22 51
26 81 10z m176 -10 c3 -11 12 -20 19 -20 8 0 14 9 14 20 0 13 7 20 20 20 18 0
20 -7 20 -60 0 -53 -2 -60 -20 -60 -13 0 -20 7 -20 20 0 11 -7 20 -15 20 -8 0
-15 -9 -15 -20 0 -13 -7 -20 -20 -20 -18 0 -20 7 -20 60 0 48 3 60 16 60 9 0
18 -9 21 -20z m291 2 c2 -7 -5 -16 -17 -19 -17 -4 -21 -13 -21 -44 0 -32 -3
-39 -20 -39 -17 0 -20 7 -20 39 0 25 -5 41 -15 45 -8 3 -15 12 -15 21 0 13 10
15 52 13 31 -2 53 -8 56 -16z m-1688 -242 c0 -5 -4 -10 -10 -10 -5 0 -10 5
-10 10 0 6 5 10 10 10 6 0 10 -4 10 -10z m829 -256 c30 -21 51 -72 51 -123 0
-83 -81 -287 -145 -366 -38 -46 -38 -25 1 39 67 112 107 235 108 338 1 107
-57 128 -162 58 -161 -108 -326 -361 -361 -555 -23 -127 4 -268 61 -326 40
-39 66 -49 132 -49 80 0 159 44 244 135 72 77 110 142 136 236 40 142 159 219
222 145 13 -15 24 -31 24 -37 0 -17 -21 -9 -44 18 -28 32 -64 27 -103 -15 -55
-59 -93 -175 -68 -209 18 -24 35 -8 76 72 50 99 82 97 94 -5 4 -33 10 -60 14
-60 21 0 53 54 69 114 9 37 22 66 27 64 6 -2 9 -39 6 -95 -4 -108 6 -118 43
-40 18 37 23 43 19 22 -12 -64 -31 -95 -56 -95 -18 0 -28 8 -38 31 l-12 31
-20 -26 c-33 -45 -67 -32 -84 33 l-9 35 -24 -35 c-13 -19 -35 -46 -48 -61 -32
-35 -76 -38 -93 -7 -10 20 -14 17 -51 -45 -53 -89 -135 -176 -194 -206 -71
-35 -164 -39 -224 -8 -54 28 -111 101 -128 163 -7 25 -12 82 -12 128 0 192
106 415 281 588 113 113 210 153 268 113z m1245 -335 c30 -36 32 -67 9 -138
-16 -51 -41 -73 -29 -26 25 99 14 165 -27 165 -37 0 -60 -33 -65 -95 -5 -64
19 -122 72 -174 l34 -33 39 26 c21 14 54 28 73 31 32 6 30 3 -24 -26 -32 -18
-60 -39 -63 -46 -3 -6 6 -27 20 -45 40 -52 52 -108 37 -163 -14 -50 -76 -127
-121 -150 -37 -19 -89 -19 -117 1 -56 39 -1 200 107 317 18 20 23 32 16 41 -6
7 -31 41 -57 75 -57 75 -69 129 -43 196 30 80 93 99 139 44z m-219 -129 c23
-22 34 -50 19 -50 -4 0 -17 11 -30 25 -29 32 -55 32 -93 0 -40 -34 -91 -138
-91 -186 0 -73 34 -60 80 31 16 31 36 63 45 70 15 13 20 12 36 -9 12 -15 19
-39 19 -67 0 -52 17 -67 39 -34 9 13 24 33 34 44 16 19 16 16 -2 -20 -38 -78
-76 -85 -101 -16 l-16 43 -34 -48 c-18 -26 -40 -54 -48 -60 -24 -20 -59 -15
-76 9 -23 32 -20 79 8 148 14 33 20 58 15 55 -16 -10 -45 -76 -70 -155 -12
-41 -26 -79 -30 -84 -14 -16 -39 41 -45 102 -7 66 -15 72 -54 45 -23 -15 -24
-16 -12 0 8 9 22 19 33 22 15 5 19 16 19 48 1 66 16 23 23 -64 4 -42 10 -87
15 -100 8 -21 10 -18 21 29 6 29 11 61 12 70 0 9 15 44 32 76 42 76 88 104
171 101 44 -2 62 -8 81 -25z m-482 -52 c2 -7 2 -61 -1 -120 -6 -136 3 -165 28
-84 10 32 23 63 29 69 5 5 3 -8 -4 -29 -8 -22 -14 -53 -15 -70 0 -39 -20 -67
-42 -59 -26 10 -31 40 -30 169 2 104 0 117 -13 106 -18 -15 -20 1 -3 18 16 16
45 15 51 0z m-938 -228 c3 -6 -1 -7 -9 -4 -18 7 -21 14 -7 14 6 0 13 -4 16
-10z m560 -240 c3 -5 -1 -10 -9 -10 -9 0 -16 5 -16 10 0 6 4 10 9 10 6 0 13
-4 16 -10z m120 -60 c42 -21 46 -26 26 -28 -13 -2 -28 1 -34 7 -6 6 -22 11
-36 11 -41 0 -71 11 -71 26 0 8 -6 15 -12 15 -7 1 1 5 17 8 17 4 36 3 45 -3 8
-6 37 -22 65 -36z m85 -50 c0 -5 -7 -7 -15 -4 -8 4 -15 8 -15 10 0 2 7 4 15 4
8 0 15 -4 15 -10z m1599 -33 c1 -5 -3 -5 -9 -2 -5 3 -10 16 -9 28 0 21 1 21 9
2 5 -11 9 -24 9 -28z m-2374 23 c3 -5 -3 -10 -15 -10 -12 0 -18 5 -15 10 3 6
10 10 15 10 5 0 12 -4 15 -10z m881 -36 c19 -15 19 -15 -1 -6 -11 5 -27 12
-35 15 -13 5 -13 6 1 6 8 1 24 -6 35 -15z m-2113 -13 c4 -17 2 -18 -14 -8 -13
8 -15 13 -6 19 7 4 13 8 13 8 1 0 4 -9 7 -19z m3467 -21 c0 -13 -5 -18 -15
-14 -16 7 -19 17 -8 27 12 13 23 7 23 -13z m-1280 0 c8 -5 11 -10 5 -10 -5 0
-17 5 -25 10 -8 5 -10 10 -5 10 6 0 17 -5 25 -10z m-2152 -35 c13 -29 5 -33
-14 -7 -15 20 -18 32 -6 32 5 0 14 -11 20 -25z m3551 -22 c-24 -31 -48 -53
-59 -53 -17 0 -12 9 23 40 35 32 57 40 36 13z m-2454 -11 c-3 -3 -11 0 -18 7
-9 10 -8 11 6 5 10 -3 15 -9 12 -12z m-928 -158 c-3 -3 -12 -4 -19 -1 -8 3 -5
6 6 6 11 1 17 -2 13 -5z m310 -69 c3 -9 3 -19 -1 -22 -7 -7 -36 16 -36 28 0
15 30 10 37 -6z m-938 -60 c-2 -2 -18 -6 -34 -9 -25 -5 -26 -5 -9 3 12 5 25
15 30 22 6 11 8 11 12 0 2 -7 2 -14 1 -16z m1911 -185 c0 -5 -16 -10 -35 -10
-19 0 -35 5 -35 10 0 6 16 10 35 10 19 0 35 -4 35 -10z m1560 -14 c0 -47 -57
-116 -95 -116 -33 0 -31 15 5 42 33 24 39 48 13 49 -10 0 0 9 22 20 48 22 55
23 55 5z m-2580 -86 c0 -5 -2 -10 -4 -10 -3 0 -8 5 -11 10 -3 6 -1 10 4 10 6
0 11 -4 11 -10z m-240 -350 c0 -5 -2 -10 -4 -10 -3 0 -8 5 -11 10 -3 6 -1 10
4 10 6 0 11 -4 11 -10z m58 -48 c5 -16 -21 -15 -36 0 -7 7 -12 18 -12 26 0 12
3 12 22 0 12 -8 24 -20 26 -26z"/>
<path d="M2750 3930 c0 -14 15 -19 29 -11 9 6 7 10 -8 14 -12 3 -21 1 -21 -3z"/>
<path d="M2684 3918 c-5 -8 -2 -9 11 -5 9 4 24 2 31 -4 11 -9 14 -8 14 5 0 19
-45 22 -56 4z"/>
<path d="M1690 3328 c-12 -22 -12 -22 6 -6 10 10 15 20 12 24 -4 3 -12 -5 -18
-18z"/>
<path d="M4150 2709 c0 -5 5 -7 10 -4 6 3 10 8 10 11 0 2 -4 4 -10 4 -5 0 -10
-5 -10 -11z"/>
<path d="M4163 2632 c1 -19 5 -36 9 -38 4 -3 8 -1 8 5 0 5 3 17 7 27 4 11 3
15 -5 11 -6 -4 -13 1 -15 10 -3 10 -4 3 -4 -15z"/>
<path d="M1221 2124 c0 -11 3 -14 6 -6 3 7 2 16 -1 19 -3 4 -6 -2 -5 -13z"/>
<path d="M1251 1964 c0 -11 3 -14 6 -6 3 7 2 16 -1 19 -3 4 -6 -2 -5 -13z"/>
<path d="M1536 1535 c4 -8 11 -15 16 -15 6 0 5 6 -2 15 -7 8 -14 15 -16 15 -2
0 -1 -7 2 -15z"/>
<path d="M2178 1203 c7 -3 16 -2 19 1 4 3 -2 6 -13 5 -11 0 -14 -3 -6 -6z"/>
<path d="M3431 1898 c-48 -65 -101 -174 -101 -210 0 -29 23 -58 46 -58 41 0
133 80 153 133 6 16 11 45 11 64 0 44 -36 123 -56 123 -7 0 -31 -24 -53 -52z"/>
</g>
</svg>
