<svg width="361" height="349" viewBox="0 0 361 349" fill="none" xmlns="http://www.w3.org/2000/svg">
<path d="M360.658 226.856V231.243C360.675 242.997 357.249 254.453 350.874 263.965C348.671 267.25 346.146 270.268 343.345 272.966C333.925 282.04 321.754 287.048 309.147 287.037H288.278C282.397 287.037 277.629 292.2 277.629 298.57V341.473H99.961V298.549C99.9567 292.191 95.198 287.039 89.328 287.037H54.1842C53.6278 287.037 53.0754 287.037 52.5229 287.011C44.9702 286.768 37.5516 284.789 30.7589 281.204C30.1909 280.907 29.6267 280.595 29.0665 280.269C25.7394 278.352 22.6094 276.058 19.729 273.425C18.5541 272.355 17.4245 271.231 16.3403 270.054C14.5835 268.151 12.9507 266.117 11.4537 263.969C6.25737 256.53 2.80492 247.837 1.39265 238.635C0.517608 232.921 0.43107 227.098 1.13587 221.357C1.61056 217.432 2.46202 213.57 3.67643 209.836C11.2216 186.615 31.4717 171.076 54.1998 171.067H95.4401C102.648 171.019 108.628 165.016 109.219 157.236C109.811 149.455 104.819 142.474 97.7161 141.148C96.964 141.012 96.2026 140.944 95.4401 140.946H64.7511C53.1267 140.933 42.3916 134.204 36.5897 123.294C30.7877 112.384 30.8003 98.9495 36.6227 88.0521C42.4451 77.1547 53.1928 70.4495 64.8172 70.4623C71.9644 70.4556 78.8163 67.3728 83.8643 61.8925C88.9123 56.4122 91.7427 48.9838 91.7324 41.2424C91.7324 18.4731 108.768 0.0116413 129.79 8.84074e-06H299.42C316.95 -0.0133132 331.332 15.0311 331.93 34.007C332.568 54.0488 317.5 70.4623 298.981 70.4623H284.663C281.455 70.4605 278.299 71.3437 275.493 73.0286C275.182 73.2197 274.875 73.4177 274.571 73.6228C271.735 75.5662 269.426 78.2898 267.879 81.5156C266.805 83.7477 266.124 86.1771 265.872 88.6794C265.797 89.4239 265.759 90.1723 265.759 90.9213C265.757 96.3525 267.748 101.562 271.294 105.402C274.839 109.243 279.649 111.399 284.663 111.397C285.01 111.397 285.356 111.397 285.698 111.422C286.278 111.448 286.865 111.494 287.426 111.566C290.672 111.956 293.812 113.053 296.658 114.789C301.147 117.518 304.73 121.706 306.902 126.761L306.941 126.85C307.602 128.393 308.123 130.002 308.497 131.654C308.572 131.977 308.638 132.306 308.696 132.64C309.028 134.388 309.195 136.169 309.194 137.954V156.074C309.184 164.246 314.124 171.457 321.348 173.815C331.296 177.039 345.038 183.836 353.375 197.835C355.579 201.546 357.297 205.571 358.48 209.794C359.534 213.559 360.212 217.435 360.503 221.357C360.632 223.127 360.697 224.96 360.697 226.856H360.658Z" fill="#FFFAF1"/>
<path d="M139.696 184.56C139.693 182.035 139.88 179.514 140.256 177.022C131.211 170.519 126.777 158.67 129.092 147.181C131.407 135.693 139.995 126.922 150.72 125.093C161.444 123.264 172.105 128.752 177.567 138.914C179.061 138.743 180.562 138.658 182.065 138.657C199.207 138.652 214.664 149.833 221.227 166.985C227.791 184.138 224.168 203.883 212.048 217.014C199.928 230.145 181.699 234.075 165.861 226.971C150.023 219.866 139.696 203.128 139.696 184.56Z" fill="#D2D6FA"/>
<path d="M309.147 137.974V150.684C303.893 162.888 291.482 169.459 279.364 166.453C278.854 166.326 278.345 166.183 277.847 166.031C266.277 162.342 258.499 150.611 258.968 137.557C259.438 124.503 268.035 113.463 279.835 110.76C281.398 111.204 283.008 111.427 284.624 111.426C284.97 111.426 285.317 111.426 285.659 111.452C298.793 112.048 309.154 123.761 309.143 138L309.147 137.974Z" fill="#D2D6FA"/>
<path d="M209.377 118.624C201.965 130.896 187.169 135.079 175.166 128.296C163.162 121.512 157.866 105.974 162.919 92.37C167.973 78.7655 181.729 71.5303 194.725 75.6412C199.619 62.7449 211.316 54.4208 224.188 54.6741C237.059 54.9274 248.469 63.7062 252.928 76.7866C257.387 89.867 253.981 104.571 244.35 113.823C234.719 123.075 220.835 124.981 209.377 118.624Z" fill="#D2D6FA"/>
<path d="M153.41 256.013C153.413 268.89 146.666 280.651 136.005 286.351C125.345 292.05 112.621 290.699 103.186 282.865C101.894 286.075 99.9085 288.902 97.3971 291.107C95.378 288.526 92.4127 287.037 89.2891 287.036H54.1453C53.589 287.036 53.0365 287.036 52.484 287.011C44.9314 286.768 37.5127 284.789 30.72 281.204C30.152 280.906 29.5879 280.595 29.0276 280.269C25.7005 278.352 22.5705 276.058 19.6902 273.425C18.5152 272.355 17.3857 271.231 16.3015 270.054C14.5446 268.151 12.9119 266.117 11.4149 263.969C6.21851 256.53 2.76607 247.837 1.35379 238.634C12.2726 244.361 21.0113 254.024 26.0708 265.966C38.4353 257.595 54.5031 259.606 64.7783 270.813C65.6897 264.472 69.1302 258.887 74.1857 255.541C79.2411 252.195 85.3994 251.428 91.0243 253.442C92.2608 235.812 105.825 222.188 122.149 222.179C122.9 222.179 123.643 222.208 124.382 222.263C140.735 223.521 153.408 238.256 153.41 256.013Z" fill="#ADB6E0"/>
<path d="M360.658 226.856V231.243C360.674 242.997 357.249 254.453 350.873 263.965C348.67 267.25 346.146 270.268 343.345 272.966C333.925 282.041 321.754 287.048 309.147 287.037H288.258C285.439 287.037 282.736 288.25 280.742 290.409C278.749 292.568 277.629 295.496 277.629 298.549V341.494H99.922V298.549C99.9177 292.191 95.159 287.039 89.289 287.037H78.2163C85.3026 284.059 93.0673 283.536 100.439 285.541C98.5579 269.576 108.705 254.871 123.374 252.305C119.72 237.1 122.588 220.921 131.182 208.264C139.776 195.607 153.18 187.82 167.669 187.068C167.468 185.7 167.361 184.319 167.35 182.934C167.354 180.479 167.663 178.035 168.268 175.669C150.491 168.355 139.621 148.84 141.937 128.396C143.504 114.585 150.917 102.351 161.993 95.2996C172.412 88.6633 184.992 87.3035 196.417 91.5787C208.362 81.6072 224.4 79.553 238.163 86.2315C251.926 92.91 261.187 107.241 262.269 123.533C262.506 123.508 262.747 123.487 262.985 123.474C263.374 123.445 263.786 123.432 264.195 123.432C271.895 123.434 278.826 128.49 281.722 136.218C289.216 130.766 297.9 127.542 306.906 126.867C308.385 130.349 309.149 134.137 309.147 137.971V156.091C309.137 164.263 314.077 171.474 321.301 173.832C331.249 177.055 344.991 183.853 353.328 197.852C355.532 201.563 357.25 205.588 358.433 209.811C359.489 213.57 360.17 217.441 360.464 221.357C360.593 223.127 360.658 224.96 360.658 226.856Z" fill="#FEF6CC"/>
<path d="M153.932 148.636C157.773 158.987 165.866 166.793 175.801 169.731C161.754 160.46 156.161 141.396 162.688 125.042C169.215 108.688 185.869 100.042 201.728 104.773C189.586 96.7323 174.053 98.0317 163.195 107.996C152.337 117.961 148.603 134.343 153.932 148.636Z" fill="#F0F1FC"/>
<path d="M309.147 137.975V141.767C293.468 142.805 280.544 155.467 278.022 172.26C277.797 170.192 277.734 168.107 277.835 166.027C278.734 147.929 291.772 133.296 308.439 131.679C308.906 133.739 309.144 135.853 309.147 137.975Z" fill="#F0F1FC"/>
<rect x="317.904" y="341.494" width="28.8138" height="7.42081" rx="3.7104" fill="#FFE0F0"/>
<rect y="341.494" width="315.115" height="7.42081" rx="3.7104" fill="#FFE0F0"/>
<path d="M350.873 263.965C348.67 267.25 346.146 270.268 343.345 272.966C333.924 282.041 321.753 287.048 309.146 287.037H288.258C282.388 287.037 277.629 292.191 277.629 298.549V341.494H99.9217V298.549C99.9174 292.191 95.1587 287.039 89.2887 287.037H54.1449C53.5886 287.037 53.0361 287.037 52.4836 287.011C44.931 286.769 37.5123 284.789 30.7196 281.205C30.1516 280.907 29.5874 280.595 29.0272 280.269C25.7001 278.352 22.5701 276.058 19.6898 273.426C18.5148 272.355 17.3852 271.231 16.3011 270.054C14.5442 268.151 12.9114 266.118 11.4145 263.969H350.873V263.965Z" fill="#FFF3F3"/>
<path d="M360.658 226.856V231.243C360.674 242.997 357.249 254.453 350.873 263.965H11.399C2.92529 251.782 -0.78112 236.476 1.08116 221.357H360.464C360.593 223.127 360.658 224.96 360.658 226.856Z" fill="#FFFAF1"/>
<path d="M350.873 263.965C348.67 267.25 346.146 270.268 343.345 272.966C340.414 275.789 337.195 278.239 333.751 280.269H29.0272C25.7001 278.352 22.5701 276.058 19.6898 273.425C18.5148 272.355 17.3852 271.231 16.3011 270.054C14.5442 268.151 12.9114 266.118 11.4145 263.969H350.873V263.965Z" fill="#E6E0FF"/>
<path d="M99.9211 315.199H122.953C124.382 315.199 125.541 316.454 125.541 318.001V327.188C125.541 328.735 124.382 329.99 122.953 329.99H99.9211V315.199L99.9211 315.199Z" fill="#E6E0FF"/>
<rect x="140.8" y="291.672" width="33.5136" height="14.7869" rx="6.65" fill="#E6E0FF"/>
<rect x="194.79" y="315.199" width="33.5136" height="14.7869" rx="6.65" fill="#E6E0FF"/>
<rect x="241.337" y="291.672" width="33.5136" height="14.7869" rx="6.65" fill="#E6E0FF"/>
<path d="M220.201 151.253C202.036 163.836 179.89 161.485 170.604 146.045C157.169 147.73 144.906 142.517 139.654 131.502C134.207 120.091 137.833 105.653 147.633 94.5959C145.653 93.6461 143.929 92.1636 142.626 90.2892C138.016 83.6142 139.903 73.4543 146.602 66.2694C145.128 62.6201 144.766 58.7769 145.785 55.1276C148.509 45.3637 160.181 40.3786 172.724 43.1598H172.743C175.782 40.8845 179.167 39.2057 182.742 38.1999C196.748 34.243 210.509 40.9812 213.478 53.2565C214.376 57.0764 214.188 61.1011 212.937 64.8029L213.003 64.8703C215.644 67.4207 217.484 70.8001 218.267 74.5372C219.123 78.7892 218.466 83.1043 216.618 87.057C224.979 88.355 232.219 92.7797 236.565 100.146C245.77 115.733 238.448 138.628 220.201 151.253Z" fill="#6C4A67"/>
<path d="M150.221 55.1106C149.205 58.7599 149.563 62.6031 151.038 66.2524C144.315 73.4541 142.451 83.6141 147.058 90.2722C148.364 92.1429 150.087 93.6246 152.065 94.5789C142.268 105.636 138.654 120.074 144.093 131.485C148.396 140.507 157.411 145.644 167.919 146.276C155.555 146.984 144.552 141.759 139.654 131.485C134.207 120.074 137.833 105.636 147.633 94.5789C145.653 93.6291 143.929 92.1465 142.626 90.2722C138.016 83.5972 139.903 73.4372 146.602 66.2524C145.128 62.6031 144.766 58.7599 145.785 55.1106C148.174 46.5604 157.426 41.6848 168.114 42.4686C159.383 43.1344 152.271 47.7698 150.221 55.1106Z" fill="#775674"/>
<path d="M118.547 162.968C118.551 168.466 121.405 173.495 125.932 175.981C130.459 178.467 135.892 177.988 139.988 174.742L149.116 167.515L149.151 167.485L150.792 166.188L176.268 146.015C180.194 142.915 182.273 137.764 181.709 132.537C181.145 127.31 178.025 122.818 173.545 120.782C173.198 120.622 172.844 120.474 172.494 120.36C168.371 118.885 163.844 119.663 160.344 122.446L124.072 151.165C120.596 153.918 118.543 158.304 118.547 162.968Z" fill="#FCB58A"/>
<path d="M118.547 162.968C118.547 166.063 119.457 169.077 121.146 171.573C121.569 172.201 122.041 172.791 122.554 173.334C119.598 166.957 121.325 159.2 126.64 154.982L162.923 126.247C168.26 122.021 175.64 122.611 180.345 127.642C180.008 126.929 179.617 126.247 179.178 125.602C177.067 122.476 173.895 120.386 170.36 119.792C166.826 119.199 163.219 120.15 160.332 122.438L124.072 151.165C120.596 153.918 118.543 158.304 118.547 162.968Z" fill="#FEA169"/>
<path d="M125.536 175.692C120.121 172.683 117.881 165.706 120.533 160.108C123.185 154.51 129.724 152.411 135.138 155.419L165.443 172.26C170.858 175.269 173.097 182.246 170.446 187.844C167.794 193.442 161.255 195.541 155.84 192.532L125.536 175.692Z" fill="#EF948C"/>
<ellipse rx="14.246" ry="11.956" transform="matrix(0.935983 -0.352046 0.305301 0.952256 167.153 184.026)" fill="#EF948C"/>
<path d="M165.58 192.913C163.695 192.29 161.996 191.135 160.658 189.567L153.321 185.479L130.141 172.601C127.087 170.914 124.986 167.72 124.511 164.043C124.036 160.366 125.247 156.67 127.756 154.14C123.386 155.114 120.06 158.972 119.463 163.761C118.866 168.55 121.127 173.226 125.102 175.42L155.64 192.386C158.845 196.263 164.907 197.649 170.813 195.441C172.517 194.807 174.119 193.887 175.559 192.715C172.336 193.921 168.842 193.99 165.58 192.913Z" fill="#FEA169"/>
<path d="M212.921 64.7988C213.07 62.7063 212.896 60.6016 212.408 58.5706C209.451 46.2994 195.678 39.5612 181.672 43.5181C172.093 46.2362 164.872 53.2398 162.219 61.3307C162.935 51.116 171.094 41.4701 182.73 38.1748C196.736 34.2178 210.497 40.956 213.466 53.2314C214.373 57.0577 214.183 61.0923 212.921 64.7988Z" fill="#2B2137"/>
<path d="M220.201 151.253C207.63 159.955 193.161 161.519 182.361 156.538C192.254 158.855 204.055 156.563 214.524 149.315C232.771 136.673 240.093 113.791 230.865 98.1738C228.004 93.3876 223.863 89.6608 218.995 87.4913C226.328 89.2149 232.612 93.4668 236.537 100.133C245.77 115.734 238.448 138.628 220.201 151.253Z" fill="#2B2137"/>
<path d="M196.499 102.464C182.138 105.86 168.529 98.8648 166.101 86.8381C165.639 84.5365 165.607 82.1579 166.008 79.8428C166.039 80.0072 166.066 80.1715 166.101 80.3359C168.529 92.3626 182.138 99.3579 196.499 95.9572C208.065 93.2223 216.597 84.5794 218.2 75.0178C220.27 86.8718 210.676 99.0924 196.499 102.464Z" fill="#2B2137"/>
<path d="M130.087 288.853L120.88 262.408L132.257 257.761L141.463 284.207L130.087 288.853Z" fill="#EF948C"/>
<path d="M135.742 286.549L126.535 260.104L132.258 257.766L141.464 284.212L135.742 286.549Z" fill="#E87A74"/>
<path d="M117.021 264.213L126.304 290.884C130.737 289.114 133.953 284.907 134.731 279.86C135.51 274.813 133.731 269.702 130.07 266.468C126.409 263.234 121.429 262.373 117.021 264.213Z" fill="white"/>
<path d="M124.722 292.283L114.762 263.666C114.343 262.466 114.382 261.135 114.87 259.967C115.359 258.799 116.256 257.889 117.365 257.438C118.542 256.955 119.853 257.035 120.973 257.656C122.094 258.277 122.92 259.383 123.247 260.699L130.608 290.227C131.016 291.892 130.199 293.622 128.713 294.238C127.113 294.883 125.332 294.011 124.722 292.283Z" fill="#2B2137"/>
<path d="M215.956 290.188L227.263 264.716L238.221 270.423L226.913 295.895L215.956 290.188Z" fill="#EF948C"/>
<path d="M215.959 290.186L227.267 264.715L231.87 267.112L220.563 292.584L215.959 290.186Z" fill="#E87A74"/>
<path d="M230.869 297.521L242.272 271.816C238.033 269.609 233.029 270.02 229.145 272.894C225.261 275.767 223.088 280.667 223.443 285.747C223.799 290.826 226.63 295.315 230.869 297.521Z" fill="white"/>
<path d="M244.302 272.11L232.073 299.678C231.003 302.084 228.336 303.097 226.113 301.941C224.979 301.35 224.128 300.267 223.769 298.96C223.411 297.653 223.578 296.243 224.23 295.077L238.859 268.916C239.696 267.453 241.417 266.907 242.85 267.652C244.376 268.46 245.022 270.444 244.302 272.11Z" fill="#2B2137"/>
<ellipse cx="182.714" cy="227.834" rx="36.4588" ry="39.4894" fill="#57879E"/>
<path d="M254.811 228.364C258.209 238.864 253.106 250.36 243.411 254.042L143.95 291.81C142.997 292.172 141.954 291.628 141.62 290.596L130.523 256.313C130.189 255.281 130.69 254.151 131.643 253.789L231.108 216.019C240.803 212.338 251.417 217.866 254.816 228.366L254.811 228.364Z" fill="#57879E"/>
<path d="M243.396 254.032L143.933 291.794C143.475 291.969 142.972 291.94 142.534 291.712C142.096 291.484 141.759 291.077 141.599 290.58L139.868 285.165L239.117 247.488C243.772 245.721 247.589 242.023 249.727 237.208C251.865 232.392 252.149 226.854 250.516 221.812C250.349 221.298 250.17 220.797 249.968 220.308C254.71 225.123 256.789 232.27 255.45 239.161C254.111 246.051 249.548 251.684 243.416 254.02L243.396 254.032Z" fill="#639FB7"/>
<path d="M173.603 91.2837V116.833C173.701 121.792 177.441 125.756 182.02 125.756C186.599 125.756 190.339 121.792 190.437 116.833V91.2837C190.339 86.3249 186.599 82.3606 182.02 82.3606C177.441 82.3606 173.701 86.3249 173.603 91.2837H173.603Z" fill="#FCB58A"/>
<path d="M247.574 162.964C247.57 168.462 244.715 173.492 240.187 175.979C235.66 178.466 230.226 177.988 226.129 174.742L217.005 167.515L216.97 167.485L215.344 166.187L189.868 146.011C185.945 142.909 183.867 137.759 184.431 132.533C184.995 127.307 188.113 122.815 192.592 120.777C192.938 120.617 193.288 120.474 193.642 120.356C197.765 118.882 202.291 119.657 205.792 122.438L242.068 151.169C245.535 153.924 247.58 158.306 247.574 162.964Z" fill="#EF948C"/>
<path d="M247.575 162.964C247.577 166.06 246.667 169.076 244.976 171.573C244.553 172.205 244.081 172.795 243.564 173.339C246.525 166.958 244.792 159.193 239.467 154.982L203.183 126.243C197.848 122.027 190.479 122.619 185.777 127.642C186.114 126.929 186.505 126.247 186.944 125.602C191.341 119.092 199.777 117.674 205.79 122.433L242.066 151.164C245.535 153.92 247.582 158.304 247.575 162.964Z" fill="#FCB58A"/>
<path d="M158.215 162.129V201.299C157.917 210.989 162.52 220.085 170.222 225.026C177.924 229.967 187.501 229.967 195.203 225.026C202.905 220.085 207.508 210.989 207.21 201.299V162.129L158.215 162.129Z" fill="#FBE7EB"/>
<path d="M158.215 152.913V192.104L207.209 180.608V152.913H158.215Z" fill="#FCB651"/>
<path d="M217.243 154.907V156.281C217.244 161.164 215.453 165.847 212.266 169.3C209.078 172.753 204.753 174.693 200.245 174.691H163.778C154.392 174.689 146.784 166.447 146.784 156.281V154.907C146.793 145.319 150.125 136.085 156.122 129.033C156.449 128.658 156.771 128.291 157.106 127.933C157.662 127.326 158.246 126.732 158.849 126.163C160.109 124.963 161.451 123.869 162.864 122.889C163.121 122.703 163.378 122.531 163.642 122.362C165.463 121.149 167.384 120.122 169.381 119.294C177.752 115.808 187.036 115.912 195.339 119.585C197.094 120.359 198.786 121.292 200.397 122.375C200.976 122.754 201.541 123.159 202.101 123.58C204.346 125.271 206.404 127.235 208.236 129.433C209.418 130.85 210.498 132.363 211.465 133.959C215.251 140.174 217.261 147.461 217.243 154.907Z" fill="white"/>
<path d="M217.243 154.907V156.285C217.243 166.451 209.635 174.693 200.249 174.696H188.908C204.226 163.196 209.567 141.351 201.513 123.146L202.104 123.567C203.174 124.369 204.201 125.237 205.178 126.167C212.856 133.394 217.257 143.877 217.239 154.894L217.243 154.907Z" fill="#FFEFED"/>
<path d="M173.603 91.2837V111.001C178.893 113.772 185.028 113.945 190.445 111.477V91.2837C190.347 86.3249 186.607 82.3606 182.028 82.3606C177.448 82.3606 173.709 86.3249 173.61 91.2837H173.603Z" fill="#8A5332"/>
<ellipse cx="160.962" cy="81.0057" rx="8.59431" ry="9.30872" fill="#FCB58A"/>
<ellipse cx="182.515" cy="78.6881" rx="24.3007" ry="31.8031" fill="#FCB58A"/>
<ellipse cx="204.621" cy="81.0057" rx="8.59435" ry="9.30872" fill="#FCB58A"/>
<path d="M155.895 80.698C155.894 79.0735 156.793 77.6068 158.175 76.977C158.505 76.8417 158.875 76.892 159.164 77.1113C159.453 77.3306 159.623 77.6906 159.618 78.0727V83.3233C159.617 83.7268 159.425 84.1013 159.108 84.3145C158.792 84.5277 158.397 84.5497 158.062 84.3726C156.739 83.7119 155.892 82.2764 155.895 80.698Z" fill="#E87A74"/>
<path d="M208.675 80.6814C208.675 82.3043 207.777 83.769 206.395 84.3981C206.066 84.535 205.695 84.486 205.405 84.2675C205.115 84.049 204.944 83.6892 204.948 83.3067V78.0561C204.95 77.6528 205.142 77.2787 205.458 77.0649C205.774 76.8512 206.169 76.8277 206.504 77.0026C207.83 77.6635 208.678 79.1008 208.675 80.6814Z" fill="#E87A74"/>
<path d="M187.874 89.6739C187.883 91.2076 187.322 92.6809 186.317 93.7615C186.193 93.8963 186.068 94.0185 185.928 94.1407C184.964 95.0031 183.755 95.4781 182.505 95.485H182.287C181.145 95.4964 180.029 95.119 179.096 94.4062C177.827 93.4397 177.013 91.9199 176.867 90.247C176.852 90.0874 176.844 89.9271 176.844 89.7666C176.841 89.4708 176.949 89.1865 177.143 88.9786C177.339 88.7655 177.605 88.6457 177.882 88.6457L186.811 88.5698C187.088 88.5619 187.356 88.6742 187.555 88.8816C187.755 89.0891 187.869 89.3744 187.874 89.6739Z" fill="#962F4A"/>
<path d="M229.706 262.555L215.812 294.753C215.299 295.942 213.993 296.455 212.895 295.9L126.894 252.364C117.587 247.653 113.569 235.662 117.919 225.582C122.266 215.507 133.327 211.153 142.632 215.853L228.633 259.388C229.731 259.944 230.205 261.359 229.692 262.548L229.706 262.555Z" fill="#8CB7CB"/>
<path d="M185.135 260.539C186.836 261.4 187.603 263.518 186.847 265.269C186.092 267.02 184.1 267.741 182.398 266.88L144.456 247.673C142.755 246.811 141.988 244.694 142.743 242.943C143.499 241.192 145.491 240.47 147.192 241.332L185.135 260.539Z" fill="#A1D1E2"/>
<path d="M218.363 288.857L215.811 294.757C215.567 295.328 215.123 295.77 214.576 295.986C214.03 296.201 213.427 296.171 212.901 295.903L126.88 252.372C121.631 249.719 117.824 244.569 116.583 238.441C115.342 232.314 116.809 225.91 120.55 221.121C117.793 230.735 122.015 241.078 130.436 245.339L216.457 288.878C217.061 289.19 217.765 289.182 218.363 288.857Z" fill="#A1D1E2"/>
<path d="M210.255 192.5C204.841 195.509 198.302 193.41 195.65 187.812C192.998 182.213 195.238 175.236 200.653 172.227L230.957 155.387C236.372 152.378 242.911 154.477 245.563 160.075C248.214 165.674 245.975 172.651 240.56 175.66L210.255 192.5Z" fill="#FCB58A"/>
<ellipse rx="11.956" ry="14.246" transform="matrix(0.305302 -0.952256 0.935983 0.352045 198.992 184.075)" fill="#EF948C"/>
<path d="M200.56 192.908C202.444 192.286 204.141 191.133 205.478 189.567L212.8 185.479L235.996 172.593C238.483 171.216 240.361 168.824 241.216 165.944C242.071 163.064 241.832 159.934 240.551 157.245C240 156.075 239.264 155.018 238.377 154.123C242.747 155.096 246.073 158.953 246.671 163.743C247.269 168.532 245.009 173.208 241.034 175.404L210.497 192.369C207.291 196.246 201.229 197.632 195.323 195.424C193.619 194.786 192.016 193.865 190.573 192.694C193.797 193.906 197.294 193.981 200.56 192.908Z" fill="#FEA169"/>
<rect x="139.286" y="155.648" width="90.0829" height="72.9107" rx="20.44" fill="#3F2A3C"/>
<path d="M229.37 164.266V219.946C229.37 222.231 228.532 224.422 227.039 226.038C225.547 227.653 223.523 228.56 221.414 228.559H147.259C145.149 228.56 143.125 227.653 141.633 226.038C140.141 224.422 139.303 222.231 139.303 219.946V214.261H163.008C192.888 214.252 217.107 188.013 217.107 155.648H221.414C225.808 155.648 229.37 159.507 229.37 164.266Z" fill="#2B2137"/>
<path d="M190.446 188.341C190.444 191.251 188.459 193.712 185.797 194.107C183.136 194.501 180.614 192.707 179.89 189.904C182.781 189.788 185.069 187.217 185.069 184.084C185.068 183.558 185.003 183.033 184.874 182.525H185.069C188.035 182.525 190.441 185.128 190.446 188.341Z" fill="#6E4965"/>
<ellipse cx="198.774" cy="59.4344" rx="14.4458" ry="15.6466" fill="#6C4A67"/>
<ellipse cx="162.229" cy="64.7987" rx="12.0609" ry="13.0634" fill="#6C4A67"/>
<ellipse cx="183.463" cy="46.8892" rx="19.2818" ry="20.8846" fill="#6C4A67"/>
<path d="M208.237 129.433C202.965 135.83 193.34 140.107 182.345 140.107C171.117 140.107 161.316 135.644 156.122 129.024C156.449 128.649 156.772 128.283 157.107 127.924C157.663 127.318 158.247 126.723 158.85 126.155C160.11 124.955 161.452 123.86 162.865 122.88C163.122 122.695 163.378 122.522 163.643 122.354C165.464 121.141 167.385 120.114 169.381 119.286C177.753 115.8 187.037 115.904 195.34 119.576C197.095 120.351 198.787 121.284 200.397 122.366C200.977 122.745 201.541 123.15 202.101 123.571C204.347 125.265 206.405 127.232 208.237 129.433Z" fill="#FCB58A"/>
<ellipse cx="195.146" cy="57.0365" rx="9.37244" ry="10.1515" fill="#775674"/>
<ellipse cx="184.33" cy="46.8892" rx="12.874" ry="13.9441" fill="#775674"/>
</svg>
