<svg width="320" height="287" viewBox="0 0 320 287" fill="none" xmlns="http://www.w3.org/2000/svg">
<path d="M315.38 190.259V193.736V194.481V195.039C315.38 195.283 315.38 195.523 315.353 195.767C315.353 196.101 315.32 196.435 315.296 196.769C315.273 197.103 315.246 197.437 315.216 197.771C315.186 198.105 315.153 198.439 315.116 198.773C315.079 199.107 315.039 199.414 314.996 199.731C314.946 200.099 314.892 200.466 314.832 200.834C314.785 201.128 314.735 201.421 314.682 201.715C314.618 202.069 314.548 202.423 314.475 202.774V202.828C314.415 203.118 314.351 203.409 314.281 203.699C314.261 203.789 314.241 203.883 314.218 203.97C314.151 204.26 314.077 204.548 314.004 204.838V204.862C313.914 205.196 313.82 205.55 313.723 205.89C313.666 206.087 313.61 206.284 313.55 206.481C313.489 206.678 313.433 206.872 313.369 207.069C313.306 207.266 313.252 207.443 313.189 207.63C313.045 208.075 312.892 208.512 312.731 208.946C312.466 209.668 312.185 210.379 311.886 211.08C311.806 211.267 311.726 211.454 311.642 211.638C311.462 212.046 311.278 212.453 311.085 212.854C311.015 212.998 310.944 213.144 310.871 213.288C310.604 213.831 310.325 214.369 310.036 214.901C309.869 215.205 309.702 215.506 309.528 215.803C307.253 219.746 304.385 223.316 301.025 226.387C300.871 226.531 300.714 226.671 300.557 226.811L300.511 226.851L299.936 227.309C297.439 229.455 294.709 231.314 291.797 232.85C291.002 233.271 290.19 233.668 289.369 234.039C287.74 234.778 286.067 235.415 284.359 235.946C283.955 236.073 283.547 236.193 283.14 236.307L282.301 236.534C282.021 236.607 281.737 236.677 281.456 236.744C281.253 236.794 281.052 236.841 280.849 236.884L280.374 236.988C280.167 237.035 279.957 237.078 279.746 237.118L279.296 237.202L278.788 237.295H278.731L278.123 237.395C277.789 237.449 277.439 237.499 277.095 237.546L276.657 237.603L276.123 237.666L275.488 237.733L274.583 237.81L273.938 237.853L273.27 237.893H273.194L272.552 237.916C272.322 237.916 272.088 237.916 271.854 237.933H271.153H253.228C248.188 237.933 244.103 242.018 244.103 247.058V281.118H91.56V247.081C91.5643 243.325 89.2615 239.952 85.7619 238.588C85.635 238.538 85.5047 238.488 85.3711 238.444C85.2375 238.401 85.1641 238.374 85.0572 238.344C84.9503 238.314 84.9303 238.304 84.8668 238.291C84.8065 238.271 84.7452 238.254 84.6831 238.24C84.5974 238.216 84.5105 238.196 84.4226 238.18C84.0924 238.103 83.7578 238.046 83.4206 238.01L83.1969 237.99C83.08 237.99 82.9631 237.97 82.8462 237.967H82.4354H52.2494C51.7718 237.967 51.3008 237.967 50.8266 237.947C47.198 237.833 43.5957 237.29 40.0955 236.327C39.8083 236.25 39.5244 236.166 39.2405 236.083C38.8363 235.966 38.4389 235.842 38.0415 235.712C37.7075 235.609 37.3735 235.498 37.0629 235.378C36.5619 235.2 36.0665 235.015 35.5766 234.824L35.4263 234.764C35.2493 234.697 35.0756 234.627 34.9019 234.553C34.7283 234.48 34.4845 234.386 34.2807 234.296L33.9801 234.169C33.7129 234.056 33.4491 233.935 33.1852 233.812C32.8512 233.655 32.4872 233.478 32.1432 233.324C31.7992 233.17 31.5053 233.01 31.188 232.843C31.0009 232.746 30.8139 232.649 30.6302 232.549L30.1927 232.312L29.7719 232.085C29.4646 231.911 29.1607 231.751 28.8567 231.557C28.5528 231.364 28.2522 231.197 27.955 231.01L27.9149 230.986L27.13 230.482L26.8595 230.305L26.1915 229.854C25.9009 229.654 25.6137 229.453 25.3298 229.246H25.3098C25.0693 229.069 24.8288 228.892 24.5917 228.712C23.9237 228.224 23.2891 227.726 22.6746 227.185C22.5477 227.079 22.4208 226.972 22.2972 226.851L21.7561 226.38C21.0681 225.776 20.4001 225.145 19.7522 224.497C17.1359 221.881 14.8438 218.96 12.9254 215.796C12.6816 215.392 12.4411 214.985 12.2107 214.574L11.9101 214.036C11.7999 213.836 11.693 213.639 11.5761 213.438C11.4592 213.238 11.4058 213.104 11.3256 212.954C11.0618 212.446 10.8113 211.929 10.5708 211.411C10.4739 211.207 10.3804 211.004 10.2869 210.797C10.1934 210.589 10.0899 210.352 9.99967 210.129C9.9095 209.905 9.83268 209.734 9.74918 209.537C9.61559 209.223 9.48199 208.906 9.36175 208.586L9.09456 207.867C8.93091 207.427 8.76057 206.982 8.63032 206.531C8.55684 206.314 8.4867 206.097 8.41656 205.863C8.31637 205.55 8.21951 205.236 8.12933 204.922C8.10929 204.855 8.08925 204.791 8.07255 204.725C7.98906 204.447 7.91224 204.167 7.83876 203.886C7.81872 203.816 7.80202 203.746 7.78532 203.676C7.72854 203.465 7.67176 203.255 7.62167 203.041C7.57157 202.828 7.53483 202.684 7.49809 202.507C7.44465 202.246 7.38787 201.983 7.32108 201.725C7.2977 201.632 7.27766 201.542 7.25762 201.448C6.60529 198.334 6.27734 195.161 6.27903 191.98C6.27903 191.746 6.27903 191.512 6.27903 191.275C6.27903 191.106 6.27903 190.935 6.27903 190.764V190.386C6.27903 190.243 6.27903 190.099 6.29573 189.956C6.29573 189.668 6.32245 189.384 6.34249 189.101C6.36253 188.817 6.37255 188.603 6.39258 188.359C6.39115 188.35 6.39115 188.341 6.39258 188.332C6.39258 188.175 6.41596 187.998 6.43266 187.858C6.4861 187.23 6.5529 186.607 6.63306 185.988C6.67314 185.677 6.71656 185.37 6.76665 185.063C6.89357 184.201 7.05054 183.346 7.22756 182.501C7.30438 182.117 7.39121 181.736 7.48139 181.355C7.71964 180.353 7.99017 179.363 8.29299 178.383C8.46443 177.835 8.64479 177.291 8.83405 176.75C8.97433 176.345 9.12462 175.945 9.27492 175.544C10.3822 172.652 11.781 169.88 13.4498 167.271C16.3095 162.798 19.9181 158.85 24.1174 155.601C25.1016 154.838 26.1214 154.114 27.1768 153.43C31.1419 150.847 35.4844 148.896 40.0487 147.646C41.3646 147.285 42.7006 146.983 44.0566 146.741C45.0653 146.558 46.085 146.41 47.1159 146.296C48.8029 146.111 50.4988 146.019 52.1959 146.019H87.669C94.1464 146.021 99.4442 140.858 99.6091 134.383C99.6091 134.283 99.6091 134.179 99.6091 134.076C99.6091 134.029 99.6091 133.982 99.6091 133.939C99.5443 128.15 95.3346 123.242 89.6228 122.296C88.9771 122.188 88.3236 122.135 87.669 122.136H27.9249H27.2235C20.0619 121.968 13.2415 119.042 8.18611 113.966C7.8755 113.656 7.57157 113.338 7.27766 113.014C-2.42589 102.364 -2.42589 86.0774 7.27766 75.4271C7.57157 75.0932 7.8755 74.7859 8.18611 74.4753C13.2415 69.3998 20.0619 66.473 27.2235 66.3059C27.4462 66.3059 27.68 66.3059 27.9249 66.3059C32.2248 66.3116 36.4406 65.1142 40.0955 62.8491C41.5422 61.9496 42.8861 60.8946 44.1034 59.7029C48.555 55.3514 51.0643 49.3889 51.0637 43.1637C51.0637 25.1017 65.7059 10.4595 83.768 10.4595H259.447C272.655 10.4582 284.058 19.7114 286.776 32.637C289.495 45.5627 282.785 58.6252 270.695 63.9446C269.699 64.385 268.678 64.7654 267.636 65.0835C264.982 65.8965 262.222 66.3086 259.447 66.3059H250.095C247.377 66.304 244.702 66.9851 242.316 68.2865C241.895 68.5169 241.485 68.7674 241.087 69.0346C236.573 72.0435 233.862 77.1096 233.863 82.5344C233.861 86.8397 235.571 90.969 238.615 94.0129C241.66 97.0568 245.79 98.7657 250.095 98.763C250.392 98.763 250.686 98.763 250.98 98.7831C254.536 98.9238 257.997 99.9724 261.033 101.829C261.394 102.046 261.744 102.273 262.088 102.514C262.788 102.999 263.458 103.526 264.092 104.093C268.583 108.083 271.15 113.804 271.143 119.811V134.173C271.137 140.418 275.085 145.983 280.982 148.04C281.179 148.11 281.38 148.173 281.58 148.234C282.375 148.471 283.197 148.731 284.042 149.025C285.742 149.603 287.528 150.294 289.355 151.113C293.513 152.945 297.405 155.328 300.928 158.196C301.994 159.073 303.015 160.003 303.987 160.982C305.899 162.898 307.603 165.011 309.071 167.284C310.965 170.225 312.441 173.415 313.456 176.763C313.621 177.297 313.774 177.842 313.917 178.396C314.167 179.358 314.391 180.35 314.585 181.369C314.638 181.663 314.692 181.96 314.739 182.26C314.785 182.561 314.835 182.858 314.879 183.162C314.922 183.466 314.962 183.773 314.999 184.081C315.028 184.303 315.055 184.54 315.079 184.792C315.079 184.866 315.096 184.942 315.103 185.016C315.133 185.293 315.159 185.574 315.183 185.854C315.183 185.994 315.206 186.138 315.216 186.282C315.24 186.589 315.263 186.9 315.28 187.214C315.296 187.527 315.316 187.815 315.326 188.119C315.336 188.423 315.35 188.827 315.356 189.187V189.521C315.376 189.762 315.38 190.009 315.38 190.259Z" fill="#F3F4FE"/>
<path d="M315.381 190.259V193.736V194.481V195.038C315.381 195.282 315.381 195.523 315.354 195.767C315.354 196.101 315.321 196.435 315.297 196.768C315.274 197.102 315.247 197.436 315.217 197.77C315.187 198.104 315.154 198.438 315.117 198.772C315.08 199.106 315.04 199.414 314.997 199.731C314.946 200.098 314.893 200.466 314.833 200.833C314.786 201.127 314.736 201.421 314.683 201.715C314.619 202.069 314.549 202.423 314.476 202.774V202.827C314.415 203.118 314.352 203.408 314.282 203.699C314.262 203.789 314.242 203.882 314.218 203.969C314.152 204.26 314.078 204.547 314.005 204.838V204.861C313.914 205.195 313.821 205.549 313.724 205.89C313.667 206.087 313.611 206.284 313.55 206.481C313.49 206.678 313.434 206.872 313.37 207.069C313.307 207.266 313.253 207.443 313.19 207.63C313.046 208.074 312.892 208.512 312.732 208.946C312.467 209.667 312.186 210.379 311.887 211.08C311.807 211.267 311.727 211.454 311.643 211.638C311.463 212.045 311.279 212.453 311.086 212.853C311.015 212.997 310.945 213.144 310.872 213.288C310.605 213.831 310.326 214.369 310.037 214.901C309.87 215.205 309.703 215.505 309.529 215.803C307.254 219.745 304.386 223.315 301.026 226.387C300.872 226.53 300.715 226.671 300.558 226.811L300.511 226.851L299.937 227.309C297.44 229.455 294.71 231.313 291.798 232.849C291.003 233.27 290.191 233.668 289.37 234.038C287.741 234.778 286.068 235.415 284.36 235.945C283.956 236.072 283.548 236.193 283.141 236.306L282.302 236.533C282.022 236.607 281.738 236.677 281.457 236.744C281.254 236.794 281.053 236.841 280.849 236.884L280.375 236.988C280.168 237.034 279.958 237.078 279.747 237.118L279.296 237.201L278.789 237.295H278.732L278.124 237.395C277.79 237.448 277.439 237.499 277.095 237.545L276.658 237.602L276.124 237.666L275.489 237.732L274.584 237.809L273.939 237.853L273.271 237.893H273.194L272.553 237.916C272.323 237.916 272.089 237.916 271.855 237.933H271.154H253.212C248.174 237.935 244.091 242.019 244.091 247.057V281.118H91.5608V247.081C91.5651 243.325 89.2624 239.951 85.7627 238.587C85.6358 238.537 85.5056 238.487 85.372 238.444C85.2384 238.4 85.1649 238.374 85.058 238.344C84.9511 238.313 84.9311 238.303 84.8676 238.29C84.8073 238.27 84.746 238.254 84.684 238.24L84.4234 238.18C84.0933 238.103 83.7586 238.046 83.4215 238.01L83.1977 237.99C83.0808 237.99 82.9639 237.969 82.847 237.966H82.4362H52.2502C51.7726 237.966 51.3017 237.966 50.8274 237.946C47.1989 237.833 43.5966 237.289 40.0963 236.326C39.8091 236.249 39.5252 236.166 39.2413 236.082C38.8372 235.966 38.4397 235.842 38.0423 235.712C37.7651 235.625 37.4879 235.531 37.2107 235.434L37.0637 235.384C36.5627 235.206 36.0673 235.021 35.5774 234.83L35.4272 234.77C35.2501 234.703 35.0765 234.633 34.9028 234.559C34.7291 234.486 34.4853 234.392 34.2816 234.302L33.981 234.175C33.7138 234.062 33.4499 233.942 33.1861 233.818L32.999 233.731C32.7118 233.601 32.4279 233.467 32.144 233.33C31.8601 233.193 31.6063 233.066 31.3391 232.926L31.1888 232.849C31.0018 232.753 30.8148 232.656 30.6311 232.555L30.1935 232.318L29.7727 232.085C29.4654 231.911 29.1615 231.751 28.8576 231.557C28.5536 231.363 28.2531 231.196 27.9558 231.009L27.9157 230.986L27.1308 230.481L26.8603 230.304L26.1923 229.854L25.6112 229.446L25.3306 229.246H25.3106C25.0802 229.079 24.853 228.912 24.6426 228.738C24.3354 228.508 24.0348 228.274 23.7342 228.04C23.4336 227.806 23.1464 227.566 22.8591 227.325L22.6854 227.182C22.5585 227.075 22.4316 226.968 22.308 226.848L21.757 226.38C21.4497 226.109 21.1458 225.832 20.8452 225.552C20.4744 225.218 20.1137 224.854 19.7564 224.496C17.1401 221.88 14.848 218.959 12.9296 215.796C12.6858 215.392 12.4453 214.984 12.2149 214.573L11.9143 214.036C11.8041 213.835 11.6972 213.638 11.5803 213.438C11.4634 213.238 11.41 213.104 11.3298 212.954C11.0659 212.446 10.8155 211.928 10.575 211.411C10.4781 211.207 10.3846 211.003 10.2911 210.796C10.1976 210.589 10.094 210.352 10.0039 210.128C9.94374 210.001 9.8903 209.871 9.83686 209.741C9.62979 209.253 9.43607 208.765 9.24904 208.271L9.09874 207.867C8.93509 207.426 8.76475 206.982 8.6345 206.531C8.56102 206.314 8.49088 206.097 8.42074 205.863C8.32055 205.549 8.22369 205.235 8.13351 204.921C8.11347 204.854 8.09343 204.791 8.07673 204.724C7.99324 204.447 7.91642 204.166 7.84294 203.886C7.8229 203.816 7.8062 203.746 7.7895 203.675C7.73272 203.465 7.67595 203.255 7.62585 203.041C7.58911 202.904 7.55571 202.764 7.52565 202.623C7.45217 202.313 7.38204 202.002 7.31524 201.688C7.2952 201.608 7.2785 201.528 7.2618 201.448C6.60947 198.334 6.28152 195.161 6.28321 191.979C6.28321 191.745 6.28321 191.511 6.28321 191.274C6.28321 191.105 6.28321 190.935 6.28321 190.763V190.386C6.28321 190.242 6.28321 190.099 6.29991 189.955C6.29991 189.668 6.32663 189.384 6.34667 189.1C6.36671 188.816 6.37673 188.602 6.39677 188.359C6.39533 188.35 6.39533 188.341 6.39677 188.332C6.39677 188.175 6.42015 187.998 6.43684 187.858C6.49028 187.23 6.55708 186.606 6.63724 185.987C6.67732 185.677 6.72074 185.369 6.77083 185.062C6.89775 184.2 7.05473 183.345 7.23174 182.5C7.30856 182.116 7.3954 181.736 7.48557 181.355C7.72382 180.353 7.99435 179.362 8.29717 178.382C8.46862 177.835 8.64897 177.29 8.83823 176.749C8.97851 176.345 9.1288 175.944 9.2791 175.543C94.2928 119.55 152.43 211.918 189.42 132.576C195.158 120.258 201.981 110.813 209.359 103.625C216.575 96.5313 225.184 91.011 234.642 87.4136C235.749 90.9438 238.028 93.9906 241.101 96.0505C242.06 96.694 243.086 97.2315 244.161 97.6537C246.055 98.4006 248.073 98.7825 250.109 98.7792C250.406 98.7792 250.7 98.7792 250.994 98.7993C254.55 98.94 258.011 99.9886 261.047 101.845C261.408 102.062 261.759 102.289 262.103 102.53C262.802 103.015 263.472 103.542 264.107 104.11C268.597 108.099 271.164 113.821 271.157 119.827V134.189C271.151 140.434 275.1 145.999 280.996 148.056C281.193 148.126 281.394 148.19 281.594 148.25C282.389 148.487 283.211 148.747 284.056 149.041C285.756 149.619 287.543 150.311 289.37 151.129C293.527 152.962 297.419 155.344 300.942 158.213C302.008 159.089 303.029 160.019 304.002 160.998C305.913 162.914 307.617 165.027 309.085 167.301C310.979 170.241 312.455 173.432 313.47 176.779C313.635 177.314 313.789 177.858 313.931 178.412C314.182 179.374 314.405 180.366 314.599 181.385C314.653 181.679 314.706 181.976 314.753 182.277C314.8 182.577 314.85 182.875 314.893 183.178C314.936 183.482 314.977 183.79 315.013 184.097C315.042 184.32 315.069 184.557 315.093 184.808C315.093 184.882 315.11 184.959 315.117 185.032C315.147 185.309 315.174 185.59 315.197 185.87C315.197 186.011 315.22 186.154 315.23 186.298C315.254 186.605 315.277 186.916 315.294 187.23C315.311 187.544 315.331 187.831 315.341 188.135C315.351 188.439 315.364 188.843 315.371 189.204V189.538C315.377 189.761 315.381 190.009 315.381 190.259Z" fill="#E6E9FF"/>
<path d="M315.378 190.259V193.736C315.384 201.129 313.53 208.405 309.987 214.894C309.82 215.198 309.653 215.499 309.48 215.796C307.204 219.739 304.336 223.309 300.976 226.38C300.823 226.524 300.666 226.664 300.509 226.804L300.462 226.844L299.934 227.309C297.437 229.455 294.707 231.313 291.795 232.849C291 233.27 290.188 233.668 289.367 234.038C287.738 234.778 286.065 235.415 284.357 235.946C283.953 236.072 283.545 236.193 283.138 236.306C282.025 236.62 280.894 236.891 279.745 237.118C277.827 237.494 275.887 237.743 273.936 237.863C273.015 237.923 272.085 237.953 271.148 237.953H253.209C248.171 237.955 244.088 242.039 244.088 247.077V281.118H209.937C195.53 251.567 202.434 216.048 226.863 194.046C251.291 172.045 287.337 168.881 315.224 186.291C315.329 187.574 315.38 188.896 315.378 190.259Z" fill="#DCE1FB"/>
<path d="M263.637 237.957H253.213C248.175 237.959 244.092 242.043 244.092 247.081V281.118H131.351C132.145 241.113 164.826 208.94 205.022 208.94C228.023 208.926 249.708 219.666 263.637 237.97V237.957Z" fill="#DCE1FB"/>
<path d="M315.366 189.197H6.39209C6.4767 187.788 6.62366 186.397 6.83296 185.026H315.112C315.259 186.368 315.344 187.759 315.366 189.197Z" fill="#D2D6FA"/>
<path d="M314.668 201.708C314.412 203.125 314.087 204.516 313.692 205.883H8.42582C7.99163 204.516 7.62313 203.125 7.32031 201.708H314.668Z" fill="#D2D6FA"/>
<path d="M272.392 205.883H281.303V212.369H272.392V205.883Z" fill="#D2D6FA"/>
<path d="M273.948 212.37H279.759V215.666H273.948V212.37Z" fill="#BCBFF6"/>
<path d="M279.756 215.666V237.121C277.838 237.498 275.898 237.746 273.948 237.866V215.666L279.756 215.666Z" fill="#D2D6FA"/>
<path d="M223.555 205.883H232.466V212.369H223.555V205.883Z" fill="#D2D6FA"/>
<path d="M225.108 212.37H230.92V215.666H225.108V212.37Z" fill="#BCBFF6"/>
<path d="M225.108 215.666H230.92V281.115H225.108V215.666Z" fill="#D2D6FA"/>
<path d="M174.72 205.883H183.631V212.369H174.72V205.883Z" fill="#D2D6FA"/>
<path d="M176.273 212.37H182.085V215.666H176.273V212.37Z" fill="#BCBFF6"/>
<path d="M176.273 215.666H182.085V281.115H176.273V215.666Z" fill="#D2D6FA"/>
<path d="M125.885 205.883H134.795V212.369H125.885V205.883Z" fill="#D2D6FA"/>
<path d="M127.438 212.37H133.249V215.666H127.438V212.37Z" fill="#BCBFF6"/>
<path d="M127.438 215.666H133.249V281.115H127.438V215.666Z" fill="#D2D6FA"/>
<path d="M77.053 205.883H85.9638V212.369H77.053V205.883Z" fill="#D2D6FA"/>
<path d="M78.6025 212.37H84.414V215.666H78.6025V212.37Z" fill="#BCBFF6"/>
<path d="M84.414 215.666V238.18C83.7567 238.029 83.0843 237.954 82.41 237.956H78.6025V215.666H84.414Z" fill="#D2D6FA"/>
<path d="M28.2175 205.883H37.1284V212.369H28.2175V205.883Z" fill="#D2D6FA"/>
<path d="M29.7671 212.37H35.5785V215.666H29.7671L29.7671 212.37Z" fill="#BCBFF6"/>
<path d="M35.58 215.667V234.835C34.411 234.384 33.2654 233.879 32.1466 233.335C31.8126 233.178 31.5086 233.021 31.1914 232.854C30.7104 232.607 30.2361 232.351 29.7686 232.086V215.667H35.58Z" fill="#D2D6FA"/>
<rect x="40.0942" y="287" width="24.7353" height="5.88155" rx="2.94078" transform="rotate(-180 40.0942 287)" fill="#D2D6FA"/>
<rect x="313.002" y="287" width="270.512" height="5.88155" rx="2.94078" transform="rotate(-180 313.002 287)" fill="#D2D6FA"/>
<ellipse cx="94.2916" cy="67.0541" rx="39.2137" ry="39.2137" fill="white"/>
<path d="M186.284 38.6281H172.13C172.108 34.6583 175.224 31.3793 179.19 31.1998C183.156 31.0204 186.556 34.0045 186.892 37.9601C186.909 38.1315 186.853 38.302 186.737 38.4293C186.621 38.5567 186.456 38.6289 186.284 38.6281Z" fill="#D2D6FA"/>
<path d="M178.598 38.6276H157.353C157.285 34.7888 159.294 31.2121 162.608 29.2728C165.921 27.3335 170.024 27.3335 173.337 29.2728C176.651 31.2121 178.66 34.7888 178.592 38.6276H178.598Z" fill="#D2D6FA"/>
<path d="M169.259 38.6282H144.858C144.449 38.6305 144.06 38.4587 143.786 38.1557C143.512 37.8528 143.381 37.4476 143.425 37.0417C144.261 30.2391 150.247 25.2624 157.088 25.6825C163.929 26.1026 169.261 31.7744 169.259 38.6282Z" fill="#D2D6FA"/>
<path d="M229.196 71.149H219.845C219.829 68.5252 221.89 66.3584 224.512 66.2425C227.133 66.1267 229.377 68.1032 229.594 70.7182C229.602 70.829 229.564 70.9383 229.489 71.02C229.413 71.1017 229.307 71.1484 229.196 71.149Z" fill="#D2D6FA"/>
<path d="M224.12 71.1489H210.092C210.092 67.2753 213.232 64.1351 217.106 64.1351C220.979 64.1351 224.12 67.2753 224.12 71.1489Z" fill="#D2D6FA"/>
<path d="M217.945 71.1488H201.834C201.564 71.1512 201.306 71.0384 201.125 70.8387C200.944 70.639 200.857 70.3715 200.885 70.1034C201.448 65.6209 205.397 62.3469 209.906 62.6232C214.415 62.8995 217.934 66.6311 217.945 71.1488Z" fill="#D2D6FA"/>
<path d="M30.0171 101.803H47.6985C47.7486 96.7796 43.9502 92.5519 38.9504 92.0659C33.9505 91.5799 29.409 94.997 28.4908 99.9358C28.3988 100.394 28.5168 100.869 28.8124 101.23C29.108 101.592 29.5501 101.802 30.0171 101.803Z" fill="#D2D6FA"/>
<path d="M39.2185 101.803H67.0632C66.9454 94.1976 60.7468 88.0942 53.1409 88.0942C45.5349 88.0942 39.3363 94.1976 39.2185 101.803Z" fill="#D2D6FA"/>
<path d="M51.478 101.802H83.1035C83.7442 101.801 84.3528 101.522 84.7709 101.036C85.1891 100.551 85.3753 99.9073 85.2811 99.2736C83.954 90.4812 76.0742 84.1977 67.207 84.861C58.3398 85.5242 51.4825 92.9099 51.478 101.802H51.478Z" fill="#D2D6FA"/>
<path d="M271.154 119.814V125.228C248.04 134.191 221.839 125.034 209.339 103.625C216.555 96.5313 225.164 91.011 234.622 87.4136C235.734 90.9462 238.019 93.9933 241.098 96.0506C242.057 96.694 243.083 97.2315 244.158 97.6537C246.052 98.4006 248.07 98.7825 250.106 98.7792C250.403 98.7792 250.697 98.7792 250.991 98.7993C254.547 98.94 258.008 99.9887 261.044 101.845C261.405 102.062 261.755 102.289 262.099 102.53C262.799 103.015 263.469 103.542 264.103 104.11C268.594 108.099 271.161 113.821 271.154 119.827V119.814Z" fill="#EEF0FF"/>
<path d="M140.178 243.013H157.686V274.027H140.178V243.013Z" fill="#FFB2BF"/>
<path d="M140.178 243.013H157.686V263.563H140.178V243.013Z" fill="#FF6D8D"/>
<path d="M230.791 262.438L214.469 268.764L212.201 262.892L206.366 259.886L206.72 259.218C208.112 256.528 208.353 253.389 207.388 250.518C207.335 250.361 207.278 250.204 207.221 250.05L205.595 245.855L201.75 235.936L218.079 229.61L222.652 241.42L230.477 261.63L230.791 262.438Z" fill="#FF6D8D"/>
<path d="M230.471 261.606H225.625C223.215 254.647 216.52 250.098 209.163 250.418L207.383 250.494C207.329 250.337 207.272 250.18 207.216 250.027L205.589 245.832L222.646 241.396L230.471 261.606Z" fill="#F4648A"/>
<path d="M232.406 243.508L203.285 246.981L199.444 247.439L195.296 237.743L146.066 122.63L175.203 110.169L223.829 223.869L229.5 237.125L232.406 243.508Z" fill="#01BFBF"/>
<path d="M232.403 243.507L203.282 246.981L199.441 247.438L195.293 237.743L198.72 236.079H198.723L223.826 223.869L229.497 237.125L232.403 243.507Z" fill="#01BFBF"/>
<path d="M204.307 249.139L200.363 249.586L146.066 122.63L149.566 121.137L203.856 248.093L204.307 249.139Z" fill="#01BFBF"/>
<path d="M133.089 132.072V260.01H164.778V121.932H143.229C140.54 121.932 137.96 123 136.059 124.902C134.157 126.804 133.089 129.383 133.089 132.072H133.089Z" fill="#257575"/>
<path d="M133.089 244.185V260.01H164.778V238.491L133.089 244.185Z" fill="#EE6B0E"/>
<path d="M234.395 243.821C234.557 244.284 234.501 244.796 234.241 245.212C233.981 245.628 233.546 245.904 233.059 245.961L204.306 249.392L200.321 249.866C199.603 249.942 198.921 249.533 198.651 248.864L195.842 242.07C195.514 241.279 195.86 240.37 196.63 239.996L199.76 238.477L226.145 225.642C226.561 225.439 227.043 225.424 227.471 225.6C227.898 225.776 228.23 226.127 228.383 226.563L234.395 243.821Z" fill="#EE6B0E"/>
<ellipse cx="159.474" cy="128.968" rx="26.4152" ry="26.4152" fill="#257575"/>
<path d="M137.18 128.972C137.18 129.663 137.213 130.345 137.263 131.023C137.23 131.356 137.21 131.717 137.21 132.071V260.009H133.088V132.071C133.088 131.717 133.088 131.363 133.139 131.023C133.088 130.355 133.052 129.663 133.052 128.972C133.052 114.381 144.88 102.553 159.47 102.553C160.162 102.553 160.846 102.58 161.531 102.633C147.783 103.711 137.178 115.182 137.18 128.972Z" fill="#EE6B0E"/>
<path d="M200.905 91.3084C185.174 101.365 166 99.4878 157.957 87.1436C146.321 88.4795 135.704 84.3214 131.158 75.5174C126.452 66.3961 129.578 54.8501 138.065 46.0094C136.347 45.2516 134.852 44.0661 133.723 42.566C129.732 37.2221 131.348 29.1095 137.167 23.3549C135.891 20.4325 135.577 17.3631 136.458 14.444C138.82 6.6387 148.926 2.66422 159.788 4.87857C159.793 4.87652 159.799 4.87652 159.804 4.87857C162.435 3.06045 165.366 1.71962 168.461 0.917455C180.595 -2.24877 192.509 3.13849 195.067 12.9411C195.844 15.9952 195.681 19.2126 194.599 22.1726L194.653 22.226C196.941 24.2639 198.535 26.9661 199.212 29.9545C199.953 33.3545 199.385 36.8013 197.786 39.9742C205.023 41.0129 211.296 44.5499 215.056 50.4381C223.042 62.9093 216.706 81.2119 200.905 91.3084Z" fill="#FFF6BB"/>
<path d="M194.605 22.1924C194.733 20.5248 194.583 18.8476 194.161 17.2293C191.599 7.41666 179.686 2.02941 167.559 5.20565C159.263 7.34652 153.017 12.9475 150.712 19.4169C151.347 11.2509 158.398 3.5357 168.474 0.907201C180.608 -2.25902 192.521 3.12823 195.08 12.9308C195.864 15.9947 195.699 19.2247 194.605 22.1924Z" fill="#FFE6BB"/>
<path d="M200.914 91.3082C190.029 98.2652 177.498 99.5109 168.146 95.5331C176.713 97.3868 186.933 95.5498 195.997 89.7551C211.798 79.6586 218.138 61.366 210.159 48.8714C207.682 45.044 204.095 42.0644 199.878 40.3313C206.224 41.7073 211.675 45.1107 215.072 50.4245C223.051 62.909 216.715 81.2116 200.914 91.3082Z" fill="#FFE6BB"/>
<path d="M180.386 52.2987C167.955 55.014 156.168 49.4197 154.067 39.8041C153.668 37.9646 153.639 36.0638 153.984 34.2131C154.011 34.3467 154.037 34.4736 154.067 34.6072C156.168 44.2228 167.955 49.8171 180.386 47.0951C190.405 44.9108 197.79 37.9972 199.179 30.3589C200.973 39.8409 192.653 49.6034 180.386 52.2987Z" fill="#FFE6BB"/>
<path d="M140.321 14.4438C139.44 17.3629 139.753 20.4323 141.029 23.3547C135.208 29.1093 133.595 37.232 137.583 42.5658C138.714 44.0634 140.208 45.2484 141.924 46.0092C133.441 54.8499 130.308 66.3826 135.017 75.5172C138.745 82.7314 146.55 86.8361 155.651 87.3404C144.944 87.9082 135.418 83.73 131.177 75.5172C126.471 66.3959 129.597 54.8499 138.084 46.0092C136.366 45.2514 134.871 44.0659 133.742 42.5658C129.75 37.2219 131.367 29.1093 137.185 23.3547C135.909 20.4323 135.595 17.3629 136.477 14.4438C138.544 7.61042 146.557 3.70942 155.812 4.33732C148.24 4.8717 142.081 8.57565 140.321 14.4438Z" fill="#FDFAE4"/>
<path d="M157.958 87.1437C158.008 87.2272 158.065 87.3073 158.122 87.3841C157.28 87.4008 156.452 87.3841 155.633 87.3407C156.401 87.304 157.176 87.2338 157.958 87.1437Z" fill="#FDFAE4"/>
<path d="M163.595 74.5714C163.6 77.3965 162.357 80.0795 160.199 81.9025L149.468 90.987L141.602 97.6434L129.739 107.687C127.135 109.998 123.484 110.718 120.197 109.567C116.911 108.416 114.506 105.576 113.913 102.145C113.32 98.7144 114.632 95.2314 117.341 93.0444L147.804 67.2604C150.655 64.8499 154.645 64.3118 158.033 65.8809C161.42 67.45 163.59 70.8415 163.595 74.5748V74.5714Z" fill="#FFB2BF"/>
<path d="M149.469 90.9877L141.604 97.6441C139.835 95.6512 138.859 93.0781 138.862 90.4132V89.5916C138.855 84.9619 140.276 80.4428 142.93 76.6495C143.691 75.5538 144.55 74.5288 145.495 73.5868C145.916 73.166 146.347 72.7619 146.801 72.3811C145.598 77.8197 146.129 83.4987 148.32 88.6197C148.668 89.4346 149.051 90.2239 149.469 90.9877Z" fill="#FF6D8D"/>
<path d="M163.595 74.5788C163.596 74.9539 163.574 75.3287 163.529 75.701C163.102 72.2002 160.789 69.2158 157.505 67.929C154.221 66.6422 150.496 67.2604 147.804 69.5389L117.341 95.3229C115.476 96.8874 114.281 99.1068 114.001 101.525C113.613 98.3151 114.869 95.1256 117.341 93.0418L147.804 67.2578C150.655 64.8435 154.649 64.3042 158.038 65.8755C161.427 67.4468 163.596 70.843 163.595 74.5788Z" fill="#F9E0E5"/>
<path fill-rule="evenodd" clip-rule="evenodd" d="M137.093 48.1589C136.561 44.0833 139.433 40.348 143.508 39.8143C145.468 39.5576 147.449 40.0908 149.015 41.2961C150.581 42.5015 151.604 44.2802 151.858 46.2402C152.385 50.3163 149.51 54.0488 145.434 54.5784C141.358 55.1081 137.624 52.2345 137.093 48.1589ZM139.039 48.9453C140.263 51.0747 142.649 52.2571 145.085 51.941C146.682 51.7347 148.131 50.9022 149.114 49.6268C150.097 48.3514 150.532 46.7377 150.325 45.141C150.01 42.7051 148.259 40.6989 145.888 40.058C143.517 39.4171 140.993 40.2678 139.494 42.2133C137.994 44.1587 137.815 46.8158 139.039 48.9453Z" fill="#01BFBF"/>
<path fill-rule="evenodd" clip-rule="evenodd" d="M177.95 54.5779C173.874 54.0482 170.999 50.3158 171.526 46.2397C171.779 44.2793 172.802 42.5 174.368 41.2945C175.934 40.0889 177.916 39.5562 179.876 39.8137C183.951 40.3474 186.823 44.0828 186.291 48.1583C185.76 52.2339 182.026 55.1075 177.95 54.5779ZM179.856 39.9041C176.532 39.4724 173.488 41.8167 173.056 45.1402H173.049C172.62 48.466 174.967 51.5105 178.293 51.9403C181.617 52.3716 184.661 50.0271 185.092 46.7035C185.524 43.3799 183.179 40.3358 179.856 39.9041Z" fill="#01BFBF"/>
<circle cx="177.448" cy="36.1499" r="5.59767" fill="#FFB2BF"/>
<path d="M177.514 91.0406V113.151C177.511 121.414 170.812 128.112 162.548 128.114C154.282 128.112 147.582 121.41 147.582 113.144V91.0406L177.514 91.0406Z" fill="#F8F3F4"/>
<path d="M177.518 91.0406V113.151C177.396 121.33 170.73 127.897 162.55 127.897C154.37 127.897 147.704 121.33 147.582 113.151V91.0406H177.518Z" fill="#F8F3F4"/>
<path d="M177.514 106.649L177.668 113.813C177.668 122.079 170.51 128.549 161.873 128.549C153.237 128.549 146.236 121.849 146.236 113.583V112.2L177.514 106.649Z" fill="#257575"/>
<path d="M168.197 47.0413V69.9162C168.197 72.8368 165.83 75.2048 162.91 75.2066H162.192C159.269 75.2066 156.9 72.8386 156.898 69.9162V47.0413C156.898 44.1176 159.268 41.7476 162.192 41.7476H162.91C164.313 41.7484 165.658 42.3067 166.65 43.2994C167.641 44.2922 168.198 45.6382 168.197 47.0413Z" fill="#FFB2BF"/>
<path d="M168.197 47.0413V60.097C164.537 61.3661 160.557 61.3661 156.898 60.097V47.0413C156.898 44.1176 159.268 41.7476 162.192 41.7476H162.91C164.313 41.7484 165.658 42.3067 166.65 43.2994C167.641 44.2922 168.198 45.6382 168.197 47.0413Z" fill="#FF6D8D"/>
<path d="M178.48 29.4798V40.3779C178.48 41.2727 178.41 42.1661 178.269 43.0498V43.0765C176.859 51.9352 168.874 58.2204 159.932 57.5106C150.99 56.8008 144.097 49.3347 144.102 40.3645V29.4798C144.106 22.1989 148.695 15.7097 155.559 13.2803C162.422 10.8508 170.072 13.0079 174.655 18.6652C174.989 19.0994 175.323 19.5436 175.657 20.0012C175.748 20.1348 175.834 20.2717 175.921 20.4086C177.286 22.6063 178.133 25.086 178.396 27.6595C178.456 28.2644 178.484 28.872 178.48 29.4798Z" fill="#FFB2BF"/>
<path d="M177.518 91.0406V99.1332C168.481 104.642 158.162 107.692 147.582 107.981V91.0406L177.518 91.0406Z" fill="#EFD6D8"/>
<path d="M161.323 68.3796C160.939 67.9315 160.515 67.519 160.057 67.1472C163.372 71.1967 162.826 77.1566 158.831 80.5369L128.371 106.321C124.845 109.305 119.693 109.352 116.114 106.431C116.151 106.475 116.181 106.521 116.214 106.561C119.639 110.604 125.692 111.106 129.737 107.684L160.197 81.8995C164.24 78.4763 164.744 72.4243 161.323 68.3796Z" fill="#FF6D8D"/>
<path d="M133.012 99.7281C133.434 105.01 129.495 109.634 124.213 110.056C118.932 110.478 114.308 106.539 113.885 101.257L111.034 65.5804C110.612 60.2987 114.551 55.6748 119.833 55.2526C125.114 54.8305 129.738 58.7699 130.161 64.0516L133.012 99.7281Z" fill="#FFB2BF"/>
<path opacity="0.38" d="M121.826 87.9309C121.952 89.5003 120.781 90.8741 119.212 90.9996C117.642 91.125 116.268 89.9545 116.143 88.3852L115.317 78.0544C115.192 76.4851 116.362 75.1112 117.932 74.9858C119.501 74.8603 120.875 76.0308 121 77.6002L121.826 87.9309Z" fill="#F9E0E5"/>
<path d="M198.808 95.0598C201.983 99.3019 201.117 105.314 196.875 108.489C192.633 111.664 186.62 110.798 183.446 106.556L164.287 80.9553C161.112 76.7132 161.977 70.7006 166.22 67.526C170.462 64.3513 176.474 65.2166 179.649 69.4588L198.808 95.0598Z" fill="#FFB2BF"/>
<path d="M191.025 134.016C189.49 139.087 184.135 141.955 179.064 140.421C173.992 138.887 171.125 133.532 172.659 128.46L181.917 97.8537C183.451 92.7822 188.806 89.9145 193.878 91.4486C198.949 92.9827 201.817 98.3376 200.283 103.409L191.025 134.016Z" fill="#FFB2BF"/>
<ellipse cx="182.88" cy="135.556" rx="10.1499" ry="12.872" transform="rotate(-33.18 182.88 135.556)" fill="#FFB2BF"/>
<path d="M178.062 141.139C177.748 140.659 177.459 140.163 177.197 139.653C175.39 136.129 175.056 132.318 176.115 129.269C176.168 129.002 176.238 128.735 176.318 128.471L177.701 123.902L183.092 106.07L184.147 102.577L181.539 99.0832L167.955 80.9342C165.12 77.1431 165.473 71.8504 168.787 68.4697C169.517 67.7482 170.028 66.8345 170.26 65.8345L170.283 65.741C167.005 66.3237 164.263 68.5638 163.037 71.6599C161.812 74.7561 162.279 78.266 164.271 80.9342L180.466 102.58L172.634 128.468C172.553 128.732 172.487 129.001 172.434 129.272C171.228 132.759 171.829 137.238 174.371 141.126C177.527 145.952 182.691 148.4 187.036 147.522C183.713 146.897 180.35 144.643 178.062 141.139Z" fill="#FF6D8D"/>
<path d="M196.501 126.774C196.271 127.534 195.469 127.964 194.708 127.734L173.082 121.193C172.322 120.963 171.892 120.16 172.122 119.4C172.352 118.64 173.154 118.21 173.914 118.44L195.541 124.982C196.301 125.212 196.731 126.014 196.501 126.774Z" fill="#F8F3F4"/>
<path d="M195.928 122.877C195.698 123.637 194.895 124.067 194.135 123.837L175.491 118.198C174.731 117.968 174.301 117.165 174.531 116.405C174.761 115.645 175.564 115.215 176.324 115.445L194.968 121.085C195.728 121.315 196.158 122.117 195.928 122.877Z" fill="#F8F3F4"/>
<path d="M124.291 110.039H124.214C123.953 110.062 123.696 110.069 123.439 110.069C118.443 110.062 114.289 106.224 113.887 101.245L111.038 65.5646C110.81 62.7467 111.837 59.9717 113.846 57.9823C115.855 55.9929 118.64 54.9921 121.455 55.2477C116.207 55.7061 112.313 60.3136 112.735 65.5646L115.58 101.245C115.952 105.907 119.632 109.622 124.291 110.039Z" fill="#F9E0E5"/>
<path d="M185.615 87.2504V88.0687C185.615 94.0997 180.728 98.9898 174.697 98.9935H151.257C145.221 98.9953 140.326 94.1047 140.323 88.0687V87.2504C140.323 79.1615 144.638 71.687 151.643 67.6426C158.648 63.5981 167.279 63.5981 174.284 67.6426C181.289 71.687 185.605 79.1615 185.605 87.2504H185.615Z" fill="#F8F3F4"/>
<path d="M140.219 87.2507V88.0723C140.221 94.1033 145.109 98.9919 151.14 98.9937H160.973C150.837 93.1764 145.649 81.4543 148.158 70.0402C147.704 70.4209 147.27 70.825 146.852 71.2459C145.906 72.1871 145.048 73.2122 144.287 74.3085C141.633 78.1018 140.212 82.621 140.219 87.2507Z" fill="#FBFBFA"/>
<path d="M181.55 74.3082C177.004 79.1458 170.78 82.0625 164.153 82.4608C163.625 82.4942 163.091 82.5109 162.55 82.5109C162.216 82.5109 161.898 82.5109 161.571 82.4909C154.968 82.2537 148.703 79.5133 144.047 74.8258C148.098 68.6771 155.068 64.1849 162.974 64.1849C169.226 64.1849 174.887 67.1508 178.985 71.2455C179.929 72.1884 180.788 73.2134 181.55 74.3082Z" fill="#FFB2BF"/>
<path d="M146.665 119.44L177.582 113.812V108.699L146.665 114.327L146.665 119.44Z" fill="#FFDA9A"/>
<path d="M153.862 115.178C155.239 115.493 156.099 116.864 155.784 118.241L147.654 153.737C147.339 155.113 145.968 155.973 144.591 155.658C143.215 155.343 142.355 153.971 142.67 152.595L150.799 117.099C151.115 115.723 152.486 114.863 153.862 115.178Z" fill="#FFDA9A"/>
<path d="M148.49 112.687H150.42V118.602C150.42 119.067 150.043 119.444 149.579 119.444H148.49V112.687L148.49 112.687Z" fill="#257575"/>
<path d="M155.986 111.401H157.917V119.484H155.986V111.401Z" fill="#257575"/>
<path d="M163.486 110.112H165.417V118.195H163.486V110.112Z" fill="#257575"/>
<path d="M170.986 108.826H172.917V116.909H170.986V108.826Z" fill="#257575"/>
<path fill-rule="evenodd" clip-rule="evenodd" d="M145.678 139.45C145.937 138.32 147.064 137.613 148.195 137.872L149.084 138.075C150.215 138.334 150.922 139.461 150.663 140.592V140.592C150.404 141.723 149.277 142.43 148.146 142.171L147.257 141.967C146.126 141.708 145.419 140.581 145.678 139.45V139.45Z" stroke="white" stroke-width="4.25" stroke-linecap="round" stroke-linejoin="round"/>
<ellipse cx="145.935" cy="36.1499" rx="5.59766" ry="5.59767" fill="#FFB2BF"/>
<path d="M168.195 242.769V258.39C168.195 259.284 167.47 260.01 166.575 260.01H131.302C130.408 260.01 129.683 259.284 129.683 258.39V248.614C129.683 247.822 130.257 247.146 131.039 247.017L137.217 245.995L166.318 241.173C166.786 241.096 167.264 241.229 167.626 241.537C167.987 241.844 168.195 242.295 168.195 242.769Z" fill="#EDD2F2"/>
<path d="M161.864 279.187H136.003C136.116 272.127 141.872 266.463 148.933 266.463C155.995 266.463 161.75 272.127 161.864 279.187Z" fill="#F8E8E2"/>
<path d="M135.364 281.08H163.108C165.532 281.08 167.497 279.116 167.497 276.692C167.493 275.459 166.97 274.285 166.057 273.457C165.144 272.629 163.924 272.224 162.697 272.34L135.083 275.012C133.524 275.165 132.335 276.475 132.334 278.041C132.336 279.715 133.69 281.073 135.364 281.08Z" fill="white"/>
<ellipse cx="148.932" cy="268.13" rx="3.44343" ry="3.44344" fill="white"/>
<path d="M237.104 277.384L214.654 264.552C216.946 260.542 221.203 258.059 225.823 258.039C230.442 258.019 234.721 260.464 237.048 264.455C239.375 268.445 239.397 273.374 237.104 277.384Z" fill="#E5C7BB"/>
<path d="M239.035 278.88C238.452 279.901 237.487 280.647 236.352 280.956C235.218 281.265 234.007 281.111 232.987 280.527L223.271 274.976L201.178 262.344C200.223 261.847 199.607 260.878 199.56 259.802C199.514 258.727 200.045 257.708 200.953 257.13C201.861 256.552 203.009 256.503 203.963 257L226.588 267.721L237.082 272.688C238.195 273.215 239.039 274.183 239.409 275.358C239.78 276.533 239.645 277.809 239.035 278.88Z" fill="#F8E8E2"/>
<ellipse cx="233.112" cy="260.825" rx="3.44343" ry="3.44345" fill="#F8E8E2"/>
<path d="M204.306 249.391L200.321 249.866C199.603 249.942 198.921 249.533 198.651 248.864L195.842 242.07C195.514 241.279 195.86 240.37 196.63 239.996L199.76 238.477L204.306 249.391Z" fill="#EDD2F2"/>
<path d="M137.211 246.012V260.039H131.302C130.873 260.039 130.461 259.869 130.157 259.565C129.853 259.261 129.683 258.849 129.683 258.42V248.614C129.683 247.822 130.257 247.146 131.039 247.017L137.217 245.995L137.211 246.012Z" fill="#EFDCF4"/>
<path d="M164.155 82.46C163.627 82.4934 163.092 82.5101 162.551 82.5101C162.217 82.5101 161.9 82.5101 161.573 82.4901L161.867 80.8402C161.953 80.3682 162.362 80.0239 162.842 80.019C163.322 80.0141 163.738 80.35 163.834 80.8202L164.155 82.46Z" fill="#FF6D8D"/>
<path d="M117.293 49.3704C116.127 45.3152 118.469 41.0827 122.524 39.9168L124.162 39.4462C128.217 38.2803 132.449 40.6226 133.615 44.6778L138.096 60.2649C139.262 64.3201 136.92 68.5526 132.865 69.7185L131.228 70.1891C127.173 71.355 122.94 69.0128 121.774 64.9576L117.293 49.3704Z" fill="#FBFBFA"/>
<path d="M116.638 50.3929C115.472 46.3377 117.815 42.1052 121.87 40.9393L123.507 40.4686C127.562 39.3028 131.795 41.645 132.961 45.7002L137.442 61.2874C138.608 65.3426 136.265 69.5751 132.21 70.7409L130.573 71.2116C126.518 72.3775 122.286 70.0352 121.12 65.98L116.638 50.3929Z" fill="#CAC4CE"/>
<ellipse cx="125.966" cy="45.6216" rx="1.86032" ry="1.86033" fill="#FBFBFA"/>
<ellipse cx="121.653" cy="46.8609" rx="0.968576" ry="0.968574" fill="#FBFBFA"/>
<ellipse cx="122.622" cy="62.8414" rx="10.1499" ry="12.872" transform="rotate(-47.95 122.622 62.8414)" fill="#FFB2BF"/>
<path d="M133.442 60.9987C132.635 59.678 131.641 58.482 130.489 57.4484C125.212 52.689 117.891 52.1981 114.124 56.3629C111.685 59.0649 111.351 63.0627 112.868 66.8368C110.233 62.4949 110.152 57.4484 113.055 54.2287C116.812 50.0672 124.133 50.5548 129.42 55.3142C131.177 56.8769 132.553 58.8215 133.442 60.9987Z" fill="#F9E0E5"/>
<path d="M175.906 20.4195C173.528 23.4855 170.084 26.4313 165.886 28.7692C157.586 33.3883 148.853 34.24 144.113 31.3443V29.4639C144.117 22.183 148.706 15.6938 155.57 13.2644C162.434 10.835 170.083 12.9921 174.667 18.6493C175.115 19.2142 175.528 19.8053 175.906 20.4195Z" fill="#FFF6BB"/>
<path d="M178.481 29.4802V40.1177C176.894 38.7985 175.523 37.2401 174.416 35.4987C170.615 29.5804 170.408 22.9473 173.932 20.6829C174.453 20.3507 175.034 20.1238 175.642 20.0149C175.732 20.1485 175.819 20.2854 175.906 20.4224C177.594 23.1414 178.486 26.2795 178.481 29.4802Z" fill="#FFF6BB"/>
<path d="M178.772 28.2244C178.774 29.2115 178.693 30.197 178.528 31.1702C177.091 22.7721 169.811 16.6318 161.291 16.6318C152.771 16.6318 145.491 22.7721 144.054 31.1702C143.893 30.1965 143.811 29.2113 143.81 28.2244C143.81 18.5699 151.637 10.7434 161.291 10.7434C170.946 10.7434 178.772 18.5699 178.772 28.2244Z" fill="#01BFBF"/>
<path d="M144.1 29.8636C144.1 30.1676 144.1 30.4748 144.13 30.7754C144.103 30.9057 144.077 31.0393 144.057 31.1695C143.892 30.1963 143.808 29.2109 143.806 28.2237C143.812 22.9646 146.182 17.9867 150.262 14.6675C154.341 11.3483 159.697 10.0395 164.847 11.1034C153.014 12.8335 144.1 20.5687 144.1 29.8636Z" fill="#01BFBF"/>
<ellipse rx="7.04718" ry="2.87231" transform="matrix(0.885718 -0.464224 0.464223 0.885718 153.478 25.2933)" fill="#FDFAE4"/>
<ellipse cx="143.706" cy="39.4832" rx="0.761495" ry="0.761498" fill="#01BFBF"/>
<path d="M143.507 39.8139C139.877 40.2756 137.122 43.3057 137.005 46.9623C136.889 50.6188 139.447 53.818 143.039 54.5095L143.173 51.891C140.246 51.3337 138.156 48.7353 138.239 45.757C138.322 42.7788 140.553 40.3008 143.507 39.9074C143.597 39.8926 143.689 39.8826 143.78 39.8774V39.7905C143.697 39.7905 143.603 39.8039 143.507 39.8139Z" fill="#01BFBF"/>
<ellipse cx="179.679" cy="39.4832" rx="0.761485" ry="0.761498" fill="#01BFBF"/>
<path d="M179.583 39.7839V39.8708C179.675 39.876 179.766 39.886 179.857 39.9008C182.81 40.2942 185.042 42.7722 185.125 45.7504C185.208 48.7287 183.118 51.3271 180.191 51.8844L180.324 54.5029C183.917 53.8114 186.475 50.6122 186.358 46.9557C186.242 43.2991 183.486 40.269 179.857 39.8073C179.777 39.804 179.683 39.7906 179.583 39.7839V39.7839Z" fill="#01BFBF"/>
<path d="M171.47 34.9009C171.415 36.5539 170.059 37.8657 168.405 37.8657C166.752 37.8657 165.396 36.5539 165.341 34.9009C165.34 34.7114 165.358 34.5224 165.395 34.3364C165.675 35.7744 166.935 36.8121 168.4 36.8121C169.866 36.8121 171.126 35.7744 171.406 34.3364C171.446 34.522 171.467 34.7111 171.47 34.9009Z" fill="#01BFBF"/>
<path d="M156.355 34.9009C156.355 36.5923 154.984 37.9636 153.293 37.9636C151.601 37.9636 150.23 36.5923 150.23 34.9009C150.228 34.7115 150.245 34.5225 150.28 34.3364C150.568 35.7682 151.826 36.7983 153.286 36.7983C154.747 36.7983 156.004 35.7682 156.292 34.3364C156.33 34.5223 156.351 34.7112 156.355 34.9009Z" fill="#01BFBF"/>
<path d="M157.932 39.5635C157.902 40.3043 158.17 41.0261 158.677 41.5674C158.74 41.6342 158.804 41.6944 158.871 41.7545C159.353 42.1822 159.97 42.4269 160.614 42.4458H160.724C162.168 42.4906 163.406 41.4249 163.577 39.991C163.577 39.9175 163.577 39.8374 163.577 39.7606C163.586 39.4648 163.355 39.217 163.059 39.2061L158.47 39.0525C158.182 39.0504 157.945 39.2762 157.932 39.5635Z" fill="#962F4A"/>
<path d="M160.698 42.0079C160.692 42.1521 160.701 42.2965 160.725 42.4388C162.168 42.485 163.406 41.4182 163.574 39.984C163.376 39.9193 163.17 39.8833 162.962 39.8771C161.75 39.8433 160.738 40.7956 160.698 42.0079Z" fill="#E1617F"/>
<path d="M158.588 39.0488C158.588 39.5932 159.416 40.0508 160.448 40.0909C161.48 40.131 162.332 39.7201 162.372 39.1757L158.588 39.0488Z" fill="white"/>
<path d="M85.4161 286.672L18.3457 286.363C14.4727 286.345 10.7654 284.789 8.03877 282.039C5.31212 279.288 3.78922 275.567 3.80481 271.694L4.51373 103.546C4.53207 99.671 6.08879 95.9616 8.84158 93.2338C11.5944 90.506 15.3178 88.9831 19.1932 89.0001L86.2636 89.3093C88.1816 89.3177 90.0791 89.7037 91.8478 90.4455C93.6166 91.1872 95.2219 92.27 96.5722 93.6321C97.9224 94.9943 98.9911 96.609 99.7173 98.3842C100.444 100.159 100.813 102.06 100.805 103.978L100.096 272.121C100.087 274.04 99.7009 275.939 98.9586 277.709C98.2164 279.479 97.1328 281.085 95.7696 282.437C94.4065 283.788 92.7906 284.857 91.0142 285.584C89.2377 286.311 87.3355 286.681 85.4161 286.672Z" fill="#EE6B0E"/>
<path d="M85.5938 94.0263L72.588 93.9624C71.7317 93.9792 70.9171 94.3348 70.3226 94.9513C69.7281 95.5678 69.4022 96.3948 69.4165 97.2511V99.6071C69.4243 100.031 69.3484 100.453 69.1932 100.848C69.038 101.243 68.8066 101.603 68.5121 101.908C68.2175 102.214 67.8657 102.458 67.4768 102.628C67.0878 102.797 66.6692 102.888 66.245 102.896L40.8997 102.779C40.0434 102.755 39.2315 102.393 38.6419 101.771C38.0524 101.15 37.7334 100.32 37.7549 99.4632V97.1019C37.7764 96.2455 37.4574 95.4156 36.8678 94.7941C36.2783 94.1726 35.4664 93.8102 34.61 93.7865H30.0367L18.6566 93.7385C17.3127 93.7322 15.9806 93.9907 14.7366 94.4992C13.4925 95.0076 12.3607 95.7562 11.406 96.702C10.4512 97.6479 9.69207 98.7726 9.17194 100.012C8.65182 101.251 8.38088 102.581 8.3746 103.925L7.68166 268.048C7.67886 269.392 7.94097 270.724 8.45303 271.967C8.96508 273.21 9.71704 274.34 10.666 275.293C11.6149 276.245 12.7421 277.001 13.9833 277.518C15.2245 278.034 16.5553 278.301 17.8997 278.303L84.8369 278.613C86.1806 278.619 87.5124 278.36 88.7562 277.852C89.9999 277.343 91.1313 276.595 92.0857 275.649C93.04 274.703 93.7987 273.578 94.3182 272.339C94.8377 271.1 95.108 269.77 95.1136 268.426L95.8012 104.324C95.8103 102.977 95.5532 101.641 95.0446 100.394C94.536 99.146 93.7859 98.0112 92.8374 97.0543C91.8889 96.0974 90.7608 95.3373 89.5177 94.8177C88.2746 94.298 86.9411 94.0291 85.5938 94.0263Z" fill="#FAFAFA"/>
<path d="M17.0678 111.473C16.9951 111.47 16.9262 111.44 16.8759 111.387L15.8578 110.321C15.8329 110.297 15.8134 110.268 15.8005 110.236C15.7876 110.204 15.7817 110.169 15.7832 110.135C15.7834 110.1 15.7906 110.065 15.8043 110.033C15.818 110.001 15.838 109.972 15.8631 109.948L16.8865 108.973C16.9109 108.948 16.9399 108.928 16.9719 108.915C17.0039 108.901 17.0383 108.894 17.0731 108.894C17.1078 108.894 17.1422 108.901 17.1743 108.915C17.2063 108.928 17.2353 108.948 17.2597 108.973C17.2846 108.997 17.3045 109.027 17.318 109.059C17.3315 109.092 17.3385 109.127 17.3385 109.162C17.3385 109.197 17.3315 109.232 17.318 109.264C17.3045 109.297 17.2846 109.326 17.2597 109.351L16.4281 110.14L17.265 111.014C17.29 111.039 17.3098 111.068 17.3233 111.101C17.3368 111.133 17.3438 111.168 17.3438 111.203C17.3438 111.239 17.3368 111.273 17.3233 111.306C17.3098 111.338 17.29 111.368 17.265 111.393C17.239 111.418 17.2082 111.439 17.1743 111.452C17.1405 111.466 17.1043 111.473 17.0678 111.473Z" fill="#EE6B0E"/>
<path d="M80.2729 250.171H24.9344C20.189 250.171 16.342 254.017 16.342 258.763V260.303C16.342 265.049 20.189 268.896 24.9344 268.896H80.2729C85.0184 268.896 88.8653 265.049 88.8653 260.303V258.763C88.8653 254.017 85.0184 250.171 80.2729 250.171Z" fill="#01BFBF"/>
<path d="M43.9788 257.361H45.6631C45.9439 257.347 46.2246 257.39 46.4883 257.487C46.7519 257.585 46.993 257.735 47.1967 257.929C47.4005 258.123 47.5628 258.356 47.6736 258.614C47.7845 258.873 47.8417 259.151 47.8417 259.432C47.8417 259.713 47.7845 259.991 47.6736 260.25C47.5628 260.508 47.4005 260.741 47.1967 260.935C46.993 261.128 46.7519 261.279 46.4883 261.376C46.2246 261.474 45.9439 261.517 45.6631 261.503H43.9788V257.361ZM45.6418 261.124C45.872 261.137 46.1025 261.103 46.319 261.024C46.5356 260.945 46.7337 260.822 46.9013 260.664C47.0689 260.505 47.2023 260.314 47.2936 260.102C47.3848 259.891 47.4318 259.662 47.4318 259.432C47.4318 259.201 47.3848 258.973 47.2936 258.761C47.2023 258.55 47.0689 258.359 46.9013 258.2C46.7337 258.042 46.5356 257.919 46.319 257.84C46.1025 257.761 45.872 257.727 45.6418 257.74H44.4158V261.124H45.6418Z" fill="#FAFAFA"/>
<path d="M48.4952 259.435C48.4815 259.003 48.5971 258.576 48.8272 258.209C49.0574 257.843 49.3917 257.553 49.7874 257.378C50.1831 257.202 50.6221 257.149 51.0482 257.225C51.4744 257.3 51.8683 257.501 52.1796 257.802C52.491 258.102 52.7055 258.489 52.7958 258.912C52.8861 259.336 52.848 259.776 52.6865 260.178C52.5249 260.579 52.2472 260.923 51.889 261.166C51.5307 261.409 51.1081 261.539 50.6753 261.541C50.3917 261.554 50.1082 261.51 49.8424 261.41C49.5765 261.31 49.334 261.157 49.1297 260.96C48.9254 260.762 48.7638 260.525 48.6546 260.263C48.5455 260.001 48.4913 259.719 48.4952 259.435ZM52.4076 259.435C52.4129 259.089 52.3149 258.749 52.1262 258.459C51.9374 258.168 51.6665 257.941 51.3479 257.805C51.0293 257.669 50.6774 257.632 50.3373 257.697C49.9972 257.762 49.6841 257.927 49.4381 258.17C49.1921 258.414 49.0243 258.726 48.956 259.065C48.8878 259.405 48.9223 259.757 49.055 260.077C49.1877 260.397 49.4128 260.67 49.7014 260.861C49.9899 261.052 50.329 261.154 50.6753 261.152C50.9036 261.16 51.1312 261.121 51.344 261.038C51.5567 260.954 51.7502 260.829 51.9125 260.668C52.0748 260.507 52.2024 260.315 52.2876 260.103C52.3727 259.891 52.4136 259.664 52.4076 259.435Z" fill="#FAFAFA"/>
<path d="M57.2791 257.361V261.503H56.922L54.2569 258.145V261.503H53.8145V257.361H54.1769L56.842 260.719V257.361H57.2791Z" fill="#FAFAFA"/>
<path d="M61.5547 261.124V261.503H58.6284V257.361H61.4641V257.74H59.0655V259.211H61.1976V259.584H59.0655V261.124H61.5547Z" fill="#FAFAFA"/>
<path d="M27.2195 179.379H24.9648V178.313H30.7322V179.379H28.4775V185.109H27.2195V179.379Z" fill="#01BFBF"/>
<path d="M36.6709 182.146V185.12H35.4609V182.306C35.4609 181.383 35.0025 180.936 34.2296 180.936C33.3661 180.936 32.7798 181.469 32.7798 182.497V185.12H31.5698V177.908H32.7798V180.547C33.0069 180.324 33.2774 180.15 33.5745 180.036C33.8717 179.923 34.189 179.871 34.5068 179.886C35.7487 179.864 36.6709 180.573 36.6709 182.146Z" fill="#01BFBF"/>
<path d="M42.5452 182.072V185.11H41.4046V184.476C41.2136 184.721 40.964 184.913 40.6788 185.035C40.3936 185.157 40.0822 185.205 39.7735 185.174C38.5902 185.174 37.8386 184.524 37.8386 183.623C37.8386 182.723 38.425 182.083 39.9974 182.083H41.3513V182.003C41.3513 181.294 40.9248 180.878 40.0613 180.878C39.4834 180.87 38.9198 181.058 38.4623 181.411L37.9879 180.532C38.6297 180.087 39.398 179.861 40.1786 179.887C41.6817 179.866 42.5452 180.574 42.5452 182.072ZM41.3513 183.485V182.888H40.0986C39.2725 182.888 39.0326 183.197 39.0326 183.575C39.0326 183.954 39.4057 184.295 40.024 184.295C40.3026 184.318 40.5814 184.252 40.82 184.107C41.0586 183.961 41.2447 183.743 41.3513 183.485Z" fill="#01BFBF"/>
<path d="M49.1984 182.146V185.121H47.9831V182.306C47.9831 181.384 47.53 180.936 46.7518 180.936C45.8883 180.936 45.3073 181.469 45.3073 182.498V185.121H44.092V179.934H45.2487V180.606C45.474 180.36 45.751 180.167 46.0597 180.041C46.3684 179.914 46.7013 179.858 47.0343 179.876C48.2763 179.865 49.1984 180.574 49.1984 182.146Z" fill="#01BFBF"/>
<path d="M52.8585 182.887L51.9577 183.745V185.115H50.7424V177.908H51.9577V182.252L54.4683 179.923H55.9234L53.7594 182.098L56.126 185.109H54.6762L52.8585 182.887Z" fill="#01BFBF"/>
<path d="M64.442 179.923L62.0168 185.525C61.5424 186.698 60.8814 187.055 60.0179 187.055C59.5144 187.065 59.0235 186.897 58.6321 186.581L59.1171 185.69C59.3572 185.919 59.6758 186.047 60.0073 186.048C60.4337 186.048 60.6895 185.845 60.9187 185.328L61.0094 185.125L58.7493 179.923H60.0073L61.6383 183.756L63.2801 179.923H64.442Z" fill="#01BFBF"/>
<path d="M64.623 182.514C64.6039 181.964 64.7495 181.42 65.0413 180.954C65.3331 180.487 65.7576 180.118 66.2605 179.895C66.7634 179.671 67.3215 179.603 67.8635 179.699C68.4054 179.795 68.9063 180.05 69.3019 180.433C69.6975 180.816 69.9697 181.308 70.0836 181.846C70.1976 182.384 70.148 182.945 69.9413 183.455C69.7347 183.965 69.3803 184.401 68.9237 184.709C68.4671 185.016 67.9291 185.179 67.3787 185.179C67.0193 185.199 66.6596 185.144 66.3223 185.018C65.985 184.893 65.6773 184.699 65.4185 184.448C65.1597 184.198 64.9555 183.897 64.8186 183.564C64.6817 183.231 64.6151 182.874 64.623 182.514ZM68.9245 182.514C68.913 182.212 68.8131 181.92 68.6373 181.675C68.4614 181.43 68.2173 181.241 67.9353 181.133C67.6533 181.026 67.3459 181.003 67.0512 181.068C66.7564 181.134 66.4875 181.285 66.2776 181.502C66.0678 181.719 65.9264 181.993 65.8709 182.289C65.8155 182.586 65.8485 182.893 65.9658 183.171C66.0831 183.449 66.2796 183.687 66.5308 183.854C66.782 184.021 67.0768 184.111 67.3787 184.113C67.5876 184.117 67.7952 184.079 67.9884 184C68.1816 183.92 68.3564 183.802 68.5016 183.651C68.6467 183.501 68.7593 183.323 68.8321 183.127C68.9049 182.931 68.9363 182.722 68.9245 182.514Z" fill="#01BFBF"/>
<path d="M76.3262 179.923V185.109H75.1696V184.448C74.9621 184.685 74.705 184.872 74.4166 184.998C74.1281 185.123 73.8155 185.183 73.5012 185.173C72.1686 185.173 71.2678 184.448 71.2678 182.887V179.923H72.4831V182.721C72.4831 183.66 72.9255 184.107 73.6931 184.107C74.4606 184.107 75.1109 183.574 75.1109 182.546V179.923H76.3262Z" fill="#01BFBF"/>
<path d="M77.6953 184.416C77.6959 184.315 77.7169 184.216 77.757 184.123C77.7971 184.03 77.8554 183.947 77.9285 183.877C78.0017 183.807 78.0881 183.753 78.1827 183.718C78.2772 183.682 78.378 183.666 78.4789 183.67C78.6782 183.67 78.8694 183.749 79.0103 183.89C79.1513 184.031 79.2304 184.222 79.2304 184.422C79.2304 184.621 79.1513 184.812 79.0103 184.953C78.8694 185.094 78.6782 185.173 78.4789 185.173C78.3772 185.177 78.2759 185.16 78.181 185.124C78.0861 185.087 77.9995 185.032 77.9263 184.961C77.8532 184.891 77.7951 184.806 77.7554 184.712C77.7157 184.619 77.6952 184.518 77.6953 184.416ZM77.7646 178.313H79.1984L78.9586 182.855H77.9938L77.7646 178.313Z" fill="#01BFBF"/>
<path d="M53.0891 168.148C60.796 168.148 67.0437 161.901 67.0437 154.194C67.0437 146.487 60.796 140.239 53.0891 140.239C45.3822 140.239 39.1345 146.487 39.1345 154.194C39.1345 161.901 45.3822 168.148 53.0891 168.148Z" fill="#01BFBF"/>
<path d="M59.9631 148.304C60.139 148.448 57.5325 151.956 54.1424 156.135L52.085 158.629L51.8025 158.97L51.504 158.661C48.8388 155.927 47.0426 153.901 47.1705 153.773C47.2984 153.645 49.3292 155.452 52.0583 158.101L51.4826 158.16L53.4975 155.639C56.8875 151.433 59.7818 148.161 59.9631 148.304Z" fill="white"/>
<path d="M72.9139 148.565C72.4981 147.099 70.5952 147.243 70.5952 147.243L70.6432 148.261C71.7466 148.069 72.4288 149.359 72.4288 149.359L72.9139 148.565Z" fill="#01BFBF"/>
<path d="M32.4905 151.647C32.0801 150.181 30.1719 150.319 30.1719 150.319L30.2252 151.343C31.3285 151.151 32.0108 152.441 32.0108 152.441L32.4905 151.647Z" fill="#E0E0E0"/>
<path d="M54.7518 131.365C56.9639 132.036 58.3391 129.489 58.3391 129.489L56.9958 128.721C56.3349 130.283 54.1282 130.102 54.1282 130.102L54.7518 131.365Z" fill="#E0E0E0"/>
<path d="M42.4851 134.11C41.4563 134.222 41.3337 135.512 41.3337 135.512L42.0213 135.592C42.0213 134.835 42.9648 134.526 42.9648 134.526L42.4851 134.11Z" fill="#01BFBF"/>
<path d="M84.8837 143.556C85.033 142.532 83.8177 142.09 83.8177 142.09L83.5671 142.735C84.3027 142.921 84.372 143.913 84.372 143.913L84.8837 143.556Z" fill="#E0E0E0"/>
<path d="M48.4882 120.64C48.6374 119.617 47.4222 119.174 47.4222 119.174L47.1716 119.825C47.9072 120.011 47.9765 120.997 47.9765 120.997L48.4882 120.64Z" fill="#01BFBF"/>
<path d="M23.0715 137.148C22.8903 138.747 25.0117 139.142 25.0117 139.142L25.3955 138.076C24.1216 137.958 23.9404 136.477 23.9404 136.477L23.0715 137.148Z" fill="#01BFBF"/>
<path d="M70.3844 131.334C71.4184 131.392 71.7489 130.14 71.7489 130.14L71.0826 129.948C70.96 130.694 69.9792 130.849 69.9792 130.849L70.3844 131.334Z" fill="#01BFBF"/>
<path d="M76.0304 135.543C75.7532 135.621 75.4643 135.648 75.1775 135.623C74.8908 135.649 74.6018 135.621 74.3247 135.543C74.8876 135.429 75.4675 135.429 76.0304 135.543Z" fill="#E0E0E0"/>
<path d="M76.9342 133.225C77.0408 133.795 77.0408 134.381 76.9342 134.952C76.8204 134.382 76.8204 133.795 76.9342 133.225Z" fill="#E0E0E0"/>
<path d="M77.8955 135.486C78.1727 135.408 78.4616 135.381 78.7483 135.406C79.0351 135.38 79.3241 135.407 79.6012 135.486C79.0383 135.599 78.4584 135.599 77.8955 135.486Z" fill="#E0E0E0"/>
<path d="M76.9984 137.809C76.8847 137.238 76.8847 136.649 76.9984 136.077C77.105 136.65 77.105 137.237 76.9984 137.809Z" fill="#E0E0E0"/>
<path d="M78.3691 136.839C78.3372 136.866 78.1719 136.727 78.0014 136.53C77.8308 136.333 77.7295 136.141 77.7615 136.114C77.7935 136.088 77.964 136.221 78.1293 136.424C78.2945 136.626 78.4065 136.781 78.3691 136.839Z" fill="#E0E0E0"/>
<path d="M78.2919 134.174C78.3239 134.211 78.2119 134.376 78.036 134.552C77.8601 134.728 77.6949 134.845 77.6629 134.813C77.6309 134.781 77.7429 134.611 77.9188 134.435C78.0947 134.259 78.2599 134.174 78.2919 134.174Z" fill="#E0E0E0"/>
<path d="M76.3369 134.851C76.3049 134.888 76.145 134.803 75.9797 134.664C75.8145 134.526 75.7079 134.387 75.7345 134.355C75.7612 134.323 75.9211 134.403 76.0863 134.536C76.2516 134.669 76.3635 134.819 76.3369 134.851Z" fill="#E0E0E0"/>
<path d="M76.2576 136.013C76.2949 136.04 76.1937 136.205 76.0337 136.381C75.8738 136.557 75.7193 136.669 75.6873 136.637C75.6553 136.605 75.7512 136.44 75.9111 136.269C76.071 136.099 76.2256 135.981 76.2576 136.013Z" fill="#E0E0E0"/>
<path d="M29.5914 130.789C29.0285 130.903 28.4486 130.903 27.8857 130.789C28.1629 130.712 28.4518 130.685 28.7386 130.709C29.0254 130.684 29.3144 130.711 29.5914 130.789Z" fill="#01BFBF"/>
<path d="M30.5028 128.47C30.6165 129.042 30.6165 129.631 30.5028 130.203C30.389 129.631 30.389 129.042 30.5028 128.47Z" fill="#01BFBF"/>
<path d="M31.4641 130.736C32.027 130.623 32.6069 130.623 33.1698 130.736C32.6069 130.85 32.027 130.85 31.4641 130.736Z" fill="#01BFBF"/>
<path d="M30.5594 133.055C30.4457 132.485 30.4457 131.898 30.5594 131.328C30.6731 131.898 30.6731 132.485 30.5594 133.055Z" fill="#01BFBF"/>
<path d="M31.9354 132.042C31.8981 132.074 31.7328 131.936 31.5676 131.733C31.4024 131.53 31.2904 131.349 31.3278 131.317C31.3651 131.285 31.525 131.429 31.6955 131.626C31.8661 131.824 31.9674 132.042 31.9354 132.042Z" fill="#01BFBF"/>
<path d="M31.8605 129.43C31.8925 129.462 31.7752 129.633 31.6046 129.809C31.4341 129.985 31.2635 130.097 31.2315 130.065C31.1995 130.033 31.3115 129.867 31.4874 129.691C31.6633 129.516 31.8285 129.377 31.8605 129.43Z" fill="#01BFBF"/>
<path d="M29.9013 130.102C29.8746 130.134 29.7147 130.054 29.5495 129.915C29.3842 129.777 29.2723 129.638 29.3043 129.601C29.3363 129.564 29.4908 129.649 29.6561 129.787C29.8213 129.926 29.9333 130.065 29.9013 130.102Z" fill="#01BFBF"/>
<path d="M29.8253 131.259C29.8573 131.291 29.756 131.456 29.6015 131.632C29.4469 131.808 29.287 131.92 29.2497 131.888C29.2124 131.856 29.319 131.691 29.4735 131.52C29.6281 131.349 29.788 131.227 29.8253 131.259Z" fill="#01BFBF"/>
<path d="M88.5861 108.615C87.3349 108.752 86.0755 108.799 84.8176 108.754C83.5615 108.799 82.3038 108.752 81.0544 108.615C82.3036 108.475 83.5615 108.429 84.8176 108.477C86.0755 108.429 87.3351 108.475 88.5861 108.615Z" fill="#EE6B0E"/>
<path d="M88.5861 110.188C87.3351 110.328 86.0755 110.374 84.8176 110.326C83.5615 110.374 82.3036 110.328 81.0544 110.188C82.3038 110.051 83.5615 110.004 84.8176 110.049C86.0755 110.004 87.3349 110.051 88.5861 110.188Z" fill="#EE6B0E"/>
<path d="M88.5861 111.75C87.3351 111.89 86.0755 111.937 84.8176 111.889C83.5615 111.937 82.3036 111.891 81.0544 111.75C82.3038 111.613 83.5615 111.567 84.8176 111.612C86.0755 111.567 87.3349 111.613 88.5861 111.75Z" fill="#EE6B0E"/>
<path d="M44.5377 240.611L62.0896 240.749L62.2636 218.592L44.7117 218.454L44.5377 240.611Z" fill="#EBEBEB"/>
<path d="M55.3892 219.25L55.0747 240.699L52.303 240.678L52.9 219.229L55.3892 219.25Z" fill="#FAFAFA"/>
<path d="M34.6257 219.085L44.6945 219.165L62.247 219.304L44.6785 221.612L44.5293 240.619L34.4604 240.539L34.6257 219.085Z" fill="#E0E0E0"/>
<path d="M40.1063 219.127L39.7066 240.581L36.7163 240.555L37.2067 219.106L40.1063 219.127Z" fill="#FAFAFA"/>
<path d="M41.5014 211.086C41.4824 211.099 41.4831 211.092 41.5014 211.086V211.086Z" fill="#E0E0E0"/>
<path d="M47.7133 212.757C47.6654 212.48 48.9766 212.07 51.0234 211.467C52.2004 211.131 53.3542 210.718 54.4774 210.231C54.744 210.124 54.9965 209.984 55.229 209.815C55.3089 209.746 55.3462 209.687 55.3356 209.692C55.3249 209.698 55.3356 209.772 55.3089 209.735C55.2762 209.629 55.2352 209.526 55.1863 209.426L54.9305 208.893C54.7734 208.564 54.5953 208.245 54.3975 207.939C54.2211 207.665 54.0116 207.415 53.7738 207.193C53.6629 207.091 53.5454 206.996 53.422 206.91C53.3224 206.841 53.215 206.784 53.1022 206.739C52.9354 206.662 52.747 206.645 52.5692 206.691C52.3401 206.765 52.1293 206.887 51.9509 207.049C51.0401 207.808 50.2336 208.684 49.5523 209.655C48.3743 211.329 48.0651 212.635 47.772 212.592C47.644 212.592 47.5481 212.219 47.5961 211.574C47.6831 210.664 47.9398 209.778 48.353 208.962C48.9537 207.737 49.7677 206.629 50.7569 205.689C51.1116 205.342 51.537 205.074 52.0042 204.906C52.5671 204.712 53.1789 204.712 53.7418 204.906C53.9982 204.999 54.2432 205.12 54.4721 205.268C54.6815 205.401 54.8794 205.55 55.0637 205.716C55.4316 206.045 55.7542 206.422 56.0232 206.835C56.2708 207.215 56.4899 207.612 56.6788 208.024L56.9346 208.589C57.0574 208.844 57.1453 209.115 57.1958 209.394C57.2614 209.792 57.192 210.201 56.9986 210.556C56.8388 210.842 56.6165 211.088 56.3483 211.275C55.9778 211.528 55.5742 211.729 55.149 211.872C53.9055 212.319 52.6168 212.628 51.3059 212.795C49.1098 213.093 47.7453 213.013 47.7133 212.757Z" fill="#EBEBEB"/>
<path d="M31.4402 219.051L57.2378 219.254L57.2954 211.92L31.4978 211.717L31.4402 219.051Z" fill="#E0E0E0"/>
<path d="M40.9207 219.124L64.2397 219.307L64.2973 211.973L40.9783 211.79L40.9207 219.124Z" fill="#EBEBEB"/>
<path d="M57.1403 211.926L56.975 219.292L54.2566 219.239L54.4485 211.904L57.1403 211.926Z" fill="#FAFAFA"/>
<path d="M37.8156 211.814L37.5491 219.117L34.5588 219.09L34.7187 211.75L37.8156 211.814Z" fill="#FAFAFA"/>
<path d="M63.5551 240.207L73.501 240.285L73.5996 227.732L63.6536 227.654L63.5551 240.207Z" fill="#EBEBEB"/>
<path d="M69.6985 228.104L69.5226 240.263L67.9502 240.252L68.286 228.094L69.6985 228.104Z" fill="#FAFAFA"/>
<path d="M57.9292 228.013L63.6379 228.056L73.5842 228.136L63.6273 229.447L63.542 240.214L57.8386 240.172L57.9292 228.013Z" fill="#E0E0E0"/>
<path d="M61.0385 228.039L60.8147 240.192L59.1196 240.181L59.3968 228.023L61.0385 228.039Z" fill="#FAFAFA"/>
<path d="M65.5506 224.335C65.5506 224.521 64.9004 224.745 63.7597 224.868C63.0603 224.924 62.3565 224.866 61.6756 224.697C61.3528 224.62 61.0677 224.431 60.8707 224.164C60.7548 223.98 60.6904 223.769 60.6841 223.551C60.6831 223.397 60.6992 223.243 60.7321 223.093C60.8232 222.654 60.9534 222.224 61.1212 221.808C61.2246 221.574 61.3514 221.351 61.4997 221.142C61.6718 220.897 61.8888 220.687 62.1393 220.524C62.296 220.424 62.471 220.357 62.6541 220.326C62.8371 220.295 63.0245 220.3 63.2053 220.342C63.476 220.421 63.7256 220.559 63.9356 220.748C64.4751 221.209 64.9203 221.77 65.2468 222.4C65.7798 223.466 65.7052 224.26 65.5293 224.287C65.3534 224.313 65.0656 223.706 64.4206 222.933C64.0486 222.487 63.6204 222.091 63.1467 221.755C63.0762 221.698 62.9945 221.656 62.9068 221.632L62.8695 221.659C62.7808 221.732 62.7036 221.819 62.6403 221.915C62.5509 222.043 62.4758 222.181 62.4165 222.325C62.2798 222.672 62.1676 223.029 62.0807 223.391L62.0487 223.514H61.9634H61.8834C61.8461 223.514 61.8408 223.514 61.8834 223.514C61.92 223.491 61.9525 223.462 61.9794 223.429L62.0114 223.397C62.0476 223.423 62.087 223.444 62.1286 223.461C62.6851 223.648 63.258 223.781 63.8396 223.86C64.8524 224.015 65.5506 224.138 65.5506 224.335Z" fill="#E0E0E0"/>
<path d="M65.3362 224.431C65.2988 224.218 66.0397 223.935 67.1804 223.557C67.8329 223.349 68.4735 223.105 69.0993 222.827C69.234 222.77 69.3611 222.696 69.4777 222.608C69.5097 222.582 69.5097 222.56 69.4777 222.608C69.4534 222.654 69.4406 222.705 69.4404 222.757L69.2432 222.342C69.1562 222.158 69.0583 221.98 68.9501 221.809C68.8619 221.666 68.7542 221.537 68.6302 221.425C68.5399 221.332 68.4333 221.256 68.3158 221.201C68.2622 221.183 68.2041 221.183 68.1505 221.201C68.0425 221.229 67.9435 221.284 67.8627 221.361C67.3545 221.773 66.8981 222.246 66.5035 222.768C65.8159 223.669 65.592 224.394 65.3735 224.367C65.1549 224.341 65.0217 223.482 65.576 222.235C65.9076 221.515 66.3704 220.862 66.9406 220.311C67.1588 220.095 67.4204 219.928 67.7081 219.82C68.067 219.695 68.4579 219.695 68.8168 219.82C68.9782 219.874 69.1322 219.947 69.2752 220.039C69.4027 220.122 69.5238 220.215 69.6377 220.316C69.8578 220.512 70.0513 220.736 70.2133 220.982C70.3551 221.207 70.4832 221.441 70.5971 221.681L70.741 222.006C70.8208 222.175 70.8765 222.354 70.9063 222.539C70.9493 222.808 70.9005 223.084 70.7677 223.322C70.6626 223.507 70.519 223.667 70.3466 223.792C70.1228 223.944 69.8788 224.064 69.6217 224.149C68.9025 224.399 68.1565 224.563 67.399 224.639C66.1517 224.724 65.3788 224.628 65.3362 224.431Z" fill="#E0E0E0"/>
<path d="M56.1259 227.997L70.7463 228.112L70.779 223.954L56.1586 223.839L56.1259 227.997Z" fill="#E0E0E0"/>
<path d="M61.5082 228.035L74.7214 228.138L74.7541 223.981L61.5408 223.877L61.5082 228.035Z" fill="#EBEBEB"/>
<path d="M70.6862 223.956L70.5956 228.13L69.0498 228.098L69.1617 223.946L70.6862 223.956Z" fill="#FAFAFA"/>
<path d="M59.7395 223.892L59.5903 228.028L57.8953 228.017L57.9859 223.854L59.7395 223.892Z" fill="#FAFAFA"/>
<path d="M289.967 249.853C289.967 249.512 288.822 216.101 283.392 210.819C278.145 205.695 272.024 210.627 271.797 210.819L271.237 210.146C271.307 210.085 278.163 204.488 283.995 210.146C289.679 215.672 290.789 248.393 290.842 249.783L289.967 249.853Z" fill="#4C7378"/>
<path d="M290.43 256.42C290.43 256.018 286.713 216.293 301.22 199.644L301.885 200.221C287.623 216.59 291.26 255.939 291.304 256.332L290.43 256.42Z" fill="#4C7378"/>
<path d="M289.916 252.214L289.041 252.161C289.041 251.707 291.875 207.006 281.242 197.23L281.836 196.583C292.784 206.648 290.038 250.36 289.916 252.214Z" fill="#4C7378"/>
<path d="M291.304 252.188H290.43C290.43 250.955 290.78 221.986 299.017 217.264C299.8 216.757 300.693 216.446 301.621 216.356C302.549 216.266 303.485 216.4 304.351 216.748C309.326 218.803 311.792 227.661 311.897 228.037L311.022 228.273C311.022 228.185 308.565 219.45 303.975 217.552C303.231 217.262 302.429 217.153 301.635 217.235C300.841 217.317 300.078 217.588 299.41 218.024C291.645 222.493 291.304 251.899 291.304 252.188Z" fill="#4C7378"/>
<path d="M288.096 252.214L287.222 252.161C287.222 251.934 288.463 229.278 282.343 221.294C280.865 219.371 279.247 218.453 277.568 218.566C273.563 218.846 270.206 224.687 270.179 224.766L269.41 224.329C269.559 224.075 273.03 218.007 277.507 217.692C279.518 217.561 281.372 218.566 283.042 220.77C289.399 228.998 288.157 251.269 288.096 252.214Z" fill="#4C7378"/>
<path d="M289.398 255.292C289.232 253.097 285.402 201.349 292.144 192.229L292.844 192.745C286.294 201.612 290.22 254.698 290.273 255.231L289.398 255.292Z" fill="#4C7378"/>
<path d="M306.179 222.003C306.179 222.003 302.13 223.498 303.337 227.022C304.544 230.546 317.328 236.334 317.328 236.334C317.328 236.334 322.679 231.42 317.765 223.437C312.851 215.453 306.284 219.476 306.179 222.003Z" fill="#4C7378"/>
<path opacity="0.2" d="M306.179 222.003C306.179 222.003 302.13 223.498 303.337 227.022C304.544 230.546 317.328 236.334 317.328 236.334C317.328 236.334 322.679 231.42 317.765 223.437C312.851 215.453 306.284 219.476 306.179 222.003Z" fill="white"/>
<path d="M288.593 215.296C288.593 215.296 292.904 215.121 293.149 218.794C293.394 222.466 283.819 232.785 283.819 232.785C283.819 232.785 276.981 230.31 278.45 221.05C279.919 211.79 287.526 213.014 288.593 215.296Z" fill="#4C7378"/>
<path opacity="0.2" d="M288.593 215.296C288.593 215.296 292.904 215.121 293.149 218.794C293.394 222.466 283.819 232.785 283.819 232.785C283.819 232.785 276.981 230.31 278.45 221.05C279.919 211.79 287.526 213.014 288.593 215.296Z" fill="white"/>
<path d="M284.947 197.519C284.947 197.519 287.815 197.213 287.571 195.464C287.326 193.716 276.413 189.212 269.96 196.496C269.96 196.496 274.087 203.588 280.059 203.684C286.032 203.78 284.947 197.519 284.947 197.519Z" fill="#4C7378"/>
<path opacity="0.2" d="M284.947 197.519C284.947 197.519 287.815 197.213 287.571 195.464C287.326 193.716 276.413 189.212 269.96 196.496C269.96 196.496 274.087 203.588 280.059 203.684C286.032 203.78 284.947 197.519 284.947 197.519Z" fill="white"/>
<path d="M290.273 193.287C290.273 193.287 287.65 194.546 286.941 192.937C286.233 191.328 293.115 181.727 302.436 184.499C302.436 184.499 302.681 192.701 297.662 195.937C292.643 199.172 290.273 193.287 290.273 193.287Z" fill="#4C7378"/>
<path opacity="0.2" d="M290.273 193.287C290.273 193.287 287.65 194.546 286.941 192.937C286.233 191.328 293.115 181.727 302.436 184.499C302.436 184.499 302.681 192.701 297.662 195.937C292.643 199.172 290.273 193.287 290.273 193.287Z" fill="white"/>
<path d="M276.702 220.587C276.702 220.587 278.687 218.986 276.545 218.199C274.403 217.412 263.918 217.64 263.805 228.037C263.805 228.037 276.047 230.065 277.542 226.113C279.037 222.161 276.702 220.587 276.702 220.587Z" fill="#4C7378"/>
<path opacity="0.2" d="M276.702 220.587C276.702 220.587 278.687 218.986 276.545 218.199C274.403 217.412 263.918 217.64 263.805 228.037C263.805 228.037 276.047 230.065 277.542 226.113C279.037 222.161 276.702 220.587 276.702 220.587Z" fill="white"/>
<path d="M301.64 197.274C301.64 197.274 299.664 195.674 301.797 194.887C303.931 194.1 314.433 194.328 314.538 204.724C314.538 204.724 302.296 206.753 300.809 202.801C299.323 198.848 301.64 197.274 301.64 197.274Z" fill="#4C7378"/>
<path opacity="0.2" d="M301.64 197.274C301.64 197.274 299.664 195.674 301.797 194.887C303.931 194.1 314.433 194.328 314.538 204.724C314.538 204.724 302.296 206.753 300.809 202.801C299.323 198.848 301.64 197.274 301.64 197.274Z" fill="white"/>
<path d="M295.16 205.643C295.16 205.643 294.994 203.702 296.559 204.463C298.124 205.223 303.598 211.126 297.932 216.704C297.932 216.704 290.298 211.056 291.671 208.109C293.044 205.162 295.16 205.643 295.16 205.643Z" fill="#4C7378"/>
<path opacity="0.2" d="M295.16 205.643C295.16 205.643 294.994 203.702 296.559 204.463C298.124 205.223 303.598 211.126 297.932 216.704C297.932 216.704 290.298 211.056 291.671 208.109C293.044 205.162 295.16 205.643 295.16 205.643Z" fill="white"/>
<path d="M274.936 208.415C274.936 208.415 276.117 206.867 274.386 206.666C272.654 206.465 264.872 208.546 266.682 216.284C266.682 216.284 276.161 215.567 276.563 212.341C276.965 209.114 274.936 208.415 274.936 208.415Z" fill="#4C7378"/>
<path opacity="0.2" d="M274.936 208.415C274.936 208.415 276.117 206.867 274.386 206.666C272.654 206.465 264.872 208.546 266.682 216.284C266.682 216.284 276.161 215.567 276.563 212.341C276.965 209.114 274.936 208.415 274.936 208.415Z" fill="white"/>
<path d="M306.93 281H274.436L270.93 245.42H310.436L306.93 281Z" fill="#EE6B0E"/>
<path d="M312.169 241.494H269.191V249.346H312.169V241.494Z" fill="#EE6B0E"/>
<path opacity="0.2" d="M312.169 241.494H269.191V249.346H312.169V241.494Z" fill="white"/>
</svg>
